Asap-Medium.ufo
<glyph name="exclam" format="2">
  <advance width="294.0"/>
  <unicode hex="0021"/>
  <outline>
    <contour>
      <point x="141.28846153846155" y="207.76923076923077" type="curve" smooth="yes"/>
      <point x="152.28846153846155" y="207.76923076923077" type="line" smooth="yes"/>
      <point x="179.05769230769232" y="207.76923076923077"/>
      <point x="187.48076923076923" y="216.6346153846154"/>
      <point x="189.05769230769232" y="232.65384615384616" type="curve" smooth="yes"/>
      <point x="201.78846153846155" y="381.1923076923077"/>
      <point x="211.3846153846154" y="529.7307692307693"/>
      <point x="222.69230769230768" y="678.2692307692307" type="curve"/>
      <point x="222.69230769230768" y="693.4230769230769"/>
      <point x="208.80769230769232" y="702.0"/>
      <point x="177.6346153846154" y="702.0" type="curve" smooth="yes"/>
      <point x="151.0" y="702.0" type="line" smooth="yes"/>
      <point x="118.96153846153847" y="702.0"/>
      <point x="105.23076923076923" y="693.1346153846154"/>
      <point x="105.23076923076923" y="677.1153846153846" type="curve" smooth="yes"/>
      <point x="105.23076923076923" y="232.65384615384616" type="line" smooth="yes"/>
      <point x="105.23076923076923" y="216.6346153846154"/>
      <point x="114.51923076923077" y="207.76923076923077"/>
    </contour>
    <contour>
      <point x="136.69230769230768" y="-2.0" type="curve" smooth="yes"/>
      <point x="158.01923076923077" y="-2.0" type="line" smooth="yes"/>
      <point x="190.05769230769232" y="-2.0"/>
      <point x="203.78846153846155" y="6.865384615384615"/>
      <point x="203.78846153846155" y="22.884615384615383" type="curve" smooth="yes"/>
      <point x="203.78846153846155" y="96.38461538461539" type="line" smooth="yes"/>
      <point x="203.78846153846155" y="112.40384615384616"/>
      <point x="190.05769230769232" y="121.26923076923077"/>
      <point x="158.01923076923077" y="121.26923076923077" type="curve" smooth="yes"/>
      <point x="136.69230769230768" y="121.26923076923077" type="line" smooth="yes"/>
      <point x="104.65384615384616" y="121.26923076923077"/>
      <point x="90.92307692307692" y="112.40384615384616"/>
      <point x="90.92307692307692" y="96.38461538461539" type="curve" smooth="yes"/>
      <point x="90.92307692307692" y="22.884615384615383" type="line" smooth="yes"/>
      <point x="90.92307692307692" y="6.865384615384615"/>
      <point x="104.65384615384616" y="-2.0"/>
    </contour>
  </outline>
</glyph>
<glyph name="numbersign" format="2">
  <advance width="534.0"/>
  <unicode hex="0023"/>
  <outline>
    <contour>
      <point x="103.6923076923077" y="-2.0" type="curve" smooth="yes"/>
      <point x="110.28846153846153" y="-2.0" type="line" smooth="yes"/>
      <point x="145.42307692307693" y="-2.0"/>
      <point x="153.46153846153845" y="6.576923076923077"/>
      <point x="156.75" y="22.596153846153847" type="curve" smooth="yes"/>
      <point x="187.8846153846154" y="192.25" type="line"/>
      <point x="298.96153846153845" y="192.25" type="line"/>
      <point x="272.25" y="45.55769230769231"/>
      <point x="267.53846153846155" y="23.442307692307693"/>
      <point x="267.53846153846155" y="16.73076923076923" type="curve" smooth="yes"/>
      <point x="267.53846153846155" y="2.5769230769230766"/>
      <point x="277.9807692307692" y="-2.0"/>
      <point x="300.7307692307692" y="-2.0" type="curve" smooth="yes"/>
      <point x="307.3269230769231" y="-2.0" type="line" smooth="yes"/>
      <point x="341.03846153846155" y="-2.0"/>
      <point x="351.21153846153845" y="6.576923076923077"/>
      <point x="353.78846153846155" y="22.596153846153847" type="curve" smooth="yes"/>
      <point x="384.21153846153845" y="192.25" type="line"/>
      <point x="467.5576923076923" y="192.25" type="line" smooth="yes"/>
      <point x="483.5769230769231" y="192.25"/>
      <point x="490.4423076923077" y="202.98076923076923"/>
      <point x="490.4423076923077" y="228.01923076923077" type="curve" smooth="yes"/>
      <point x="490.4423076923077" y="243.0" type="line" smooth="yes"/>
      <point x="490.4423076923077" y="268.03846153846155"/>
      <point x="483.5769230769231" y="278.7692307692308"/>
      <point x="467.5576923076923" y="278.7692307692308" type="curve" smooth="yes"/>
      <point x="401.36538461538464" y="278.7692307692308" type="line"/>
      <point x="425.21153846153845" y="415.09615384615387" type="line"/>
      <point x="499.5576923076923" y="415.09615384615387" type="line" smooth="yes"/>
      <point x="515.5769230769231" y="415.09615384615387"/>
      <point x="522.4423076923077" y="425.8269230769231"/>
      <point x="522.4423076923077" y="450.86538461538464" type="curve" smooth="yes"/>
      <point x="522.4423076923077" y="465.84615384615387" type="line" smooth="yes"/>
      <point x="522.4423076923077" y="490.88461538461536"/>
      <point x="515.5769230769231" y="501.61538461538464"/>
      <point x="499.5576923076923" y="501.61538461538464" type="curve" smooth="yes"/>
      <point x="441.65384615384613" y="501.61538461538464" type="line"/>
      <point x="471.5" y="668.9807692307693" type="line"/>
      <point x="471.5" y="679.4230769230769"/>
      <point x="461.0576923076923" y="686.0"/>
      <point x="438.59615384615387" y="686.0" type="curve" smooth="yes"/>
      <point x="431.28846153846155" y="686.0" type="line" smooth="yes"/>
      <point x="394.7307692307692" y="686.0"/>
      <point x="387.11538461538464" y="677.4230769230769"/>
      <point x="383.8269230769231" y="661.4038461538462" type="curve" smooth="yes"/>
      <point x="354.9807692307692" y="501.61538461538464" type="line"/>
      <point x="243.19230769230768" y="501.61538461538464" type="line"/>
      <point x="274.46153846153845" y="668.9807692307693" type="line"/>
      <point x="274.46153846153845" y="679.4230769230769"/>
      <point x="264.0192307692308" y="686.0"/>
      <point x="241.55769230769232" y="686.0" type="curve" smooth="yes"/>
      <point x="234.96153846153845" y="686.0" type="line" smooth="yes"/>
      <point x="198.40384615384616" y="686.0"/>
      <point x="190.78846153846155" y="677.4230769230769"/>
      <point x="187.5" y="661.4038461538462" type="curve" smooth="yes"/>
      <point x="157.94230769230768" y="501.61538461538464" type="line"/>
      <point x="71.4423076923077" y="501.61538461538464" type="line" smooth="yes"/>
      <point x="55.42307692307692" y="501.61538461538464"/>
      <point x="48.55769230769231" y="490.88461538461536"/>
      <point x="48.55769230769231" y="465.84615384615387" type="curve" smooth="yes"/>
      <point x="48.55769230769231" y="450.86538461538464" type="line" smooth="yes"/>
      <point x="48.55769230769231" y="425.8269230769231"/>
      <point x="55.42307692307692" y="415.09615384615387"/>
      <point x="71.4423076923077" y="415.09615384615387" type="curve" smooth="yes"/>
      <point x="142.92307692307693" y="415.09615384615387" type="line"/>
      <point x="118.36538461538461" y="278.7692307692308" type="line"/>
      <point x="35.44230769230769" y="278.7692307692308" type="line" smooth="yes"/>
      <point x="19.423076923076923" y="278.7692307692308"/>
      <point x="12.557692307692308" y="268.03846153846155"/>
      <point x="12.557692307692308" y="243.0" type="curve" smooth="yes"/>
      <point x="12.557692307692308" y="228.01923076923077" type="line" smooth="yes"/>
      <point x="12.557692307692308" y="202.98076923076923"/>
      <point x="19.423076923076923" y="192.25"/>
      <point x="35.44230769230769" y="192.25" type="curve" smooth="yes"/>
      <point x="101.92307692307692" y="192.25" type="line"/>
      <point x="75.21153846153847" y="45.55769230769231"/>
      <point x="70.5" y="23.442307692307693"/>
      <point x="70.5" y="16.73076923076923" type="curve" smooth="yes"/>
      <point x="70.5" y="2.5769230769230766"/>
      <point x="80.9423076923077" y="-2.0"/>
    </contour>
    <contour>
      <point x="204.32692307692307" y="278.7692307692308" type="line"/>
      <point x="228.8846153846154" y="415.09615384615387" type="line"/>
      <point x="339.96153846153845" y="415.09615384615387" type="line"/>
      <point x="315.40384615384613" y="278.7692307692308" type="line"/>
    </contour>
  </outline>
</glyph>
<glyph name="dollar" format="2">
  <advance width="500.0"/>
  <unicode hex="0024"/>
  <outline>
    <contour>
      <point x="246.8846153846154" y="-6.288461538461538" type="curve" smooth="yes"/>
      <point x="394.7692307692308" y="-4.153846153846153"/>
      <point x="469.1923076923077" y="70.86538461538461"/>
      <point x="469.1923076923077" y="195.6153846153846" type="curve" smooth="yes"/>
      <point x="469.1923076923077" y="294.53846153846155"/>
      <point x="397.78846153846155" y="358.25"/>
      <point x="276.78846153846155" y="409.1923076923077" type="curve" smooth="yes"/>
      <point x="207.96153846153845" y="438.03846153846155"/>
      <point x="146.71153846153845" y="462.88461538461536"/>
      <point x="146.71153846153845" y="523.4038461538462" type="curve" smooth="yes"/>
      <point x="146.71153846153845" y="579.75"/>
      <point x="191.07692307692307" y="614.4230769230769"/>
      <point x="256.9807692307692" y="614.4230769230769" type="curve" smooth="yes"/>
      <point x="308.11538461538464" y="614.4230769230769"/>
      <point x="341.8269230769231" y="603.1538461538462"/>
      <point x="364.8269230769231" y="593.3076923076923" type="curve" smooth="yes"/>
      <point x="380.9807692307692" y="586.5961538461538"/>
      <point x="392.13461538461536" y="580.1730769230769"/>
      <point x="398.4230769230769" y="580.1730769230769" type="curve" smooth="yes"/>
      <point x="412.46153846153845" y="580.1730769230769"/>
      <point x="437.0576923076923" y="624.5192307692307"/>
      <point x="437.0576923076923" y="642.9807692307693" type="curve" smooth="yes"/>
      <point x="437.0576923076923" y="653.9807692307693"/>
      <point x="426.63461538461536" y="663.8461538461538"/>
      <point x="410.63461538461536" y="672.7115384615385" type="curve" smooth="yes"/>
      <point x="375.65384615384613" y="692.0"/>
      <point x="314.25" y="703.7307692307693"/>
      <point x="267.3076923076923" y="703.7307692307693" type="curve" smooth="yes"/>
      <point x="125.3076923076923" y="703.7307692307693"/>
      <point x="44.25" y="628.0"/>
      <point x="44.25" y="516.5192307692307" type="curve" smooth="yes"/>
      <point x="44.25" y="423.1730769230769"/>
      <point x="112.23076923076923" y="361.28846153846155"/>
      <point x="226.40384615384616" y="315.4807692307692" type="curve" smooth="yes"/>
      <point x="299.0769230769231" y="286.5"/>
      <point x="365.88461538461536" y="260.38461538461536"/>
      <point x="365.88461538461536" y="185.32692307692307" type="curve" smooth="yes"/>
      <point x="365.88461538461536" y="112.25"/>
      <point x="317.9230769230769" y="90.26923076923077"/>
      <point x="250.3846153846154" y="86.71153846153845" type="curve" smooth="yes"/>
      <point x="181.21153846153845" y="82.4423076923077"/>
      <point x="129.23076923076923" y="106.82692307692308"/>
      <point x="97.0576923076923" y="123.84615384615384" type="curve" smooth="yes"/>
      <point x="84.76923076923077" y="130.1346153846154"/>
      <point x="77.61538461538461" y="134.84615384615384"/>
      <point x="73.75" y="134.84615384615384" type="curve" smooth="yes"/>
      <point x="59.86538461538461" y="134.84615384615384"/>
      <point x="30.96153846153846" y="91.07692307692308"/>
      <point x="30.96153846153846" y="70.75" type="curve" smooth="yes"/>
      <point x="30.96153846153846" y="55.75"/>
      <point x="53.78846153846154" y="36.32692307692308"/>
      <point x="92.75" y="21.03846153846154" type="curve" smooth="yes"/>
      <point x="130.32692307692307" y="5.730769230769231"/>
      <point x="183.3653846153846" y="-7.0"/>
    </contour>
    <contour>
      <point x="257.15384615384613" y="-73.88461538461539" type="curve" smooth="yes"/>
      <point x="262.15384615384613" y="-73.88461538461539" type="line" smooth="yes"/>
      <point x="279.15384615384613" y="-73.88461538461539"/>
      <point x="288.15384615384613" y="-67.3076923076923"/>
      <point x="288.15384615384613" y="-53.86538461538461" type="curve" smooth="yes"/>
      <point x="288.15384615384613" y="741.5769230769231" type="line" smooth="yes"/>
      <point x="288.15384615384613" y="755.0192307692307"/>
      <point x="279.15384615384613" y="761.5961538461538"/>
      <point x="262.15384615384613" y="761.5961538461538" type="curve" smooth="yes"/>
      <point x="257.15384615384613" y="761.5961538461538" type="line" smooth="yes"/>
      <point x="240.15384615384616" y="761.5961538461538"/>
      <point x="231.15384615384616" y="755.0192307692307"/>
      <point x="231.15384615384616" y="741.5769230769231" type="curve" smooth="yes"/>
      <point x="231.15384615384616" y="-53.86538461538461" type="line" smooth="yes"/>
      <point x="231.15384615384616" y="-67.3076923076923"/>
      <point x="240.15384615384616" y="-73.88461538461539"/>
    </contour>
  </outline>
</glyph>
<glyph name="percent" format="2">
  <advance width="765.0"/>
  <unicode hex="0025"/>
  <outline>
    <contour>
      <point x="180.09615384615384" y="-5.557692307692308" type="curve" smooth="yes"/>
      <point x="196.34615384615384" y="-5.557692307692308" type="line" smooth="yes"/>
      <point x="215.92307692307693" y="-5.557692307692308"/>
      <point x="229.6346153846154" y="1.5961538461538458"/>
      <point x="237.5" y="16.03846153846154" type="curve" smooth="yes"/>
      <point x="605.8846153846154" y="683.25" type="line" smooth="yes"/>
      <point x="608.1730769230769" y="687.8269230769231"/>
      <point x="610.1730769230769" y="691.4038461538462"/>
      <point x="610.1730769230769" y="694.4038461538462" type="curve" smooth="yes"/>
      <point x="610.1730769230769" y="700.2692307692307"/>
      <point x="601.75" y="704.8461538461538"/>
      <point x="587.0384615384615" y="704.8461538461538" type="curve" smooth="yes"/>
      <point x="570.7884615384615" y="704.8461538461538" type="line" smooth="yes"/>
      <point x="551.2115384615385" y="704.8461538461538"/>
      <point x="537.5" y="697.6923076923077"/>
      <point x="529.6346153846154" y="683.25" type="curve" smooth="yes"/>
      <point x="161.25" y="16.03846153846154" type="line"/>
      <point x="158.25" y="11.461538461538462"/>
      <point x="156.96153846153845" y="7.173076923076923"/>
      <point x="156.96153846153845" y="4.596153846153846" type="curve" smooth="yes"/>
      <point x="156.96153846153845" y="-0.9807692307692308"/>
      <point x="165.3846153846154" y="-5.557692307692308"/>
    </contour>
    <contour>
      <point x="570.3076923076923" y="-5.865384615384615" type="curve" smooth="yes"/>
      <point x="633.1923076923077" y="-5.865384615384615"/>
      <point x="711.0576923076923" y="21.71153846153846"/>
      <point x="711.0576923076923" y="157.15384615384616" type="curve" smooth="yes"/>
      <point x="711.0576923076923" y="293.3076923076923"/>
      <point x="634.6153846153846" y="322.3076923076923"/>
      <point x="570.3076923076923" y="322.3076923076923" type="curve" smooth="yes"/>
      <point x="503.15384615384613" y="322.3076923076923"/>
      <point x="429.5576923076923" y="293.3076923076923"/>
      <point x="429.5576923076923" y="157.15384615384616" type="curve" smooth="yes"/>
      <point x="429.5576923076923" y="21.71153846153846"/>
      <point x="506.0" y="-5.865384615384615"/>
    </contour>
    <contour>
      <point x="570.3076923076923" y="56.92307692307692" type="curve" smooth="yes"/>
      <point x="512.8076923076923" y="56.92307692307692"/>
      <point x="505.9423076923077" y="112.46153846153847"/>
      <point x="505.9423076923077" y="157.15384615384616" type="curve" smooth="yes"/>
      <point x="505.9423076923077" y="201.84615384615384"/>
      <point x="512.0961538461538" y="259.0769230769231"/>
      <point x="570.3076923076923" y="259.0769230769231" type="curve" smooth="yes"/>
      <point x="629.9423076923077" y="259.0769230769231"/>
      <point x="635.8076923076923" y="201.84615384615384"/>
      <point x="635.8076923076923" y="157.15384615384616" type="curve" smooth="yes"/>
      <point x="635.8076923076923" y="112.46153846153847"/>
      <point x="626.3846153846154" y="56.92307692307692"/>
    </contour>
    <contour>
      <point x="194.69230769230768" y="378.40384615384613" type="curve" smooth="yes"/>
      <point x="257.5769230769231" y="378.40384615384613"/>
      <point x="335.4423076923077" y="405.9807692307692"/>
      <point x="335.4423076923077" y="541.4230769230769" type="curve" smooth="yes"/>
      <point x="335.4423076923077" y="677.5769230769231"/>
      <point x="259.0" y="706.5769230769231"/>
      <point x="194.69230769230768" y="706.5769230769231" type="curve" smooth="yes"/>
      <point x="127.53846153846153" y="706.5769230769231"/>
      <point x="53.94230769230769" y="677.5769230769231"/>
      <point x="53.94230769230769" y="541.4230769230769" type="curve" smooth="yes"/>
      <point x="53.94230769230769" y="405.9807692307692"/>
      <point x="130.3846153846154" y="378.40384615384613"/>
    </contour>
    <contour>
      <point x="194.69230769230768" y="441.1923076923077" type="curve" smooth="yes"/>
      <point x="137.19230769230768" y="441.1923076923077"/>
      <point x="130.32692307692307" y="496.7307692307692"/>
      <point x="130.32692307692307" y="541.4230769230769" type="curve" smooth="yes"/>
      <point x="130.32692307692307" y="586.1153846153846"/>
      <point x="136.48076923076923" y="643.3461538461538"/>
      <point x="194.69230769230768" y="643.3461538461538" type="curve" smooth="yes"/>
      <point x="254.32692307692307" y="643.3461538461538"/>
      <point x="260.1923076923077" y="586.1153846153846"/>
      <point x="260.1923076923077" y="541.4230769230769" type="curve" smooth="yes"/>
      <point x="260.1923076923077" y="496.7307692307692"/>
      <point x="250.76923076923077" y="441.1923076923077"/>
    </contour>
  </outline>
</glyph>
<glyph name="ampersand" format="2">
  <advance width="624.0"/>
  <unicode hex="0026"/>
  <outline>
    <contour>
      <point x="266.0769230769231" y="-6.576923076923077" type="curve" smooth="yes"/>
      <point x="341.5192307692308" y="-6.576923076923077"/>
      <point x="394.63461538461536" y="13.25"/>
      <point x="434.2692307692308" y="35.55769230769231" type="curve"/>
      <point x="461.40384615384613" y="2.8653846153846154"/>
      <point x="502.38461538461536" y="-6.576923076923077"/>
      <point x="538.2884615384615" y="-6.576923076923077" type="curve" smooth="yes"/>
      <point x="566.4423076923077" y="-6.576923076923077"/>
      <point x="617.9230769230769" y="-3.5769230769230766"/>
      <point x="617.9230769230769" y="28.903846153846153" type="curve" smooth="yes"/>
      <point x="617.9230769230769" y="36.90384615384615"/>
      <point x="609.7692307692307" y="83.11538461538461"/>
      <point x="594.0384615384615" y="83.11538461538461" type="curve" smooth="yes"/>
      <point x="585.9038461538462" y="83.11538461538461"/>
      <point x="578.8846153846154" y="78.40384615384616"/>
      <point x="555.6538461538462" y="78.40384615384616" type="curve" smooth="yes"/>
      <point x="527.5192307692307" y="78.40384615384616"/>
      <point x="506.84615384615387" y="92.11538461538461"/>
      <point x="506.84615384615387" y="143.46153846153845" type="curve" smooth="yes"/>
      <point x="506.84615384615387" y="328.21153846153845" type="line"/>
      <point x="580.75" y="328.21153846153845" type="line" smooth="yes"/>
      <point x="596.7692307692307" y="328.21153846153845"/>
      <point x="603.6346153846154" y="338.9423076923077"/>
      <point x="603.6346153846154" y="363.9807692307692" type="curve" smooth="yes"/>
      <point x="603.6346153846154" y="377.4230769230769" type="line" smooth="yes"/>
      <point x="603.6346153846154" y="402.46153846153845"/>
      <point x="596.7692307692307" y="413.1923076923077"/>
      <point x="580.75" y="413.1923076923077" type="curve" smooth="yes"/>
      <point x="506.84615384615387" y="413.1923076923077" type="line"/>
      <point x="506.84615384615387" y="515.3076923076923" type="line" smooth="yes"/>
      <point x="506.84615384615387" y="531.3269230769231"/>
      <point x="496.11538461538464" y="540.1923076923077"/>
      <point x="471.0769230769231" y="540.1923076923077" type="curve" smooth="yes"/>
      <point x="455.0192307692308" y="540.1923076923077" type="line" smooth="yes"/>
      <point x="430.5576923076923" y="540.1923076923077"/>
      <point x="418.6057692307692" y="531.3269230769231"/>
      <point x="416.6730769230769" y="515.3076923076923" type="curve" smooth="yes"/>
      <point x="404.38461538461536" y="413.1923076923077" type="line"/>
      <point x="293.3076923076923" y="413.1923076923077" type="line" smooth="yes"/>
      <point x="205.53846153846155" y="413.1923076923077"/>
      <point x="168.25" y="473.2307692307692"/>
      <point x="168.25" y="523.2307692307693" type="curve" smooth="yes"/>
      <point x="168.25" y="563.6923076923077"/>
      <point x="187.42307692307693" y="621.5961538461538"/>
      <point x="277.0" y="621.5961538461538" type="curve" smooth="yes"/>
      <point x="306.40384615384613" y="621.5961538461538"/>
      <point x="327.40384615384613" y="613.1730769230769"/>
      <point x="334.53846153846155" y="613.1730769230769" type="curve" smooth="yes"/>
      <point x="350.8269230769231" y="613.1730769230769"/>
      <point x="360.28846153846155" y="655.0"/>
      <point x="360.28846153846155" y="671.6923076923077" type="curve" smooth="yes"/>
      <point x="360.28846153846155" y="702.1538461538462"/>
      <point x="304.8269230769231" y="706.5769230769231"/>
      <point x="268.0769230769231" y="706.5769230769231" type="curve" smooth="yes"/>
      <point x="149.48076923076923" y="706.5769230769231"/>
      <point x="65.21153846153847" y="647.8269230769231"/>
      <point x="65.21153846153847" y="536.5576923076923" type="curve" smooth="yes"/>
      <point x="65.21153846153847" y="464.0"/>
      <point x="109.03846153846155" y="412.4230769230769"/>
      <point x="165.32692307692307" y="389.84615384615387" type="curve"/>
      <point x="165.32692307692307" y="385.84615384615387" type="line"/>
      <point x="99.84615384615384" y="365.8076923076923"/>
      <point x="42.21153846153846" y="301.65384615384613"/>
      <point x="42.21153846153846" y="203.28846153846155" type="curve" smooth="yes"/>
      <point x="42.21153846153846" y="55.34615384615385"/>
      <point x="157.26923076923077" y="-6.576923076923077"/>
    </contour>
    <contour>
      <point x="278.40384615384613" y="78.40384615384616" type="curve" smooth="yes"/>
      <point x="218.69230769230768" y="78.40384615384616"/>
      <point x="147.3846153846154" y="109.13461538461539"/>
      <point x="147.3846153846154" y="204.57692307692307" type="curve" smooth="yes"/>
      <point x="147.3846153846154" y="296.1923076923077"/>
      <point x="199.59615384615384" y="328.21153846153845"/>
      <point x="287.86538461538464" y="328.21153846153845" type="curve" smooth="yes"/>
      <point x="404.38461538461536" y="328.21153846153845" type="line"/>
      <point x="404.38461538461536" y="131.42307692307693" type="line" smooth="yes"/>
      <point x="404.38461538461536" y="110.71153846153847"/>
      <point x="407.8269230769231" y="93.26923076923077"/>
      <point x="415.5576923076923" y="75.40384615384616" type="curve"/>
      <point x="432.63461538461536" y="127.0" type="line"/>
      <point x="390.21153846153845" y="101.5"/>
      <point x="333.8076923076923" y="78.40384615384616"/>
    </contour>
  </outline>
</glyph>
<glyph name="quotesingle" format="2">
  <advance width="192.0"/>
  <unicode hex="0027"/>
  <outline>
    <contour>
      <point x="92.6923076923077" y="469.6923076923077" type="curve" smooth="yes"/>
      <point x="98.59615384615384" y="469.6923076923077" type="line" smooth="yes"/>
      <point x="113.90384615384616" y="469.6923076923077"/>
      <point x="122.48076923076923" y="475.13461538461536"/>
      <point x="124.0576923076923" y="486.88461538461536" type="curve" smooth="yes"/>
      <point x="146.76923076923077" y="677.1153846153846" type="line" smooth="yes"/>
      <point x="149.05769230769232" y="693.1346153846154"/>
      <point x="133.03846153846155" y="702.0"/>
      <point x="101.0" y="702.0" type="curve" smooth="yes"/>
      <point x="91.0" y="702.0" type="line" smooth="yes"/>
      <point x="58.96153846153846" y="702.0"/>
      <point x="42.94230769230769" y="693.1346153846154"/>
      <point x="45.23076923076923" y="677.1153846153846" type="curve" smooth="yes"/>
      <point x="67.23076923076923" y="486.88461538461536" type="line" smooth="yes"/>
      <point x="68.8076923076923" y="475.13461538461536"/>
      <point x="77.38461538461539" y="469.6923076923077"/>
    </contour>
  </outline>
</glyph>
<glyph name="parenleft" format="2">
  <advance width="301.0"/>
  <unicode hex="0028"/>
  <outline>
    <contour>
      <point x="251.48076923076923" y="-210.84615384615384" type="curve" smooth="yes"/>
      <point x="267.9230769230769" y="-210.84615384615384"/>
      <point x="287.84615384615387" y="-191.40384615384616"/>
      <point x="287.84615384615387" y="-177.65384615384616" type="curve" smooth="yes"/>
      <point x="287.84615384615387" y="-171.65384615384616"/>
      <point x="285.4230769230769" y="-164.65384615384616"/>
      <point x="280.0" y="-157.65384615384616" type="curve" smooth="yes"/>
      <point x="192.08653846153845" y="-39.52884615384616"/>
      <point x="145.23076923076923" y="113.8076923076923"/>
      <point x="145.23076923076923" y="286.28846153846155" type="curve" smooth="yes"/>
      <point x="145.23076923076923" y="459.0576923076923"/>
      <point x="194.01923076923077" y="611.9615384615385"/>
      <point x="280.71153846153845" y="730.5192307692307" type="curve" smooth="yes"/>
      <point x="286.49038461538464" y="738.2307692307693"/>
      <point x="288.5576923076923" y="745.2307692307693"/>
      <point x="288.5576923076923" y="751.9423076923077" type="curve" smooth="yes"/>
      <point x="288.5576923076923" y="768.5384615384615"/>
      <point x="265.0769230769231" y="783.0"/>
      <point x="250.76923076923077" y="783.0" type="curve" smooth="yes"/>
      <point x="242.90384615384616" y="783.0"/>
      <point x="235.32692307692307" y="779.4230769230769"/>
      <point x="228.03846153846155" y="771.2692307692307" type="curve" smooth="yes"/>
      <point x="122.63461538461539" y="656.8942307692307"/>
      <point x="53.84615384615385" y="482.34615384615387"/>
      <point x="53.84615384615385" y="286.28846153846155" type="curve" smooth="yes"/>
      <point x="53.84615384615385" y="90.23076923076923"/>
      <point x="121.07692307692308" y="-85.73076923076923"/>
      <point x="228.03846153846155" y="-198.40384615384616" type="curve" smooth="yes"/>
      <point x="235.32692307692307" y="-206.55769230769232"/>
      <point x="243.6153846153846" y="-210.84615384615384"/>
    </contour>
  </outline>
</glyph>
<glyph name="parenright" format="2">
  <advance width="301.0"/>
  <unicode hex="0029"/>
  <outline>
    <contour>
      <point x="49.36538461538461" y="-210.1346153846154" type="curve" smooth="yes"/>
      <point x="57.230769230769226" y="-210.1346153846154"/>
      <point x="64.8076923076923" y="-206.55769230769232"/>
      <point x="72.09615384615384" y="-198.40384615384616" type="curve" smooth="yes"/>
      <point x="177.5" y="-84.02884615384616"/>
      <point x="246.28846153846155" y="90.23076923076923"/>
      <point x="246.28846153846155" y="286.28846153846155" type="curve" smooth="yes"/>
      <point x="246.28846153846155" y="482.34615384615387"/>
      <point x="179.05769230769232" y="658.5961538461538"/>
      <point x="72.09615384615384" y="771.2692307692307" type="curve" smooth="yes"/>
      <point x="64.8076923076923" y="779.4230769230769"/>
      <point x="56.51923076923077" y="783.7115384615385"/>
      <point x="48.65384615384615" y="783.7115384615385" type="curve" smooth="yes"/>
      <point x="32.21153846153846" y="783.7115384615385"/>
      <point x="12.288461538461538" y="764.2692307692307"/>
      <point x="12.288461538461538" y="750.5192307692307" type="curve" smooth="yes"/>
      <point x="12.288461538461538" y="744.5192307692307"/>
      <point x="14.711538461538462" y="737.5192307692307"/>
      <point x="20.134615384615383" y="730.5192307692307" type="curve" smooth="yes"/>
      <point x="108.04807692307692" y="612.3942307692307"/>
      <point x="154.90384615384616" y="459.0576923076923"/>
      <point x="154.90384615384616" y="286.28846153846155" type="curve" smooth="yes"/>
      <point x="154.90384615384616" y="110.96153846153845"/>
      <point x="104.6923076923077" y="-43.36538461538461"/>
      <point x="16.576923076923077" y="-161.92307692307693" type="curve" smooth="yes"/>
      <point x="12.576923076923077" y="-167.5"/>
      <point x="10.153846153846153" y="-173.07692307692307"/>
      <point x="10.153846153846153" y="-178.3653846153846" type="curve" smooth="yes"/>
      <point x="10.153846153846153" y="-193.53846153846155"/>
      <point x="33.63461538461539" y="-210.1346153846154"/>
    </contour>
  </outline>
</glyph>
<glyph name="asterisk" format="2">
  <advance width="373.0"/>
  <unicode hex="002A"/>
  <outline>
    <contour>
      <point x="100.73076923076923" y="413.13461538461536" type="curve" smooth="yes"/>
      <point x="106.3076923076923" y="413.13461538461536"/>
      <point x="112.88461538461539" y="416.4230769230769"/>
      <point x="118.03846153846153" y="423.86538461538464" type="curve" smooth="yes"/>
      <point x="187.0" y="519.6730769230769" type="line"/>
      <point x="255.96153846153845" y="423.86538461538464" type="line" smooth="yes"/>
      <point x="260.8269230769231" y="416.71153846153845"/>
      <point x="266.6923076923077" y="413.13461538461536"/>
      <point x="273.2692307692308" y="413.13461538461536" type="curve" smooth="yes"/>
      <point x="283.4230769230769" y="413.13461538461536"/>
      <point x="298.4423076923077" y="425.86538461538464"/>
      <point x="298.4423076923077" y="435.7307692307692" type="curve" smooth="yes"/>
      <point x="298.4423076923077" y="440.3076923076923"/>
      <point x="297.15384615384613" y="445.1730769230769"/>
      <point x="292.5769230769231" y="450.75" type="curve" smooth="yes"/>
      <point x="224.90384615384616" y="543.9807692307693" type="line"/>
      <point x="317.2692307692308" y="573.6730769230769" type="line" smooth="yes"/>
      <point x="328.71153846153845" y="577.25"/>
      <point x="333.5769230769231" y="582.5384615384615"/>
      <point x="333.5769230769231" y="591.6923076923077" type="curve" smooth="yes"/>
      <point x="333.5769230769231" y="609.2884615384615"/>
      <point x="321.84615384615387" y="618.7307692307693"/>
      <point x="312.40384615384613" y="618.7307692307693" type="curve" smooth="yes"/>
      <point x="309.11538461538464" y="618.7307692307693"/>
      <point x="305.8269230769231" y="618.7307692307693"/>
      <point x="302.25" y="617.4423076923077" type="curve" smooth="yes"/>
      <point x="210.17307692307693" y="587.4615384615385" type="line"/>
      <point x="210.17307692307693" y="685.8269230769231" type="line" smooth="yes"/>
      <point x="210.17307692307693" y="701.8461538461538"/>
      <point x="203.30769230769232" y="708.7115384615385"/>
      <point x="187.28846153846155" y="708.7115384615385" type="curve" smooth="yes"/>
      <point x="171.26923076923077" y="708.7115384615385"/>
      <point x="164.40384615384616" y="701.8461538461538"/>
      <point x="164.40384615384616" y="685.8269230769231" type="curve" smooth="yes"/>
      <point x="164.40384615384616" y="587.4615384615385" type="line"/>
      <point x="71.75" y="617.4423076923077" type="line" smooth="yes"/>
      <point x="68.17307692307692" y="618.7307692307693"/>
      <point x="64.59615384615384" y="618.7307692307693"/>
      <point x="61.30769230769231" y="618.7307692307693" type="curve" smooth="yes"/>
      <point x="48.84615384615385" y="618.7307692307693"/>
      <point x="40.42307692307692" y="605.6923076923077"/>
      <point x="40.42307692307692" y="590.9807692307693" type="curve" smooth="yes"/>
      <point x="40.42307692307692" y="582.8269230769231"/>
      <point x="45.28846153846154" y="577.25"/>
      <point x="56.73076923076923" y="573.6730769230769" type="curve" smooth="yes"/>
      <point x="148.09615384615384" y="543.9807692307693" type="line"/>
      <point x="81.42307692307692" y="450.75" type="line" smooth="yes"/>
      <point x="76.84615384615384" y="445.1730769230769"/>
      <point x="75.26923076923077" y="440.3076923076923"/>
      <point x="75.26923076923077" y="435.7307692307692" type="curve" smooth="yes"/>
      <point x="75.26923076923077" y="425.86538461538464"/>
      <point x="89.57692307692308" y="413.13461538461536"/>
    </contour>
  </outline>
</glyph>
<glyph name="plus" format="2">
  <advance width="560.0"/>
  <unicode hex="002B"/>
  <outline>
    <contour>
      <point x="275.5576923076923" y="-1.4230769230769231" type="curve" smooth="yes"/>
      <point x="284.5769230769231" y="-1.4230769230769231" type="line" smooth="yes"/>
      <point x="309.61538461538464" y="-1.4230769230769231"/>
      <point x="320.34615384615387" y="5.442307692307692"/>
      <point x="320.34615384615387" y="21.46153846153846" type="curve" smooth="yes"/>
      <point x="320.34615384615387" y="192.67307692307693" type="line"/>
      <point x="490.0" y="192.67307692307693" type="line" smooth="yes"/>
      <point x="506.0192307692308" y="192.67307692307693"/>
      <point x="512.8846153846154" y="203.40384615384616"/>
      <point x="512.8846153846154" y="228.44230769230768" type="curve" smooth="yes"/>
      <point x="512.8846153846154" y="235.44230769230768" type="line" smooth="yes"/>
      <point x="512.8846153846154" y="260.4807692307692"/>
      <point x="506.0192307692308" y="271.21153846153845"/>
      <point x="490.0" y="271.21153846153845" type="curve" smooth="yes"/>
      <point x="320.34615384615387" y="271.21153846153845" type="line"/>
      <point x="320.34615384615387" y="443.0" type="line" smooth="yes"/>
      <point x="320.34615384615387" y="459.0192307692308"/>
      <point x="309.61538461538464" y="465.88461538461536"/>
      <point x="284.5769230769231" y="465.88461538461536" type="curve" smooth="yes"/>
      <point x="275.5576923076923" y="465.88461538461536" type="line" smooth="yes"/>
      <point x="250.51923076923077" y="465.88461538461536"/>
      <point x="239.78846153846155" y="459.0192307692308"/>
      <point x="239.78846153846155" y="443.0" type="curve" smooth="yes"/>
      <point x="239.78846153846155" y="271.21153846153845" type="line"/>
      <point x="70.0" y="271.21153846153845" type="line" smooth="yes"/>
      <point x="53.98076923076923" y="271.21153846153845"/>
      <point x="47.11538461538461" y="260.4807692307692"/>
      <point x="47.11538461538461" y="235.44230769230768" type="curve" smooth="yes"/>
      <point x="47.11538461538461" y="228.44230769230768" type="line" smooth="yes"/>
      <point x="47.11538461538461" y="203.40384615384616"/>
      <point x="53.98076923076923" y="192.67307692307693"/>
      <point x="70.0" y="192.67307692307693" type="curve" smooth="yes"/>
      <point x="239.78846153846155" y="192.67307692307693" type="line"/>
      <point x="239.78846153846155" y="21.46153846153846" type="line" smooth="yes"/>
      <point x="239.78846153846155" y="5.442307692307692"/>
      <point x="250.51923076923077" y="-1.4230769230769231"/>
    </contour>
  </outline>
</glyph>
<glyph name="comma" format="2">
  <advance width="198.0"/>
  <unicode hex="002C"/>
  <outline>
    <contour>
      <point x="40.11538461538461" y="-118.59615384615384" type="curve" smooth="yes"/>
      <point x="76.28846153846153" y="-118.59615384615384"/>
      <point x="153.21153846153845" y="-29.03846153846154"/>
      <point x="153.21153846153845" y="88.65384615384616" type="curve" smooth="yes"/>
      <point x="153.21153846153845" y="107.96153846153845"/>
      <point x="137.34615384615384" y="121.26923076923077"/>
      <point x="107.4423076923077" y="121.26923076923077" type="curve" smooth="yes"/>
      <point x="95.5576923076923" y="121.26923076923077" type="line" smooth="yes"/>
      <point x="64.23076923076923" y="121.26923076923077"/>
      <point x="49.78846153846154" y="107.11538461538461"/>
      <point x="49.78846153846154" y="85.8076923076923" type="curve" smooth="yes"/>
      <point x="49.78846153846154" y="13.423076923076923"/>
      <point x="34.61538461538461" y="-34.44230769230769"/>
      <point x="15.5" y="-74.98076923076923" type="curve" smooth="yes"/>
      <point x="11.211538461538463" y="-84.42307692307692"/>
      <point x="6.500000000000001" y="-94.71153846153847"/>
      <point x="6.500000000000001" y="-101.57692307692308" type="curve" smooth="yes"/>
      <point x="6.500000000000001" y="-114.73076923076923"/>
      <point x="27.096153846153847" y="-118.59615384615384"/>
    </contour>
  </outline>
</glyph>
<glyph name="hyphen" format="2">
  <advance width="320.0"/>
  <unicode hex="002D"/>
  <outline>
    <contour>
      <point x="62.98076923076923" y="224.80769230769232" type="curve"/>
      <point x="257.0192307692308" y="224.80769230769232" type="line" smooth="yes"/>
      <point x="273.03846153846155" y="224.80769230769232"/>
      <point x="279.90384615384613" y="235.53846153846155"/>
      <point x="279.90384615384613" y="260.5769230769231" type="curve" smooth="yes"/>
      <point x="279.90384615384613" y="269.71153846153845" type="line" smooth="yes"/>
      <point x="279.90384615384613" y="294.75"/>
      <point x="273.03846153846155" y="305.4807692307692"/>
      <point x="257.0192307692308" y="305.4807692307692" type="curve" smooth="yes"/>
      <point x="62.98076923076923" y="305.4807692307692" type="line" smooth="yes"/>
      <point x="46.96153846153846" y="305.4807692307692"/>
      <point x="40.09615384615385" y="294.75"/>
      <point x="40.09615384615385" y="269.71153846153845" type="curve" smooth="yes"/>
      <point x="40.09615384615385" y="260.5769230769231" type="line" smooth="yes"/>
      <point x="40.09615384615385" y="235.53846153846155"/>
      <point x="46.96153846153846" y="224.80769230769232"/>
    </contour>
  </outline>
</glyph>
<glyph name="period" format="2">
  <advance width="198.0"/>
  <unicode hex="002E"/>
  <outline>
    <contour>
      <point x="88.6923076923077" y="-2.0" type="curve" smooth="yes"/>
      <point x="110.01923076923077" y="-2.0" type="line" smooth="yes"/>
      <point x="142.05769230769232" y="-2.0"/>
      <point x="155.78846153846155" y="6.865384615384615"/>
      <point x="155.78846153846155" y="22.884615384615383" type="curve" smooth="yes"/>
      <point x="155.78846153846155" y="96.38461538461539" type="line" smooth="yes"/>
      <point x="155.78846153846155" y="112.40384615384616"/>
      <point x="142.05769230769232" y="121.26923076923077"/>
      <point x="110.01923076923077" y="121.26923076923077" type="curve" smooth="yes"/>
      <point x="88.6923076923077" y="121.26923076923077" type="line" smooth="yes"/>
      <point x="56.65384615384615" y="121.26923076923077"/>
      <point x="42.92307692307692" y="112.40384615384616"/>
      <point x="42.92307692307692" y="96.38461538461539" type="curve" smooth="yes"/>
      <point x="42.92307692307692" y="22.884615384615383" type="line" smooth="yes"/>
      <point x="42.92307692307692" y="6.865384615384615"/>
      <point x="56.65384615384615" y="-2.0"/>
    </contour>
  </outline>
</glyph>
<glyph name="slash" format="2">
  <advance width="422.0"/>
  <unicode hex="002F"/>
  <outline>
    <contour>
      <point x="51.13461538461539" y="-76.86538461538461" type="curve" smooth="yes"/>
      <point x="59.17307692307692" y="-76.86538461538461" type="line" smooth="yes"/>
      <point x="80.21153846153847" y="-76.86538461538461"/>
      <point x="92.09615384615384" y="-73.57692307692308"/>
      <point x="97.96153846153845" y="-58.98076923076923" type="curve" smooth="yes"/>
      <point x="392.9423076923077" y="654.75" type="line" smooth="yes"/>
      <point x="399.65384615384613" y="670.1730769230769"/>
      <point x="403.5" y="682.0"/>
      <point x="403.5" y="686.7115384615385" type="curve" smooth="yes"/>
      <point x="403.5" y="697.4230769230769"/>
      <point x="396.03846153846155" y="702.7115384615385"/>
      <point x="372.5576923076923" y="702.7115384615385" type="curve" smooth="yes"/>
      <point x="365.96153846153845" y="702.7115384615385" type="line" smooth="yes"/>
      <point x="342.0769230769231" y="702.7115384615385"/>
      <point x="329.90384615384613" y="698.1346153846154"/>
      <point x="321.90384615384613" y="678.4230769230769" type="curve" smooth="yes"/>
      <point x="27.211538461538463" y="-35.30769230769231" type="line" smooth="yes"/>
      <point x="23.211538461538463" y="-45.30769230769231"/>
      <point x="18.5" y="-55.73076923076923"/>
      <point x="18.5" y="-61.57692307692308" type="curve" smooth="yes"/>
      <point x="18.5" y="-73.0"/>
      <point x="28.942307692307693" y="-76.86538461538461"/>
    </contour>
  </outline>
</glyph>
<glyph name="zero" format="2">
  <advance width="535.0"/>
  <unicode hex="0030"/>
  <outline>
    <contour>
      <point x="267.28846153846155" y="-6.576923076923077" type="curve" smooth="yes"/>
      <point x="396.0769230769231" y="-6.576923076923077"/>
      <point x="498.59615384615387" y="107.92307692307692"/>
      <point x="498.59615384615387" y="350.0" type="curve" smooth="yes"/>
      <point x="498.59615384615387" y="592.0769230769231"/>
      <point x="396.0769230769231" y="706.5769230769231"/>
      <point x="267.28846153846155" y="706.5769230769231" type="curve" smooth="yes"/>
      <point x="139.21153846153845" y="706.5769230769231"/>
      <point x="37.40384615384615" y="592.0769230769231"/>
      <point x="37.40384615384615" y="350.0" type="curve" smooth="yes"/>
      <point x="37.40384615384615" y="107.92307692307692"/>
      <point x="139.21153846153845" y="-6.576923076923077"/>
    </contour>
    <contour>
      <point x="267.28846153846155" y="78.40384615384616" type="curve" smooth="yes"/>
      <point x="199.90384615384616" y="78.40384615384616"/>
      <point x="141.15384615384616" y="155.42307692307693"/>
      <point x="141.15384615384616" y="350.0" type="curve" smooth="yes"/>
      <point x="141.15384615384616" y="544.5769230769231"/>
      <point x="199.90384615384616" y="621.5961538461538"/>
      <point x="267.28846153846155" y="621.5961538461538" type="curve" smooth="yes"/>
      <point x="334.6730769230769" y="621.5961538461538"/>
      <point x="394.84615384615387" y="544.5769230769231"/>
      <point x="394.84615384615387" y="350.0" type="curve" smooth="yes"/>
      <point x="394.84615384615387" y="155.42307692307693"/>
      <point x="334.6730769230769" y="78.40384615384616"/>
    </contour>
  </outline>
</glyph>
<glyph name="one" format="2">
  <advance width="535.0"/>
  <unicode hex="0031"/>
  <outline>
    <contour>
      <point x="81.15384615384616" y="0.0" type="curve" smooth="yes"/>
      <point x="479.0769230769231" y="0.0" type="line" smooth="yes"/>
      <point x="495.09615384615387" y="0.0"/>
      <point x="501.96153846153845" y="10.73076923076923"/>
      <point x="501.96153846153845" y="35.76923076923077" type="curve" smooth="yes"/>
      <point x="501.96153846153845" y="49.21153846153846" type="line" smooth="yes"/>
      <point x="501.96153846153845" y="74.25"/>
      <point x="495.09615384615387" y="84.98076923076923"/>
      <point x="479.0769230769231" y="84.98076923076923" type="curve" smooth="yes"/>
      <point x="345.78846153846155" y="84.98076923076923" type="line"/>
      <point x="345.78846153846155" y="680.7115384615385" type="line" smooth="yes"/>
      <point x="345.78846153846155" y="692.7115384615385"/>
      <point x="327.1923076923077" y="702.5769230769231"/>
      <point x="311.90384615384613" y="702.5769230769231" type="curve"/>
      <point x="75.0" y="653.0192307692307" type="line" smooth="yes"/>
      <point x="61.55769230769231" y="650.0192307692307"/>
      <point x="54.69230769230769" y="643.5769230769231"/>
      <point x="54.69230769230769" y="631.4230769230769" type="curve" smooth="yes"/>
      <point x="54.69230769230769" y="610.5384615384615"/>
      <point x="60.69230769230769" y="570.9038461538462"/>
      <point x="78.15384615384616" y="570.9038461538462" type="curve"/>
      <point x="243.32692307692307" y="598.0192307692307" type="line"/>
      <point x="243.32692307692307" y="84.98076923076923" type="line"/>
      <point x="81.15384615384616" y="84.98076923076923" type="line" smooth="yes"/>
      <point x="65.13461538461539" y="84.98076923076923"/>
      <point x="58.26923076923077" y="74.25"/>
      <point x="58.26923076923077" y="49.21153846153846" type="curve" smooth="yes"/>
      <point x="58.26923076923077" y="35.76923076923077" type="line" smooth="yes"/>
      <point x="58.26923076923077" y="10.73076923076923"/>
      <point x="65.13461538461539" y="0.0"/>
    </contour>
  </outline>
</glyph>
<glyph name="two" format="2">
  <advance width="535.0"/>
  <unicode hex="0032"/>
  <outline>
    <contour>
      <point x="68.6923076923077" y="0.0" type="curve" smooth="yes"/>
      <point x="455.3076923076923" y="0.0" type="line" smooth="yes"/>
      <point x="471.3269230769231" y="0.0"/>
      <point x="478.1923076923077" y="10.73076923076923"/>
      <point x="478.1923076923077" y="35.76923076923077" type="curve" smooth="yes"/>
      <point x="478.1923076923077" y="48.5" type="line" smooth="yes"/>
      <point x="478.1923076923077" y="73.53846153846153"/>
      <point x="471.3269230769231" y="84.26923076923077"/>
      <point x="455.3076923076923" y="84.26923076923077" type="curve" smooth="yes"/>
      <point x="183.75" y="84.26923076923077" type="line"/>
      <point x="289.9230769230769" y="214.51923076923077" type="line" smooth="yes"/>
      <point x="444.75" y="402.96153846153845"/>
      <point x="470.46153846153845" y="442.3076923076923"/>
      <point x="470.46153846153845" y="529.0769230769231" type="curve" smooth="yes"/>
      <point x="470.46153846153845" y="636.6730769230769"/>
      <point x="389.90384615384613" y="706.5769230769231"/>
      <point x="256.0192307692308" y="706.5769230769231" type="curve" smooth="yes"/>
      <point x="185.5" y="706.5769230769231"/>
      <point x="70.53846153846153" y="675.0"/>
      <point x="70.53846153846153" y="628.0961538461538" type="curve" smooth="yes"/>
      <point x="70.53846153846153" y="609.9230769230769"/>
      <point x="93.6923076923077" y="572.6153846153846"/>
      <point x="109.75" y="572.6153846153846" type="curve" smooth="yes"/>
      <point x="127.03846153846153" y="572.6153846153846"/>
      <point x="167.01923076923077" y="621.3076923076923"/>
      <point x="250.23076923076923" y="621.3076923076923" type="curve" smooth="yes"/>
      <point x="320.3076923076923" y="621.3076923076923"/>
      <point x="366.0" y="585.0576923076923"/>
      <point x="366.0" y="523.9423076923077" type="curve" smooth="yes"/>
      <point x="366.0" y="483.38461538461536"/>
      <point x="357.8269230769231" y="459.9230769230769"/>
      <point x="306.65384615384613" y="393.0769230769231" type="curve" smooth="yes"/>
      <point x="50.09615384615385" y="73.11538461538461" type="line"/>
      <point x="47.38461538461539" y="70.11538461538461"/>
      <point x="46.38461538461539" y="63.69230769230769"/>
      <point x="46.38461538461539" y="56.69230769230769" type="curve" smooth="yes"/>
      <point x="46.38461538461539" y="34.80769230769231"/>
      <point x="55.82692307692308" y="0.0"/>
    </contour>
  </outline>
</glyph>
<glyph name="three" format="2">
  <advance width="535.0"/>
  <unicode hex="0033"/>
  <outline>
    <contour>
      <point x="248.01923076923077" y="-6.576923076923077" type="curve" smooth="yes"/>
      <point x="356.8269230769231" y="-6.576923076923077"/>
      <point x="471.88461538461536" y="55.34615384615385"/>
      <point x="471.88461538461536" y="203.28846153846155" type="curve" smooth="yes"/>
      <point x="471.88461538461536" y="301.65384615384613"/>
      <point x="414.25" y="365.8076923076923"/>
      <point x="348.7692307692308" y="385.84615384615387" type="curve"/>
      <point x="348.7692307692308" y="389.84615384615387" type="line"/>
      <point x="402.9230769230769" y="411.71153846153845"/>
      <point x="448.88461538461536" y="460.4423076923077"/>
      <point x="448.88461538461536" y="530.1538461538462" type="curve" smooth="yes"/>
      <point x="448.88461538461536" y="645.6923076923077"/>
      <point x="366.75" y="706.5769230769231"/>
      <point x="246.01923076923077" y="706.5769230769231" type="curve" smooth="yes"/>
      <point x="174.05769230769232" y="706.5769230769231"/>
      <point x="62.69230769230769" y="683.5769230769231"/>
      <point x="62.69230769230769" y="647.8076923076923" type="curve" smooth="yes"/>
      <point x="62.69230769230769" y="629.3461538461538"/>
      <point x="87.0" y="588.8846153846154"/>
      <point x="100.59615384615384" y="588.8846153846154" type="curve" smooth="yes"/>
      <point x="117.88461538461539" y="588.8846153846154"/>
      <point x="150.42307692307693" y="621.3076923076923"/>
      <point x="237.09615384615384" y="621.3076923076923" type="curve" smooth="yes"/>
      <point x="321.6923076923077" y="621.3076923076923"/>
      <point x="345.13461538461536" y="570.8076923076923"/>
      <point x="345.13461538461536" y="529.6346153846154" type="curve" smooth="yes"/>
      <point x="345.13461538461536" y="481.0576923076923"/>
      <point x="312.8269230769231" y="412.4807692307692"/>
      <point x="220.78846153846155" y="412.4807692307692" type="curve" smooth="yes"/>
      <point x="194.67307692307693" y="412.4807692307692" type="line" smooth="yes"/>
      <point x="178.65384615384616" y="412.4807692307692"/>
      <point x="171.78846153846155" y="401.75"/>
      <point x="171.78846153846155" y="376.71153846153845" type="curve" smooth="yes"/>
      <point x="171.78846153846155" y="363.6923076923077" type="line" smooth="yes"/>
      <point x="171.78846153846155" y="338.65384615384613"/>
      <point x="178.65384615384616" y="327.9230769230769"/>
      <point x="194.67307692307693" y="327.9230769230769" type="curve" smooth="yes"/>
      <point x="226.23076923076923" y="327.9230769230769" type="line" smooth="yes"/>
      <point x="314.5" y="327.9230769230769"/>
      <point x="366.71153846153845" y="296.1923076923077"/>
      <point x="366.71153846153845" y="204.57692307692307" type="curve" smooth="yes"/>
      <point x="366.71153846153845" y="109.13461538461539"/>
      <point x="295.40384615384613" y="78.40384615384616"/>
      <point x="235.69230769230768" y="78.40384615384616" type="curve" smooth="yes"/>
      <point x="149.0" y="78.40384615384616"/>
      <point x="100.15384615384616" y="115.13461538461539"/>
      <point x="81.4423076923077" y="115.13461538461539" type="curve" smooth="yes"/>
      <point x="66.98076923076923" y="115.13461538461539"/>
      <point x="42.40384615384615" y="76.63461538461539"/>
      <point x="42.40384615384615" y="57.63461538461539" type="curve" smooth="yes"/>
      <point x="42.40384615384615" y="21.96153846153846"/>
      <point x="143.1346153846154" y="-6.576923076923077"/>
    </contour>
  </outline>
</glyph>
<glyph name="four" format="2">
  <advance width="535.0"/>
  <unicode hex="0034"/>
  <outline>
    <contour>
      <point x="371.96153846153845" y="-2.0" type="curve" smooth="yes"/>
      <point x="396.40384615384613" y="-2.0" type="line" smooth="yes"/>
      <point x="423.46153846153845" y="-2.0"/>
      <point x="435.0576923076923" y="6.865384615384615"/>
      <point x="435.0576923076923" y="22.884615384615383" type="curve" smooth="yes"/>
      <point x="435.0576923076923" y="159.78846153846155" type="line"/>
      <point x="493.6923076923077" y="159.78846153846155" type="line" smooth="yes"/>
      <point x="509.71153846153845" y="159.78846153846155"/>
      <point x="516.5769230769231" y="170.51923076923077"/>
      <point x="516.5769230769231" y="195.55769230769232" type="curve" smooth="yes"/>
      <point x="516.5769230769231" y="209.0" type="line" smooth="yes"/>
      <point x="516.5769230769231" y="234.03846153846155"/>
      <point x="509.71153846153845" y="244.76923076923077"/>
      <point x="493.6923076923077" y="244.76923076923077" type="curve" smooth="yes"/>
      <point x="435.0576923076923" y="244.76923076923077" type="line"/>
      <point x="435.0576923076923" y="677.1153846153846" type="line" smooth="yes"/>
      <point x="435.0576923076923" y="693.1346153846154"/>
      <point x="423.46153846153845" y="702.0"/>
      <point x="396.40384615384613" y="702.0" type="curve" smooth="yes"/>
      <point x="377.2307692307692" y="702.0" type="line" smooth="yes"/>
      <point x="358.90384615384613" y="702.0"/>
      <point x="343.88461538461536" y="697.8653846153846"/>
      <point x="335.4423076923077" y="686.5576923076923" type="curve" smooth="yes"/>
      <point x="15.673076923076923" y="233.90384615384616" type="line" smooth="yes"/>
      <point x="13.961538461538462" y="231.90384615384616"/>
      <point x="13.673076923076923" y="227.90384615384616"/>
      <point x="13.673076923076923" y="222.90384615384616" type="curve" smooth="yes"/>
      <point x="13.673076923076923" y="201.59615384615384"/>
      <point x="28.692307692307693" y="159.78846153846155"/>
      <point x="41.42307692307692" y="159.78846153846155" type="curve"/>
      <point x="333.3076923076923" y="159.78846153846155" type="line"/>
      <point x="333.3076923076923" y="22.884615384615383" type="line" smooth="yes"/>
      <point x="333.3076923076923" y="6.865384615384615"/>
      <point x="344.90384615384613" y="-2.0"/>
    </contour>
    <contour>
      <point x="127.09615384615384" y="244.76923076923077" type="line"/>
      <point x="336.03846153846155" y="548.9807692307693" type="line"/>
      <point x="340.03846153846155" y="547.2692307692307" type="line"/>
      <point x="335.46153846153845" y="525.9807692307693"/>
      <point x="333.3076923076923" y="490.96153846153845"/>
      <point x="333.3076923076923" y="465.65384615384613" type="curve" smooth="yes"/>
      <point x="333.3076923076923" y="244.76923076923077" type="line"/>
    </contour>
  </outline>
</glyph>
<glyph name="five" format="2">
  <advance width="535.0"/>
  <unicode hex="0035"/>
  <outline>
    <contour>
      <point x="234.0" y="-6.576923076923077" type="curve" smooth="yes"/>
      <point x="349.3076923076923" y="-6.576923076923077"/>
      <point x="478.61538461538464" y="41.30769230769231"/>
      <point x="478.61538461538464" y="213.8653846153846" type="curve" smooth="yes"/>
      <point x="478.61538461538464" y="378.75"/>
      <point x="354.4230769230769" y="427.1923076923077"/>
      <point x="234.01923076923077" y="427.1923076923077" type="curve" smooth="yes"/>
      <point x="189.51923076923077" y="427.1923076923077" type="line"/>
      <point x="201.65384615384616" y="615.0192307692307" type="line"/>
      <point x="414.3269230769231" y="615.0192307692307" type="line" smooth="yes"/>
      <point x="430.34615384615387" y="615.0192307692307"/>
      <point x="437.21153846153845" y="624.8846153846154"/>
      <point x="437.21153846153845" y="647.9038461538462" type="curve" smooth="yes"/>
      <point x="437.21153846153845" y="664.2307692307693" type="line" smooth="yes"/>
      <point x="437.21153846153845" y="689.2692307692307"/>
      <point x="430.34615384615387" y="700.0"/>
      <point x="414.3269230769231" y="700.0" type="curve" smooth="yes"/>
      <point x="139.96153846153845" y="700.0" type="line" smooth="yes"/>
      <point x="116.65384615384616" y="700.0"/>
      <point x="106.36538461538461" y="690.1346153846154"/>
      <point x="105.07692307692308" y="667.1153846153846" type="curve" smooth="yes"/>
      <point x="87.5" y="375.09615384615387" type="line"/>
      <point x="87.5" y="352.0769230769231"/>
      <point x="94.07692307692308" y="342.21153846153845"/>
      <point x="118.09615384615384" y="342.21153846153845" type="curve" smooth="yes"/>
      <point x="210.01923076923077" y="342.21153846153845" type="line" smooth="yes"/>
      <point x="319.8076923076923" y="342.21153846153845"/>
      <point x="374.15384615384613" y="296.2307692307692"/>
      <point x="374.15384615384613" y="212.71153846153845" type="curve" smooth="yes"/>
      <point x="374.15384615384613" y="123.51923076923077"/>
      <point x="309.38461538461536" y="78.40384615384616"/>
      <point x="233.0" y="78.40384615384616" type="curve" smooth="yes"/>
      <point x="148.01923076923077" y="78.40384615384616"/>
      <point x="101.57692307692308" y="115.25"/>
      <point x="84.88461538461539" y="115.25" type="curve" smooth="yes"/>
      <point x="70.42307692307692" y="115.25"/>
      <point x="44.40384615384615" y="75.59615384615384"/>
      <point x="44.40384615384615" y="56.88461538461539" type="curve" smooth="yes"/>
      <point x="44.40384615384615" y="27.557692307692307"/>
      <point x="122.42307692307692" y="-6.576923076923077"/>
    </contour>
  </outline>
</glyph>
<glyph name="six" format="2">
  <advance width="535.0"/>
  <unicode hex="0036"/>
  <outline>
    <contour>
      <point x="265.4423076923077" y="-5.865384615384615" type="curve" smooth="yes"/>
      <point x="384.13461538461536" y="-5.865384615384615"/>
      <point x="486.9230769230769" y="69.65384615384616"/>
      <point x="486.9230769230769" y="206.75" type="curve" smooth="yes"/>
      <point x="486.9230769230769" y="341.0"/>
      <point x="390.96153846153845" y="411.63461538461536"/>
      <point x="294.1923076923077" y="411.63461538461536" type="curve" smooth="yes"/>
      <point x="242.42307692307693" y="411.63461538461536"/>
      <point x="202.59615384615384" y="399.8076923076923"/>
      <point x="169.28846153846155" y="380.9423076923077" type="curve"/>
      <point x="201.57692307692307" y="489.1923076923077"/>
      <point x="282.88461538461536" y="578.8269230769231"/>
      <point x="407.63461538461536" y="627.0384615384615" type="curve" smooth="yes"/>
      <point x="415.78846153846155" y="630.0384615384615"/>
      <point x="417.0769230769231" y="634.75"/>
      <point x="417.0769230769231" y="640.9230769230769" type="curve" smooth="yes"/>
      <point x="417.0769230769231" y="655.2307692307693"/>
      <point x="403.9230769230769" y="702.5769230769231"/>
      <point x="379.1730769230769" y="702.5769230769231" type="curve" smooth="yes"/>
      <point x="327.46153846153845" y="702.5769230769231"/>
      <point x="45.80769230769231" y="565.1346153846154"/>
      <point x="45.80769230769231" y="248.73076923076923" type="curve" smooth="yes"/>
      <point x="45.80769230769231" y="79.92307692307692"/>
      <point x="131.80769230769232" y="-5.865384615384615"/>
    </contour>
    <contour>
      <point x="269.28846153846155" y="79.11538461538461" type="curve" smooth="yes"/>
      <point x="210.90384615384616" y="79.11538461538461"/>
      <point x="149.1346153846154" y="111.40384615384616"/>
      <point x="149.1346153846154" y="239.57692307692307" type="curve" smooth="yes"/>
      <point x="149.1346153846154" y="257.71153846153845"/>
      <point x="150.55769230769232" y="276.9807692307692"/>
      <point x="152.26923076923077" y="295.53846153846155" type="curve"/>
      <point x="179.40384615384616" y="310.96153846153845"/>
      <point x="218.5" y="326.65384615384613"/>
      <point x="264.0" y="326.65384615384613" type="curve" smooth="yes"/>
      <point x="327.6923076923077" y="326.65384615384613"/>
      <point x="383.46153846153845" y="290.0769230769231"/>
      <point x="383.46153846153845" y="202.75" type="curve" smooth="yes"/>
      <point x="383.46153846153845" y="119.6923076923077"/>
      <point x="321.2692307692308" y="79.11538461538461"/>
    </contour>
  </outline>
</glyph>
<glyph name="seven" format="2">
  <advance width="535.0"/>
  <unicode hex="0037"/>
  <outline>
    <contour>
      <point x="141.15384615384616" y="-2.0" type="curve" smooth="yes"/>
      <point x="160.3653846153846" y="-2.0" type="line" smooth="yes"/>
      <point x="182.96153846153845" y="-2.0"/>
      <point x="199.98076923076923" y="3.4230769230769234"/>
      <point x="205.55769230769232" y="15.153846153846153" type="curve" smooth="yes"/>
      <point x="492.03846153846155" y="626.1730769230769" type="line" smooth="yes"/>
      <point x="493.03846153846155" y="629.1730769230769"/>
      <point x="494.03846153846155" y="633.4615384615385"/>
      <point x="494.03846153846155" y="637.75" type="curve" smooth="yes"/>
      <point x="494.03846153846155" y="660.9230769230769"/>
      <point x="480.0192307692308" y="700.0"/>
      <point x="471.15384615384613" y="700.0" type="curve" smooth="yes"/>
      <point x="75.86538461538461" y="700.0" type="line" smooth="yes"/>
      <point x="59.84615384615385" y="700.0"/>
      <point x="52.98076923076923" y="689.2692307692307"/>
      <point x="52.98076923076923" y="664.2307692307693" type="curve" smooth="yes"/>
      <point x="52.98076923076923" y="650.7884615384615" type="line" smooth="yes"/>
      <point x="52.98076923076923" y="625.75"/>
      <point x="59.84615384615385" y="615.0192307692307"/>
      <point x="75.86538461538461" y="615.0192307692307" type="curve" smooth="yes"/>
      <point x="375.28846153846155" y="615.0192307692307" type="line"/>
      <point x="98.11538461538461" y="30.307692307692307" type="line" smooth="yes"/>
      <point x="95.53846153846153" y="24.442307692307693"/>
      <point x="93.53846153846153" y="19.865384615384617"/>
      <point x="93.53846153846153" y="16.28846153846154" type="curve" smooth="yes"/>
      <point x="93.53846153846153" y="2.8653846153846154"/>
      <point x="108.98076923076923" y="-2.0"/>
    </contour>
  </outline>
</glyph>
<glyph name="eight" format="2">
  <advance width="535.0"/>
  <unicode hex="0038"/>
  <outline>
    <contour>
      <point x="268.15384615384613" y="-6.576923076923077" type="curve" smooth="yes"/>
      <point x="402.86538461538464" y="-6.576923076923077"/>
      <point x="490.34615384615387" y="70.82692307692308"/>
      <point x="490.34615384615387" y="199.1153846153846" type="curve" smooth="yes"/>
      <point x="490.34615384615387" y="308.40384615384613"/>
      <point x="437.36538461538464" y="353.4423076923077"/>
      <point x="373.2307692307692" y="382.15384615384613" type="curve"/>
      <point x="426.0769230769231" y="407.7307692307692"/>
      <point x="467.34615384615387" y="450.71153846153845"/>
      <point x="467.34615384615387" y="533.2884615384615" type="curve" smooth="yes"/>
      <point x="467.34615384615387" y="641.5192307692307"/>
      <point x="383.2307692307692" y="706.5769230769231"/>
      <point x="271.0192307692308" y="706.5769230769231" type="curve" smooth="yes"/>
      <point x="153.32692307692307" y="706.5769230769231"/>
      <point x="72.36538461538461" y="638.3461538461538"/>
      <point x="72.36538461538461" y="528.9615384615385" type="curve" smooth="yes"/>
      <point x="72.36538461538461" y="453.8269230769231"/>
      <point x="106.92307692307692" y="406.84615384615387"/>
      <point x="152.76923076923077" y="378.5576923076923" type="curve"/>
      <point x="93.5" y="351.86538461538464"/>
      <point x="44.65384615384615" y="304.25"/>
      <point x="44.65384615384615" y="201.71153846153845" type="curve" smooth="yes"/>
      <point x="44.65384615384615" y="67.9423076923077"/>
      <point x="133.44230769230768" y="-6.576923076923077"/>
    </contour>
    <contour>
      <point x="267.5769230769231" y="78.40384615384616" type="curve" smooth="yes"/>
      <point x="200.32692307692307" y="78.40384615384616"/>
      <point x="148.82692307692307" y="122.25"/>
      <point x="148.82692307692307" y="204.30769230769232" type="curve" smooth="yes"/>
      <point x="148.82692307692307" y="275.53846153846155"/>
      <point x="184.05769230769232" y="314.5192307692308"/>
      <point x="230.15384615384616" y="343.0769230769231" type="curve"/>
      <point x="306.53846153846155" y="314.09615384615387"/>
      <point x="385.88461538461536" y="296.0769230769231"/>
      <point x="385.88461538461536" y="201.42307692307693" type="curve" smooth="yes"/>
      <point x="385.88461538461536" y="124.5576923076923"/>
      <point x="334.8269230769231" y="78.40384615384616"/>
    </contour>
    <contour>
      <point x="289.2692307692308" y="414.9230769230769" type="curve"/>
      <point x="227.32692307692307" y="436.7692307692308"/>
      <point x="174.25" y="458.7692307692308"/>
      <point x="174.25" y="530.4038461538462" type="curve" smooth="yes"/>
      <point x="174.25" y="593.6153846153846"/>
      <point x="217.21153846153845" y="621.5961538461538"/>
      <point x="269.5769230769231" y="621.5961538461538" type="curve" smooth="yes"/>
      <point x="321.9423076923077" y="621.5961538461538"/>
      <point x="366.03846153846155" y="593.0384615384615"/>
      <point x="366.03846153846155" y="530.4038461538462" type="curve" smooth="yes"/>
      <point x="366.03846153846155" y="478.03846153846155"/>
      <point x="333.8076923076923" y="441.7692307692308"/>
    </contour>
  </outline>
</glyph>
<glyph name="nine" format="2">
  <advance width="535.0"/>
  <unicode hex="0039"/>
  <outline>
    <contour>
      <point x="155.53846153846155" y="-2.8653846153846154" type="curve" smooth="yes"/>
      <point x="207.25" y="-2.8653846153846154"/>
      <point x="488.90384615384613" y="134.5769230769231"/>
      <point x="488.90384615384613" y="450.9807692307692" type="curve" smooth="yes"/>
      <point x="488.90384615384613" y="619.7884615384615"/>
      <point x="402.90384615384613" y="705.5769230769231"/>
      <point x="269.2692307692308" y="705.5769230769231" type="curve" smooth="yes"/>
      <point x="150.57692307692307" y="705.5769230769231"/>
      <point x="47.78846153846154" y="630.0576923076923"/>
      <point x="47.78846153846154" y="492.96153846153845" type="curve" smooth="yes"/>
      <point x="47.78846153846154" y="358.71153846153845"/>
      <point x="143.75" y="288.0769230769231"/>
      <point x="240.51923076923077" y="288.0769230769231" type="curve" smooth="yes"/>
      <point x="292.28846153846155" y="288.0769230769231"/>
      <point x="332.11538461538464" y="299.90384615384613"/>
      <point x="365.4230769230769" y="318.7692307692308" type="curve"/>
      <point x="333.13461538461536" y="210.51923076923077"/>
      <point x="252.1153846153846" y="120.3076923076923"/>
      <point x="127.07692307692308" y="72.67307692307692" type="curve" smooth="yes"/>
      <point x="118.92307692307692" y="69.67307692307692"/>
      <point x="117.63461538461539" y="64.96153846153845"/>
      <point x="117.63461538461539" y="58.78846153846154" type="curve" smooth="yes"/>
      <point x="117.63461538461539" y="44.480769230769226"/>
      <point x="130.78846153846155" y="-2.8653846153846154"/>
    </contour>
    <contour>
      <point x="270.71153846153845" y="373.0576923076923" type="curve" smooth="yes"/>
      <point x="207.01923076923077" y="373.0576923076923"/>
      <point x="151.25" y="409.63461538461536"/>
      <point x="151.25" y="496.96153846153845" type="curve" smooth="yes"/>
      <point x="151.25" y="580.0192307692307"/>
      <point x="213.44230769230768" y="620.5961538461538"/>
      <point x="265.4230769230769" y="620.5961538461538" type="curve" smooth="yes"/>
      <point x="323.8076923076923" y="620.5961538461538"/>
      <point x="385.5769230769231" y="588.3076923076923"/>
      <point x="385.5769230769231" y="460.13461538461536" type="curve" smooth="yes"/>
      <point x="385.5769230769231" y="442.0"/>
      <point x="384.15384615384613" y="422.7307692307692"/>
      <point x="382.4423076923077" y="404.1730769230769" type="curve"/>
      <point x="355.3076923076923" y="388.75"/>
      <point x="316.21153846153845" y="373.0576923076923"/>
    </contour>
  </outline>
</glyph>
<glyph name="colon" format="2">
  <advance width="198.0"/>
  <unicode hex="003A"/>
  <outline>
    <contour>
      <point x="88.6923076923077" y="401.7307692307692" type="curve" smooth="yes"/>
      <point x="110.01923076923077" y="401.7307692307692" type="line" smooth="yes"/>
      <point x="142.05769230769232" y="401.7307692307692"/>
      <point x="155.78846153846155" y="410.59615384615387"/>
      <point x="155.78846153846155" y="426.61538461538464" type="curve" smooth="yes"/>
      <point x="155.78846153846155" y="500.11538461538464" type="line" smooth="yes"/>
      <point x="155.78846153846155" y="516.1346153846154"/>
      <point x="142.05769230769232" y="525.0"/>
      <point x="110.01923076923077" y="525.0" type="curve" smooth="yes"/>
      <point x="88.6923076923077" y="525.0" type="line" smooth="yes"/>
      <point x="56.65384615384615" y="525.0"/>
      <point x="42.92307692307692" y="516.1346153846154"/>
      <point x="42.92307692307692" y="500.11538461538464" type="curve" smooth="yes"/>
      <point x="42.92307692307692" y="426.61538461538464" type="line" smooth="yes"/>
      <point x="42.92307692307692" y="410.59615384615387"/>
      <point x="56.65384615384615" y="401.7307692307692"/>
    </contour>
    <contour>
      <point x="88.6923076923077" y="-2.0" type="curve" smooth="yes"/>
      <point x="110.01923076923077" y="-2.0" type="line" smooth="yes"/>
      <point x="142.05769230769232" y="-2.0"/>
      <point x="155.78846153846155" y="6.865384615384615"/>
      <point x="155.78846153846155" y="22.884615384615383" type="curve" smooth="yes"/>
      <point x="155.78846153846155" y="96.38461538461539" type="line" smooth="yes"/>
      <point x="155.78846153846155" y="112.40384615384616"/>
      <point x="142.05769230769232" y="121.26923076923077"/>
      <point x="110.01923076923077" y="121.26923076923077" type="curve" smooth="yes"/>
      <point x="88.6923076923077" y="121.26923076923077" type="line" smooth="yes"/>
      <point x="56.65384615384615" y="121.26923076923077"/>
      <point x="42.92307692307692" y="112.40384615384616"/>
      <point x="42.92307692307692" y="96.38461538461539" type="curve" smooth="yes"/>
      <point x="42.92307692307692" y="22.884615384615383" type="line" smooth="yes"/>
      <point x="42.92307692307692" y="6.865384615384615"/>
      <point x="56.65384615384615" y="-2.0"/>
    </contour>
  </outline>
</glyph>
<glyph name="semicolon" format="2">
  <advance width="198.0"/>
  <unicode hex="003B"/>
  <outline>
    <contour>
      <point x="88.6923076923077" y="401.7307692307692" type="curve" smooth="yes"/>
      <point x="110.01923076923077" y="401.7307692307692" type="line" smooth="yes"/>
      <point x="142.05769230769232" y="401.7307692307692"/>
      <point x="155.78846153846155" y="410.59615384615387"/>
      <point x="155.78846153846155" y="426.61538461538464" type="curve" smooth="yes"/>
      <point x="155.78846153846155" y="500.11538461538464" type="line" smooth="yes"/>
      <point x="155.78846153846155" y="516.1346153846154"/>
      <point x="142.05769230769232" y="525.0"/>
      <point x="110.01923076923077" y="525.0" type="curve" smooth="yes"/>
      <point x="88.6923076923077" y="525.0" type="line" smooth="yes"/>
      <point x="56.65384615384615" y="525.0"/>
      <point x="42.92307692307692" y="516.1346153846154"/>
      <point x="42.92307692307692" y="500.11538461538464" type="curve" smooth="yes"/>
      <point x="42.92307692307692" y="426.61538461538464" type="line" smooth="yes"/>
      <point x="42.92307692307692" y="410.59615384615387"/>
      <point x="56.65384615384615" y="401.7307692307692"/>
    </contour>
    <component base="comma"/>
  </outline>
</glyph>
<glyph name="less" format="2">
  <advance width="560.0"/>
  <unicode hex="003C"/>
  <outline>
    <contour>
      <point x="497.59615384615387" y="7.153846153846153" type="curve" smooth="yes"/>
      <point x="492.88461538461536" y="7.153846153846153"/>
      <point x="487.88461538461536" y="8.153846153846153"/>
      <point x="482.59615384615387" y="10.442307692307692" type="curve" smooth="yes"/>
      <point x="69.0" y="186.17307692307693" type="line" smooth="yes"/>
      <point x="51.84615384615385" y="193.75"/>
      <point x="44.55769230769231" y="204.75"/>
      <point x="44.55769230769231" y="223.19230769230768" type="curve" smooth="yes"/>
      <point x="44.55769230769231" y="240.76923076923077" type="line" smooth="yes"/>
      <point x="44.55769230769231" y="258.9230769230769"/>
      <point x="51.84615384615385" y="270.21153846153845"/>
      <point x="69.0" y="277.78846153846155" type="curve" smooth="yes"/>
      <point x="482.3076923076923" y="453.2307692307692" type="line" smooth="yes"/>
      <point x="487.59615384615387" y="455.5192307692308"/>
      <point x="492.59615384615387" y="456.2307692307692"/>
      <point x="497.3076923076923" y="456.2307692307692" type="curve" smooth="yes"/>
      <point x="508.4423076923077" y="456.2307692307692"/>
      <point x="515.8653846153846" y="446.36538461538464"/>
      <point x="515.8653846153846" y="425.90384615384613" type="curve" smooth="yes"/>
      <point x="515.8653846153846" y="411.3269230769231" type="line" smooth="yes"/>
      <point x="515.8653846153846" y="390.28846153846155"/>
      <point x="508.5769230769231" y="376.40384615384613"/>
      <point x="490.84615384615387" y="368.8269230769231" type="curve" smooth="yes"/>
      <point x="153.30769230769232" y="232.19230769230768" type="line"/>
      <point x="491.13461538461536" y="94.84615384615384" type="line" smooth="yes"/>
      <point x="508.86538461538464" y="87.26923076923077"/>
      <point x="516.1538461538462" y="73.38461538461539"/>
      <point x="516.1538461538462" y="52.34615384615385" type="curve" smooth="yes"/>
      <point x="516.1538461538462" y="37.76923076923077" type="line" smooth="yes"/>
      <point x="516.1538461538462" y="17.307692307692307"/>
      <point x="508.7307692307692" y="7.153846153846153"/>
    </contour>
  </outline>
</glyph>
<glyph name="equal" format="2">
  <advance width="560.0"/>
  <unicode hex="003D"/>
  <outline>
    <contour>
      <point x="70.0" y="267.71153846153845" type="curve" smooth="yes"/>
      <point x="490.0" y="267.71153846153845" type="line" smooth="yes"/>
      <point x="506.0192307692308" y="267.71153846153845"/>
      <point x="512.8846153846154" y="278.4423076923077"/>
      <point x="512.8846153846154" y="303.4807692307692" type="curve" smooth="yes"/>
      <point x="512.8846153846154" y="314.75" type="line" smooth="yes"/>
      <point x="512.8846153846154" y="339.78846153846155"/>
      <point x="506.0192307692308" y="350.5192307692308"/>
      <point x="490.0" y="350.5192307692308" type="curve" smooth="yes"/>
      <point x="70.0" y="350.5192307692308" type="line" smooth="yes"/>
      <point x="53.98076923076923" y="350.5192307692308"/>
      <point x="47.11538461538461" y="339.78846153846155"/>
      <point x="47.11538461538461" y="314.75" type="curve" smooth="yes"/>
      <point x="47.11538461538461" y="303.4807692307692" type="line" smooth="yes"/>
      <point x="47.11538461538461" y="278.4423076923077"/>
      <point x="53.98076923076923" y="267.71153846153845"/>
    </contour>
    <contour>
      <point x="70.0" y="99.09615384615384" type="curve" smooth="yes"/>
      <point x="490.0" y="99.09615384615384" type="line" smooth="yes"/>
      <point x="506.0192307692308" y="99.09615384615384"/>
      <point x="512.8846153846154" y="109.82692307692308"/>
      <point x="512.8846153846154" y="134.8653846153846" type="curve" smooth="yes"/>
      <point x="512.8846153846154" y="146.1346153846154" type="line" smooth="yes"/>
      <point x="512.8846153846154" y="171.17307692307693"/>
      <point x="506.0192307692308" y="181.90384615384616"/>
      <point x="490.0" y="181.90384615384616" type="curve" smooth="yes"/>
      <point x="70.0" y="181.90384615384616" type="line" smooth="yes"/>
      <point x="53.98076923076923" y="181.90384615384616"/>
      <point x="47.11538461538461" y="171.17307692307693"/>
      <point x="47.11538461538461" y="146.1346153846154" type="curve" smooth="yes"/>
      <point x="47.11538461538461" y="134.8653846153846" type="line" smooth="yes"/>
      <point x="47.11538461538461" y="109.82692307692308"/>
      <point x="53.98076923076923" y="99.09615384615384"/>
    </contour>
  </outline>
</glyph>
<glyph name="greater" format="2">
  <advance width="560.0"/>
  <unicode hex="003E"/>
  <outline>
    <contour>
      <point x="62.82692307692308" y="7.153846153846153" type="curve" smooth="yes"/>
      <point x="67.53846153846153" y="7.153846153846153"/>
      <point x="72.53846153846153" y="8.153846153846153"/>
      <point x="77.82692307692308" y="10.442307692307692" type="curve" smooth="yes"/>
      <point x="491.4230769230769" y="186.17307692307693" type="line" smooth="yes"/>
      <point x="508.5769230769231" y="193.75"/>
      <point x="515.8653846153846" y="204.75"/>
      <point x="515.8653846153846" y="223.19230769230768" type="curve" smooth="yes"/>
      <point x="515.8653846153846" y="240.76923076923077" type="line" smooth="yes"/>
      <point x="515.8653846153846" y="258.9230769230769"/>
      <point x="508.5769230769231" y="270.21153846153845"/>
      <point x="491.4230769230769" y="277.78846153846155" type="curve" smooth="yes"/>
      <point x="78.11538461538461" y="453.2307692307692" type="line" smooth="yes"/>
      <point x="72.82692307692308" y="455.5192307692308"/>
      <point x="67.82692307692308" y="456.2307692307692"/>
      <point x="63.11538461538461" y="456.2307692307692" type="curve" smooth="yes"/>
      <point x="51.98076923076923" y="456.2307692307692"/>
      <point x="44.55769230769231" y="446.36538461538464"/>
      <point x="44.55769230769231" y="425.90384615384613" type="curve" smooth="yes"/>
      <point x="44.55769230769231" y="411.3269230769231" type="line" smooth="yes"/>
      <point x="44.55769230769231" y="390.28846153846155"/>
      <point x="51.84615384615385" y="376.40384615384613"/>
      <point x="69.57692307692308" y="368.8269230769231" type="curve" smooth="yes"/>
      <point x="407.11538461538464" y="232.19230769230768" type="line"/>
      <point x="69.28846153846153" y="94.84615384615384" type="line" smooth="yes"/>
      <point x="51.55769230769231" y="87.26923076923077"/>
      <point x="44.26923076923077" y="73.38461538461539"/>
      <point x="44.26923076923077" y="52.34615384615385" type="curve" smooth="yes"/>
      <point x="44.26923076923077" y="37.76923076923077" type="line" smooth="yes"/>
      <point x="44.26923076923077" y="17.307692307692307"/>
      <point x="51.69230769230769" y="7.153846153846153"/>
    </contour>
  </outline>
</glyph>
<glyph name="question" format="2">
  <advance width="445.0"/>
  <unicode hex="003F"/>
  <outline>
    <contour>
      <point x="169.84615384615384" y="207.76923076923077" type="curve" smooth="yes"/>
      <point x="187.15384615384616" y="207.76923076923077" type="line" smooth="yes"/>
      <point x="213.75" y="207.76923076923077"/>
      <point x="223.34615384615384" y="214.48076923076923"/>
      <point x="225.92307692307693" y="229.78846153846155" type="curve" smooth="yes"/>
      <point x="234.92307692307693" y="283.3269230769231"/>
      <point x="280.4807692307692" y="324.28846153846155"/>
      <point x="325.75" y="367.6923076923077" type="curve" smooth="yes"/>
      <point x="373.88461538461536" y="413.6730769230769"/>
      <point x="420.46153846153845" y="463.2307692307692"/>
      <point x="420.46153846153845" y="535.6923076923077" type="curve" smooth="yes"/>
      <point x="420.46153846153845" y="631.4615384615385"/>
      <point x="345.28846153846155" y="706.5769230769231"/>
      <point x="212.0" y="706.5769230769231" type="curve" smooth="yes"/>
      <point x="137.55769230769232" y="706.5769230769231"/>
      <point x="35.38461538461539" y="683.8653846153846"/>
      <point x="35.38461538461539" y="642.6538461538462" type="curve" smooth="yes"/>
      <point x="35.38461538461539" y="626.6346153846154"/>
      <point x="61.13461538461539" y="582.7115384615385"/>
      <point x="76.32692307692308" y="582.7115384615385" type="curve" smooth="yes"/>
      <point x="91.03846153846153" y="582.7115384615385"/>
      <point x="135.30769230769232" y="615.8461538461538"/>
      <point x="196.8653846153846" y="615.8461538461538" type="curve" smooth="yes"/>
      <point x="270.63461538461536" y="615.8461538461538"/>
      <point x="307.86538461538464" y="585.5961538461538"/>
      <point x="307.86538461538464" y="525.6923076923077" type="curve" smooth="yes"/>
      <point x="307.86538461538464" y="480.59615384615387"/>
      <point x="263.5769230769231" y="438.75"/>
      <point x="215.17307692307693" y="388.3269230769231" type="curve" smooth="yes"/>
      <point x="165.94230769230768" y="337.36538461538464"/>
      <point x="134.3653846153846" y="281.25"/>
      <point x="134.3653846153846" y="232.5" type="curve" smooth="yes"/>
      <point x="134.3653846153846" y="216.48076923076923"/>
      <point x="144.80769230769232" y="207.76923076923077"/>
    </contour>
    <contour>
      <point x="166.26923076923077" y="-2.0" type="curve" smooth="yes"/>
      <point x="187.59615384615384" y="-2.0" type="line" smooth="yes"/>
      <point x="219.6346153846154" y="-2.0"/>
      <point x="233.3653846153846" y="6.865384615384615"/>
      <point x="233.3653846153846" y="22.884615384615383" type="curve" smooth="yes"/>
      <point x="233.3653846153846" y="96.38461538461539" type="line" smooth="yes"/>
      <point x="233.3653846153846" y="112.40384615384616"/>
      <point x="219.6346153846154" y="121.26923076923077"/>
      <point x="187.59615384615384" y="121.26923076923077" type="curve" smooth="yes"/>
      <point x="166.26923076923077" y="121.26923076923077" type="line" smooth="yes"/>
      <point x="134.23076923076923" y="121.26923076923077"/>
      <point x="120.5" y="112.40384615384616"/>
      <point x="120.5" y="96.38461538461539" type="curve" smooth="yes"/>
      <point x="120.5" y="22.884615384615383" type="line" smooth="yes"/>
      <point x="120.5" y="6.865384615384615"/>
      <point x="134.23076923076923" y="-2.0"/>
    </contour>
  </outline>
</glyph>
<glyph name="at" format="2">
  <advance width="974.0"/>
  <unicode hex="0040"/>
  <outline>
    <contour>
      <point x="421.4230769230769" y="-125.13461538461539" type="curve" smooth="yes"/>
      <point x="472.4230769230769" y="-125.13461538461539"/>
      <point x="589.4230769230769" y="-114.13461538461539"/>
      <point x="589.4230769230769" y="-75.13461538461539" type="curve" smooth="yes"/>
      <point x="589.4230769230769" y="-57.11538461538461"/>
      <point x="584.4230769230769" y="-49.25"/>
      <point x="575.4230769230769" y="-49.25" type="curve" smooth="yes"/>
      <point x="551.4230769230769" y="-49.25"/>
      <point x="518.4230769230769" y="-78.25"/>
      <point x="421.4230769230769" y="-78.25" type="curve" smooth="yes"/>
      <point x="261.15384615384613" y="-78.25"/>
      <point x="152.30769230769232" y="49.59615384615385"/>
      <point x="152.30769230769232" y="237.8653846153846" type="curve" smooth="yes"/>
      <point x="152.30769230769232" y="474.13461538461536"/>
      <point x="325.15384615384613" y="658.9807692307693"/>
      <point x="545.4230769230769" y="658.9807692307693" type="curve" smooth="yes"/>
      <point x="710.6923076923077" y="658.9807692307693"/>
      <point x="821.5384615384615" y="548.1346153846154"/>
      <point x="821.5384615384615" y="380.86538461538464" type="curve" smooth="yes"/>
      <point x="821.5384615384615" y="239.90384615384616"/>
      <point x="755.4230769230769" y="116.8076923076923"/>
      <point x="682.5769230769231" y="116.8076923076923" type="curve" smooth="yes"/>
      <point x="668.5384615384615" y="116.8076923076923"/>
      <point x="644.0192307692307" y="120.26923076923077"/>
      <point x="644.0192307692307" y="157.07692307692307" type="curve" smooth="yes"/>
      <point x="644.0192307692307" y="179.34615384615384"/>
      <point x="676.4423076923077" y="478.40384615384613"/>
      <point x="676.4423076923077" y="479.84615384615387" type="curve"/>
      <point x="676.4423076923077" y="493.71153846153845"/>
      <point x="668.4230769230769" y="502.28846153846155"/>
      <point x="647.2307692307693" y="502.28846153846155" type="curve" smooth="yes"/>
      <point x="639.5" y="502.28846153846155" type="line" smooth="yes"/>
      <point x="611.0384615384615" y="502.28846153846155"/>
      <point x="609.4423076923077" y="488.15384615384613"/>
      <point x="599.5961538461538" y="459.4423076923077" type="curve"/>
      <point x="581.8846153846154" y="477.15384615384613"/>
      <point x="544.1730769230769" y="505.86538461538464"/>
      <point x="491.1923076923077" y="505.86538461538464" type="curve" smooth="yes"/>
      <point x="368.6730769230769" y="505.86538461538464"/>
      <point x="287.6923076923077" y="395.0192307692308"/>
      <point x="287.6923076923077" y="236.8653846153846" type="curve" smooth="yes"/>
      <point x="287.6923076923077" y="98.23076923076923"/>
      <point x="365.88461538461536" y="55.15384615384615"/>
      <point x="429.8076923076923" y="55.15384615384615" type="curve" smooth="yes"/>
      <point x="490.8269230769231" y="55.15384615384615"/>
      <point x="544.6730769230769" y="93.1923076923077"/>
      <point x="573.4615384615385" y="170.96153846153845" type="curve"/>
      <point x="557.3076923076923" y="180.55769230769232" type="line"/>
      <point x="557.3076923076923" y="139.30769230769232" type="line" smooth="yes"/>
      <point x="557.3076923076923" y="96.75"/>
      <point x="594.4615384615385" y="55.15384615384615"/>
      <point x="661.7884615384615" y="55.15384615384615" type="curve" smooth="yes"/>
      <point x="787.8076923076923" y="55.15384615384615"/>
      <point x="878.4230769230769" y="199.15384615384616"/>
      <point x="878.4230769230769" y="380.86538461538464" type="curve" smooth="yes"/>
      <point x="878.4230769230769" y="576.8653846153846"/>
      <point x="746.4230769230769" y="705.8653846153846"/>
      <point x="545.4230769230769" y="705.8653846153846" type="curve" smooth="yes"/>
      <point x="292.4230769230769" y="705.8653846153846"/>
      <point x="95.42307692307692" y="500.86538461538464"/>
      <point x="95.42307692307692" y="237.8653846153846" type="curve" smooth="yes"/>
      <point x="95.42307692307692" y="21.865384615384617"/>
      <point x="227.42307692307693" y="-125.13461538461539"/>
    </contour>
    <contour>
      <point x="454.75" y="127.6923076923077" type="curve" smooth="yes"/>
      <point x="409.63461538461536" y="127.6923076923077"/>
      <point x="375.6923076923077" y="157.69230769230768"/>
      <point x="375.6923076923077" y="242.73076923076923" type="curve" smooth="yes"/>
      <point x="375.6923076923077" y="345.46153846153845"/>
      <point x="405.84615384615387" y="433.4807692307692"/>
      <point x="503.8269230769231" y="433.4807692307692" type="curve" smooth="yes"/>
      <point x="541.7692307692307" y="433.4807692307692"/>
      <point x="568.7307692307693" y="416.36538461538464"/>
      <point x="584.8653846153846" y="402.65384615384613" type="curve"/>
      <point x="576.1346153846154" y="368.9807692307692"/>
      <point x="570.0" y="295.46153846153845"/>
      <point x="565.2884615384615" y="241.8653846153846" type="curve"/>
      <point x="534.7692307692307" y="156.09615384615384"/>
      <point x="489.5769230769231" y="127.6923076923077"/>
    </contour>
  </outline>
</glyph>
<glyph name="B" format="2">
  <advance width="593.0"/>
  <unicode hex="0042"/>
  <anchor x="299.0192307692308" y="0.0" name="bottom"/>
  <anchor x="299.0192307692308" y="700.0" name="top"/>
  <outline>
    <contour>
      <point x="123.82692307692308" y="0.0" type="curve" smooth="yes"/>
      <point x="307.36538461538464" y="0.0" type="line" smooth="yes"/>
      <point x="475.65384615384613" y="0.0"/>
      <point x="565.1923076923077" y="65.46153846153847"/>
      <point x="565.1923076923077" y="201.57692307692307" type="curve" smooth="yes"/>
      <point x="565.1923076923077" y="317.71153846153845"/>
      <point x="449.71153846153845" y="362.38461538461536"/>
      <point x="426.63461538461536" y="367.0" type="curve"/>
      <point x="426.34615384615387" y="371.0" type="line"/>
      <point x="484.9230769230769" y="389.59615384615387"/>
      <point x="535.7692307692307" y="455.71153846153845"/>
      <point x="535.7692307692307" y="523.0" type="curve" smooth="yes"/>
      <point x="535.7692307692307" y="628.0"/>
      <point x="463.0769230769231" y="700.0"/>
      <point x="308.3076923076923" y="700.0" type="curve" smooth="yes"/>
      <point x="123.82692307692308" y="700.0" type="line" smooth="yes"/>
      <point x="100.8076923076923" y="700.0"/>
      <point x="90.9423076923077" y="690.1346153846154"/>
      <point x="90.9423076923077" y="667.1153846153846" type="curve" smooth="yes"/>
      <point x="90.9423076923077" y="32.88461538461539" type="line" smooth="yes"/>
      <point x="90.9423076923077" y="9.865384615384615"/>
      <point x="100.8076923076923" y="0.0"/>
    </contour>
    <contour>
      <point x="197.98076923076923" y="91.86538461538461" type="line"/>
      <point x="197.98076923076923" y="312.7692307692308" type="line"/>
      <point x="313.4230769230769" y="312.7692307692308" type="line" smooth="yes"/>
      <point x="406.61538461538464" y="312.7692307692308"/>
      <point x="454.86538461538464" y="273.96153846153845"/>
      <point x="454.86538461538464" y="207.01923076923077" type="curve" smooth="yes"/>
      <point x="454.86538461538464" y="135.80769230769232"/>
      <point x="410.1923076923077" y="91.86538461538461"/>
      <point x="330.13461538461536" y="91.86538461538461" type="curve" smooth="yes"/>
    </contour>
    <contour>
      <point x="197.98076923076923" y="404.63461538461536" type="line"/>
      <point x="197.98076923076923" y="608.4230769230769" type="line"/>
      <point x="298.15384615384613" y="608.4230769230769" type="line" smooth="yes"/>
      <point x="386.90384615384613" y="608.4230769230769"/>
      <point x="425.4423076923077" y="576.3076923076923"/>
      <point x="425.4423076923077" y="509.5192307692308" type="curve" smooth="yes"/>
      <point x="425.4423076923077" y="451.15384615384613"/>
      <point x="375.36538461538464" y="404.63461538461536"/>
      <point x="300.4230769230769" y="404.63461538461536" type="curve" smooth="yes"/>
    </contour>
  </outline>
</glyph>
<glyph name="C" format="2">
  <advance width="619.0"/>
  <unicode hex="0043"/>
  <anchor x="352.25" y="0.0" name="bottom"/>
  <anchor x="365.86538461538464" y="700.0" name="top"/>
  <outline>
    <contour>
      <point x="377.5576923076923" y="-6.576923076923077" type="curve" smooth="yes"/>
      <point x="446.78846153846155" y="-6.576923076923077"/>
      <point x="516.8461538461538" y="10.115384615384617"/>
      <point x="556.3076923076923" y="32.13461538461539" type="curve" smooth="yes"/>
      <point x="576.5961538461538" y="43.42307692307692"/>
      <point x="589.1730769230769" y="56.28846153846154"/>
      <point x="589.1730769230769" y="68.88461538461539" type="curve" smooth="yes"/>
      <point x="589.1730769230769" y="82.32692307692308"/>
      <point x="565.7307692307693" y="132.40384615384616"/>
      <point x="547.25" y="132.40384615384616" type="curve" smooth="yes"/>
      <point x="533.6730769230769" y="132.40384615384616"/>
      <point x="478.25" y="85.28846153846153"/>
      <point x="377.5576923076923" y="85.28846153846153" type="curve" smooth="yes"/>
      <point x="232.67307692307693" y="85.28846153846153"/>
      <point x="163.8653846153846" y="169.69230769230768"/>
      <point x="163.8653846153846" y="349.5769230769231" type="curve" smooth="yes"/>
      <point x="163.8653846153846" y="533.0192307692307"/>
      <point x="233.09615384615384" y="614.4230769230769"/>
      <point x="380.9807692307692" y="614.4230769230769" type="curve" smooth="yes"/>
      <point x="476.6923076923077" y="614.4230769230769"/>
      <point x="522.3846153846154" y="573.8846153846154"/>
      <point x="533.6730769230769" y="573.8846153846154" type="curve" smooth="yes"/>
      <point x="550.1346153846154" y="573.8846153846154"/>
      <point x="576.6153846153846" y="622.0961538461538"/>
      <point x="576.6153846153846" y="642.2692307692307" type="curve" smooth="yes"/>
      <point x="576.6153846153846" y="651.4230769230769"/>
      <point x="567.3269230769231" y="661.0"/>
      <point x="552.0384615384615" y="670.0" type="curve" smooth="yes"/>
      <point x="516.3076923076923" y="690.4423076923077"/>
      <point x="446.9807692307692" y="706.5769230769231"/>
      <point x="380.4230769230769" y="706.5769230769231" type="curve" smooth="yes"/>
      <point x="164.1153846153846" y="706.5769230769231"/>
      <point x="53.53846153846154" y="589.2884615384615"/>
      <point x="53.53846153846154" y="350.5769230769231" type="curve" smooth="yes"/>
      <point x="53.53846153846154" y="105.71153846153847"/>
      <point x="157.1153846153846" y="-6.576923076923077"/>
    </contour>
  </outline>
</glyph>
<glyph name="D" format="2">
  <advance width="695.0"/>
  <unicode hex="0044"/>
  <anchor x="330.1730769230769" y="0.0" name="bottom"/>
  <anchor x="144.75" y="350.0" name="center"/>
  <anchor x="320.0769230769231" y="700.0" name="top"/>
  <outline>
    <contour>
      <point x="123.82692307692308" y="0.0" type="curve" smooth="yes"/>
      <point x="329.28846153846155" y="0.0" type="line" smooth="yes"/>
      <point x="511.09615384615387" y="0.0"/>
      <point x="641.4615384615385" y="99.8076923076923"/>
      <point x="641.4615384615385" y="350.0" type="curve" smooth="yes"/>
      <point x="641.4615384615385" y="599.4807692307693"/>
      <point x="511.09615384615387" y="700.0"/>
      <point x="329.28846153846155" y="700.0" type="curve" smooth="yes"/>
      <point x="123.82692307692308" y="700.0" type="line" smooth="yes"/>
      <point x="100.8076923076923" y="700.0"/>
      <point x="90.9423076923077" y="690.1346153846154"/>
      <point x="90.9423076923077" y="667.1153846153846" type="curve" smooth="yes"/>
      <point x="90.9423076923077" y="32.88461538461539" type="line" smooth="yes"/>
      <point x="90.9423076923077" y="9.865384615384615"/>
      <point x="100.8076923076923" y="0.0"/>
    </contour>
    <contour>
      <point x="198.26923076923077" y="91.86538461538461" type="line"/>
      <point x="198.26923076923077" y="608.1346153846154" type="line"/>
      <point x="324.3076923076923" y="608.1346153846154" type="line" smooth="yes"/>
      <point x="444.11538461538464" y="608.1346153846154"/>
      <point x="531.1346153846154" y="532.5576923076923"/>
      <point x="531.1346153846154" y="350.0" type="curve" smooth="yes"/>
      <point x="531.1346153846154" y="166.73076923076923"/>
      <point x="444.11538461538464" y="91.86538461538461"/>
      <point x="324.3076923076923" y="91.86538461538461" type="curve" smooth="yes"/>
    </contour>
  </outline>
</glyph>
<glyph name="E" format="2">
  <advance width="546.0"/>
  <unicode hex="0045"/>
  <anchor x="299.2692307692308" y="0.0" name="bottom"/>
  <anchor x="477.13461538461536" y="0.0" name="ogonek"/>
  <anchor x="293.8269230769231" y="700.0" name="top"/>
  <outline>
    <contour>
      <point x="124.82692307692308" y="0.0" type="curve" smooth="yes"/>
      <point x="475.40384615384613" y="0.0" type="line" smooth="yes"/>
      <point x="491.4230769230769" y="0.0"/>
      <point x="498.28846153846155" y="10.73076923076923"/>
      <point x="498.28846153846155" y="35.76923076923077" type="curve" smooth="yes"/>
      <point x="498.28846153846155" y="56.09615384615385" type="line" smooth="yes"/>
      <point x="498.28846153846155" y="81.13461538461539"/>
      <point x="491.4230769230769" y="91.86538461538461"/>
      <point x="475.40384615384613" y="91.86538461538461" type="curve" smooth="yes"/>
      <point x="198.98076923076923" y="91.86538461538461" type="line"/>
      <point x="198.98076923076923" y="312.21153846153845" type="line"/>
      <point x="445.2692307692308" y="312.21153846153845" type="line" smooth="yes"/>
      <point x="461.28846153846155" y="312.21153846153845"/>
      <point x="468.15384615384613" y="322.9423076923077"/>
      <point x="468.15384615384613" y="347.9807692307692" type="curve" smooth="yes"/>
      <point x="468.15384615384613" y="368.3076923076923" type="line" smooth="yes"/>
      <point x="468.15384615384613" y="393.34615384615387"/>
      <point x="461.28846153846155" y="404.0769230769231"/>
      <point x="445.2692307692308" y="404.0769230769231" type="curve" smooth="yes"/>
      <point x="198.98076923076923" y="404.0769230769231" type="line"/>
      <point x="198.98076923076923" y="608.1346153846154" type="line"/>
      <point x="474.40384615384613" y="608.1346153846154" type="line" smooth="yes"/>
      <point x="490.4230769230769" y="608.1346153846154"/>
      <point x="497.28846153846155" y="618.8653846153846"/>
      <point x="497.28846153846155" y="643.9038461538462" type="curve" smooth="yes"/>
      <point x="497.28846153846155" y="664.2307692307693" type="line" smooth="yes"/>
      <point x="497.28846153846155" y="689.2692307692307"/>
      <point x="490.4230769230769" y="700.0"/>
      <point x="474.40384615384613" y="700.0" type="curve" smooth="yes"/>
      <point x="124.82692307692308" y="700.0" type="line" smooth="yes"/>
      <point x="101.8076923076923" y="700.0"/>
      <point x="91.9423076923077" y="690.1346153846154"/>
      <point x="91.9423076923077" y="667.1153846153846" type="curve" smooth="yes"/>
      <point x="91.9423076923077" y="32.88461538461539" type="line" smooth="yes"/>
      <point x="91.9423076923077" y="9.865384615384615"/>
      <point x="101.8076923076923" y="0.0"/>
    </contour>
  </outline>
</glyph>
<glyph name="F" format="2">
  <advance width="503.0"/>
  <unicode hex="0046"/>
  <anchor x="144.46153846153845" y="0.0" name="bottom"/>
  <anchor x="284.0673076923077" y="700.0" name="top"/>
  <outline>
    <contour>
      <point x="136.71153846153845" y="-2.0" type="curve" smooth="yes"/>
      <point x="152.21153846153845" y="-2.0" type="line" smooth="yes"/>
      <point x="184.25" y="-2.0"/>
      <point x="197.98076923076923" y="6.865384615384615"/>
      <point x="197.98076923076923" y="22.884615384615383" type="curve" smooth="yes"/>
      <point x="197.98076923076923" y="289.03846153846155" type="line"/>
      <point x="428.03846153846155" y="289.03846153846155" type="line" smooth="yes"/>
      <point x="444.0576923076923" y="289.03846153846155"/>
      <point x="450.9230769230769" y="299.7692307692308"/>
      <point x="450.9230769230769" y="324.8076923076923" type="curve" smooth="yes"/>
      <point x="450.9230769230769" y="345.13461538461536" type="line" smooth="yes"/>
      <point x="450.9230769230769" y="370.1730769230769"/>
      <point x="444.0576923076923" y="380.90384615384613"/>
      <point x="428.03846153846155" y="380.90384615384613" type="curve" smooth="yes"/>
      <point x="197.98076923076923" y="380.90384615384613" type="line"/>
      <point x="197.98076923076923" y="608.1346153846154" type="line"/>
      <point x="442.86538461538464" y="608.1346153846154" type="line" smooth="yes"/>
      <point x="458.88461538461536" y="608.1346153846154"/>
      <point x="465.75" y="618.8653846153846"/>
      <point x="465.75" y="643.9038461538462" type="curve" smooth="yes"/>
      <point x="465.75" y="664.2307692307693" type="line" smooth="yes"/>
      <point x="465.75" y="689.2692307692307"/>
      <point x="458.88461538461536" y="700.0"/>
      <point x="442.86538461538464" y="700.0" type="curve" smooth="yes"/>
      <point x="123.82692307692308" y="700.0" type="line" smooth="yes"/>
      <point x="100.8076923076923" y="700.0"/>
      <point x="90.9423076923077" y="690.1346153846154"/>
      <point x="90.9423076923077" y="667.1153846153846" type="curve" smooth="yes"/>
      <point x="90.9423076923077" y="22.884615384615383" type="line" smooth="yes"/>
      <point x="90.9423076923077" y="6.865384615384615"/>
      <point x="104.67307692307692" y="-2.0"/>
    </contour>
  </outline>
</glyph>
<glyph name="G" format="2">
  <advance width="672.0"/>
  <unicode hex="0047"/>
  <anchor x="377.7692307692308" y="0.0" name="bottom"/>
  <anchor x="345.03846153846155" y="700.0" name="top"/>
  <outline>
    <contour>
      <point x="368.3076923076923" y="-6.576923076923077" type="curve" smooth="yes"/>
      <point x="469.90384615384613" y="-6.576923076923077"/>
      <point x="594.1923076923077" y="7.6923076923076925"/>
      <point x="594.1923076923077" y="67.4423076923077" type="curve" smooth="yes"/>
      <point x="594.1923076923077" y="336.1923076923077" type="line" smooth="yes"/>
      <point x="594.1923076923077" y="359.21153846153845"/>
      <point x="584.3269230769231" y="369.0769230769231"/>
      <point x="561.3076923076923" y="369.0769230769231" type="curve" smooth="yes"/>
      <point x="378.2307692307692" y="369.0769230769231" type="line" smooth="yes"/>
      <point x="362.21153846153845" y="369.0769230769231"/>
      <point x="355.34615384615387" y="358.34615384615387"/>
      <point x="355.34615384615387" y="333.3076923076923" type="curve" smooth="yes"/>
      <point x="355.34615384615387" y="312.6923076923077" type="line" smooth="yes"/>
      <point x="355.34615384615387" y="287.65384615384613"/>
      <point x="362.21153846153845" y="276.9230769230769"/>
      <point x="378.2307692307692" y="276.9230769230769" type="curve" smooth="yes"/>
      <point x="486.86538461538464" y="276.9230769230769" type="line"/>
      <point x="486.86538461538464" y="55.27884615384615" type="line"/>
      <point x="508.09615384615387" y="102.14423076923077" type="line"/>
      <point x="478.5192307692308" y="92.63461538461539"/>
      <point x="428.09615384615387" y="85.28846153846153"/>
      <point x="372.5769230769231" y="85.28846153846153" type="curve" smooth="yes"/>
      <point x="212.75" y="85.28846153846153"/>
      <point x="163.8653846153846" y="200.28846153846155"/>
      <point x="163.8653846153846" y="352.4230769230769" type="curve" smooth="yes"/>
      <point x="163.8653846153846" y="519.5"/>
      <point x="221.0" y="614.4230769230769"/>
      <point x="380.9807692307692" y="614.4230769230769" type="curve" smooth="yes"/>
      <point x="476.6923076923077" y="614.4230769230769"/>
      <point x="523.8269230769231" y="573.8846153846154"/>
      <point x="535.1153846153846" y="573.8846153846154" type="curve" smooth="yes"/>
      <point x="551.5769230769231" y="573.8846153846154"/>
      <point x="578.0576923076923" y="622.0961538461538"/>
      <point x="578.0576923076923" y="642.2692307692307" type="curve" smooth="yes"/>
      <point x="578.0576923076923" y="673.5961538461538"/>
      <point x="476.25" y="706.5769230769231"/>
      <point x="380.4230769230769" y="706.5769230769231" type="curve" smooth="yes"/>
      <point x="167.67307692307693" y="706.5769230769231"/>
      <point x="53.53846153846154" y="592.1346153846154"/>
      <point x="53.53846153846154" y="346.3076923076923" type="curve" smooth="yes"/>
      <point x="53.53846153846154" y="105.71153846153847"/>
      <point x="162.09615384615384" y="-6.576923076923077"/>
    </contour>
  </outline>
</glyph>
<glyph name="H" format="2">
  <advance width="733.0"/>
  <unicode hex="0048"/>
  <anchor x="366.0" y="0.0" name="bottom"/>
  <anchor x="366.0" y="535.8846153846154" name="center"/>
  <anchor x="366.0" y="700.0" name="top"/>
  <outline>
    <contour>
      <point x="137.71153846153845" y="-2.0" type="curve" smooth="yes"/>
      <point x="153.5" y="-2.0" type="line" smooth="yes"/>
      <point x="185.53846153846155" y="-2.0"/>
      <point x="199.26923076923077" y="6.865384615384615"/>
      <point x="199.26923076923077" y="22.884615384615383" type="curve" smooth="yes"/>
      <point x="199.26923076923077" y="312.34615384615387" type="line"/>
      <point x="534.7307692307693" y="312.34615384615387" type="line"/>
      <point x="534.7307692307693" y="22.884615384615383" type="line" smooth="yes"/>
      <point x="534.7307692307693" y="6.865384615384615"/>
      <point x="548.4615384615385" y="-2.0"/>
      <point x="580.5" y="-2.0" type="curve" smooth="yes"/>
      <point x="596.2884615384615" y="-2.0" type="line" smooth="yes"/>
      <point x="628.3269230769231" y="-2.0"/>
      <point x="642.0576923076923" y="6.865384615384615"/>
      <point x="642.0576923076923" y="22.884615384615383" type="curve" smooth="yes"/>
      <point x="642.0576923076923" y="677.1153846153846" type="line" smooth="yes"/>
      <point x="642.0576923076923" y="693.1346153846154"/>
      <point x="628.3269230769231" y="702.0"/>
      <point x="596.2884615384615" y="702.0" type="curve" smooth="yes"/>
      <point x="580.5" y="702.0" type="line" smooth="yes"/>
      <point x="548.4615384615385" y="702.0"/>
      <point x="534.7307692307693" y="693.1346153846154"/>
      <point x="534.7307692307693" y="677.1153846153846" type="curve" smooth="yes"/>
      <point x="534.7307692307693" y="404.5" type="line"/>
      <point x="199.26923076923077" y="404.5" type="line"/>
      <point x="199.26923076923077" y="677.1153846153846" type="line" smooth="yes"/>
      <point x="199.26923076923077" y="693.1346153846154"/>
      <point x="185.53846153846155" y="702.0"/>
      <point x="153.5" y="702.0" type="curve" smooth="yes"/>
      <point x="137.71153846153845" y="702.0" type="line" smooth="yes"/>
      <point x="105.67307692307692" y="702.0"/>
      <point x="91.9423076923077" y="693.1346153846154"/>
      <point x="91.9423076923077" y="677.1153846153846" type="curve" smooth="yes"/>
      <point x="91.9423076923077" y="22.884615384615383" type="line" smooth="yes"/>
      <point x="91.9423076923077" y="6.865384615384615"/>
      <point x="105.67307692307692" y="-2.0"/>
    </contour>
  </outline>
</glyph>
<glyph name="I" format="2">
  <advance width="283.0"/>
  <unicode hex="0049"/>
  <anchor x="140.8653846153846" y="0.0" name="bottom"/>
  <anchor x="173.6346153846154" y="0.0" name="ogonek"/>
  <anchor x="141.28846153846155" y="700.0" name="top"/>
  <outline>
    <contour>
      <point x="133.25" y="-2.2884615384615383" type="curve" smooth="yes"/>
      <point x="149.03846153846155" y="-2.2884615384615383" type="line" smooth="yes"/>
      <point x="181.07692307692307" y="-2.2884615384615383"/>
      <point x="194.80769230769232" y="6.865384615384615"/>
      <point x="194.80769230769232" y="22.884615384615383" type="curve" smooth="yes"/>
      <point x="194.80769230769232" y="677.1153846153846" type="line" smooth="yes"/>
      <point x="194.80769230769232" y="693.1346153846154"/>
      <point x="181.07692307692307" y="702.2884615384615"/>
      <point x="149.03846153846155" y="702.2884615384615" type="curve" smooth="yes"/>
      <point x="133.25" y="702.2884615384615" type="line" smooth="yes"/>
      <point x="101.21153846153847" y="702.2884615384615"/>
      <point x="87.48076923076923" y="693.1346153846154"/>
      <point x="87.48076923076923" y="677.1153846153846" type="curve" smooth="yes"/>
      <point x="87.48076923076923" y="22.884615384615383" type="line" smooth="yes"/>
      <point x="87.48076923076923" y="6.865384615384615"/>
      <point x="101.21153846153847" y="-2.2884615384615383"/>
    </contour>
  </outline>
</glyph>
<glyph name="J" format="2">
  <advance width="402.0"/>
  <unicode hex="004A"/>
  <anchor x="270.09615384615387" y="700.0" name="top"/>
  <outline>
    <contour>
      <point x="111.90384615384616" y="-6.576923076923077" type="curve" smooth="yes"/>
      <point x="264.46153846153845" y="-6.576923076923077"/>
      <point x="323.90384615384613" y="77.84615384615384"/>
      <point x="323.90384615384613" y="204.1346153846154" type="curve" smooth="yes"/>
      <point x="323.90384615384613" y="677.1153846153846" type="line" smooth="yes"/>
      <point x="323.90384615384613" y="693.1346153846154"/>
      <point x="310.1730769230769" y="702.2884615384615"/>
      <point x="278.13461538461536" y="702.2884615384615" type="curve" smooth="yes"/>
      <point x="262.34615384615387" y="702.2884615384615" type="line" smooth="yes"/>
      <point x="230.30769230769232" y="702.2884615384615"/>
      <point x="216.57692307692307" y="693.1346153846154"/>
      <point x="216.57692307692307" y="677.1153846153846" type="curve" smooth="yes"/>
      <point x="216.57692307692307" y="204.23076923076923" type="line" smooth="yes"/>
      <point x="216.57692307692307" y="121.98076923076923"/>
      <point x="180.48076923076923" y="86.71153846153845"/>
      <point x="92.73076923076923" y="86.71153846153845" type="curve" smooth="yes"/>
      <point x="60.73076923076923" y="86.71153846153845"/>
      <point x="40.32692307692308" y="95.42307692307692"/>
      <point x="31.75" y="95.42307692307692" type="curve" smooth="yes"/>
      <point x="11.423076923076923" y="94.5576923076923"/>
      <point x="4.269230769230769" y="37.5"/>
      <point x="4.269230769230769" y="29.46153846153846" type="curve" smooth="yes"/>
      <point x="4.269230769230769" y="-2.1538461538461537"/>
      <point x="77.9423076923077" y="-6.576923076923077"/>
    </contour>
  </outline>
</glyph>
<glyph name="K" format="2">
  <advance width="576.0"/>
  <unicode hex="004B"/>
  <anchor x="290.88461538461536" y="0.0" name="bottom"/>
  <anchor x="293.7692307692308" y="700.0" name="top"/>
  <outline>
    <contour>
      <point x="134.69230769230768" y="-2.0" type="curve" smooth="yes"/>
      <point x="150.48076923076923" y="-2.0" type="line" smooth="yes"/>
      <point x="182.51923076923077" y="-2.0"/>
      <point x="196.25" y="6.865384615384615"/>
      <point x="196.25" y="22.884615384615383" type="curve" smooth="yes"/>
      <point x="196.25" y="329.25" type="line"/>
      <point x="200.25" y="329.53846153846155" type="line"/>
      <point x="457.9807692307692" y="12.73076923076923" type="line" smooth="yes"/>
      <point x="469.11538461538464" y="-0.8461538461538463"/>
      <point x="490.6923076923077" y="-2.0"/>
      <point x="514.7115384615385" y="-2.0" type="curve" smooth="yes"/>
      <point x="539.9807692307693" y="-2.0" type="line" smooth="yes"/>
      <point x="573.2884615384615" y="-2.0"/>
      <point x="587.4423076923077" y="1.8653846153846154"/>
      <point x="587.4423076923077" y="12.288461538461538" type="curve" smooth="yes"/>
      <point x="587.4423076923077" y="16.576923076923077"/>
      <point x="585.4423076923077" y="21.442307692307693"/>
      <point x="578.7307692307693" y="29.73076923076923" type="curve" smooth="yes"/>
      <point x="299.96153846153845" y="360.75" type="line"/>
      <point x="533.5192307692307" y="668.1346153846154" type="line" smooth="yes"/>
      <point x="540.2307692307693" y="676.4230769230769"/>
      <point x="542.9423076923077" y="683.4230769230769"/>
      <point x="542.9423076923077" y="688.4230769230769" type="curve" smooth="yes"/>
      <point x="542.9423076923077" y="696.0"/>
      <point x="530.2115384615385" y="702.0"/>
      <point x="501.88461538461536" y="702.0" type="curve" smooth="yes"/>
      <point x="481.21153846153845" y="702.0" type="line" smooth="yes"/>
      <point x="457.1923076923077" y="702.0"/>
      <point x="434.4807692307692" y="698.7115384615385"/>
      <point x="425.4807692307692" y="686.5576923076923" type="curve" smooth="yes"/>
      <point x="200.25" y="381.78846153846155" type="line"/>
      <point x="196.25" y="382.0769230769231" type="line"/>
      <point x="196.25" y="677.1153846153846" type="line" smooth="yes"/>
      <point x="196.25" y="693.1346153846154"/>
      <point x="182.51923076923077" y="702.0"/>
      <point x="150.48076923076923" y="702.0" type="curve" smooth="yes"/>
      <point x="134.69230769230768" y="702.0" type="line" smooth="yes"/>
      <point x="102.65384615384616" y="702.0"/>
      <point x="88.92307692307692" y="693.1346153846154"/>
      <point x="88.92307692307692" y="677.1153846153846" type="curve" smooth="yes"/>
      <point x="88.92307692307692" y="22.884615384615383" type="line" smooth="yes"/>
      <point x="88.92307692307692" y="6.865384615384615"/>
      <point x="102.65384615384616" y="-2.0"/>
    </contour>
  </outline>
</glyph>
<glyph name="L" format="2">
  <advance width="484.0"/>
  <unicode hex="004C"/>
  <anchor x="287.6730769230769" y="0.0" name="bottom"/>
  <anchor x="382.7307692307692" y="335.0" name="center"/>
  <anchor x="148.46153846153845" y="701.4230769230769" name="top"/>
  <anchor x="337.59615384615387" y="700.0" name="topright"/>
  <outline>
    <contour>
      <point x="123.82692307692308" y="0.0" type="curve" smooth="yes"/>
      <point x="455.96153846153845" y="0.0" type="line" smooth="yes"/>
      <point x="471.9807692307692" y="0.0"/>
      <point x="478.84615384615387" y="10.73076923076923"/>
      <point x="478.84615384615387" y="35.76923076923077" type="curve" smooth="yes"/>
      <point x="478.84615384615387" y="56.09615384615385" type="line" smooth="yes"/>
      <point x="478.84615384615387" y="81.13461538461539"/>
      <point x="471.9807692307692" y="91.86538461538461"/>
      <point x="455.96153846153845" y="91.86538461538461" type="curve" smooth="yes"/>
      <point x="197.98076923076923" y="91.86538461538461" type="line"/>
      <point x="197.98076923076923" y="677.1153846153846" type="line" smooth="yes"/>
      <point x="197.98076923076923" y="693.1346153846154"/>
      <point x="184.25" y="702.0"/>
      <point x="152.21153846153845" y="702.0" type="curve" smooth="yes"/>
      <point x="136.71153846153845" y="702.0" type="line" smooth="yes"/>
      <point x="104.67307692307692" y="702.0"/>
      <point x="90.9423076923077" y="693.1346153846154"/>
      <point x="90.9423076923077" y="677.1153846153846" type="curve" smooth="yes"/>
      <point x="90.9423076923077" y="32.88461538461539" type="line" smooth="yes"/>
      <point x="90.9423076923077" y="9.865384615384615"/>
      <point x="100.8076923076923" y="0.0"/>
    </contour>
  </outline>
</glyph>
<glyph name="M" format="2">
  <advance width="843.0"/>
  <unicode hex="004D"/>
  <outline>
    <contour>
      <point x="404.15384615384613" y="186.92307692307693" type="curve" smooth="yes"/>
      <point x="440.9807692307692" y="186.92307692307693" type="line" smooth="yes"/>
      <point x="454.28846153846155" y="186.92307692307693"/>
      <point x="462.0192307692308" y="191.78846153846155"/>
      <point x="468.1730769230769" y="201.65384615384616" type="curve" smooth="yes"/>
      <point x="628.1730769230769" y="481.4230769230769" type="line" smooth="yes"/>
      <point x="636.8846153846154" y="495.84615384615387"/>
      <point x="643.8846153846154" y="509.2692307692308"/>
      <point x="651.5961538461538" y="524.6923076923077" type="curve"/>
      <point x="655.5961538461538" y="523.6923076923077" type="line"/>
      <point x="654.1730769230769" y="506.2692307692308"/>
      <point x="654.1730769230769" y="488.84615384615387"/>
      <point x="654.1730769230769" y="470.4230769230769" type="curve" smooth="yes"/>
      <point x="654.1730769230769" y="22.884615384615383" type="line" smooth="yes"/>
      <point x="654.1730769230769" y="6.865384615384615"/>
      <point x="667.9038461538462" y="-2.0"/>
      <point x="699.9423076923077" y="-2.0" type="curve" smooth="yes"/>
      <point x="713.2884615384615" y="-2.0" type="line" smooth="yes"/>
      <point x="745.3269230769231" y="-2.0"/>
      <point x="759.0576923076923" y="6.865384615384615"/>
      <point x="759.0576923076923" y="22.884615384615383" type="curve" smooth="yes"/>
      <point x="759.0576923076923" y="677.1153846153846" type="line" smooth="yes"/>
      <point x="759.0576923076923" y="693.1346153846154"/>
      <point x="745.3269230769231" y="702.0"/>
      <point x="713.2884615384615" y="702.0" type="curve" smooth="yes"/>
      <point x="674.8076923076923" y="702.0" type="line" smooth="yes"/>
      <point x="649.3653846153846" y="702.0"/>
      <point x="634.1923076923077" y="695.0"/>
      <point x="626.75" y="681.4038461538462" type="curve" smooth="yes"/>
      <point x="447.0769230769231" y="364.7692307692308" type="line" smooth="yes"/>
      <point x="439.8076923076923" y="351.65384615384613"/>
      <point x="428.2692307692308" y="330.28846153846155"/>
      <point x="422.4230769230769" y="312.90384615384613" type="curve"/>
      <point x="418.0" y="329.5769230769231"/>
      <point x="409.0192307692308" y="348.8076923076923"/>
      <point x="401.03846153846155" y="362.63461538461536" type="curve" smooth="yes"/>
      <point x="218.67307692307693" y="681.4038461538462" type="line" smooth="yes"/>
      <point x="211.23076923076923" y="695.0"/>
      <point x="196.05769230769232" y="702.0"/>
      <point x="170.6153846153846" y="702.0" type="curve" smooth="yes"/>
      <point x="129.71153846153845" y="702.0" type="line" smooth="yes"/>
      <point x="97.67307692307692" y="702.0"/>
      <point x="83.9423076923077" y="693.1346153846154"/>
      <point x="83.9423076923077" y="677.1153846153846" type="curve" smooth="yes"/>
      <point x="83.9423076923077" y="22.884615384615383" type="line" smooth="yes"/>
      <point x="83.9423076923077" y="6.865384615384615"/>
      <point x="97.67307692307692" y="-2.0"/>
      <point x="129.71153846153845" y="-2.0" type="curve" smooth="yes"/>
      <point x="143.05769230769232" y="-2.0" type="line" smooth="yes"/>
      <point x="175.09615384615384" y="-2.0"/>
      <point x="188.82692307692307" y="6.865384615384615"/>
      <point x="188.82692307692307" y="22.884615384615383" type="curve" smooth="yes"/>
      <point x="188.82692307692307" y="474.6923076923077" type="line" smooth="yes"/>
      <point x="188.82692307692307" y="493.11538461538464"/>
      <point x="188.82692307692307" y="510.53846153846155"/>
      <point x="187.40384615384616" y="527.9615384615385" type="curve"/>
      <point x="191.40384615384616" y="528.9615384615385" type="line"/>
      <point x="199.1153846153846" y="513.5384615384615"/>
      <point x="206.1153846153846" y="500.11538461538464"/>
      <point x="214.82692307692307" y="485.6923076923077" type="curve" smooth="yes"/>
      <point x="376.96153846153845" y="201.65384615384616" type="line" smooth="yes"/>
      <point x="383.11538461538464" y="191.78846153846155"/>
      <point x="391.5576923076923" y="186.92307692307693"/>
    </contour>
  </outline>
</glyph>
<glyph name="O" format="2">
  <advance width="731.0"/>
  <unicode hex="004F"/>
  <anchor x="367.0" y="0.0" name="bottom"/>
  <anchor x="479.6923076923077" y="682.0" name="horn"/>
  <anchor x="426.7307692307692" y="0.0" name="ogonek"/>
  <anchor x="366.0" y="700.0" name="top"/>
  <outline>
    <contour>
      <point x="365.28846153846155" y="-6.576923076923077" type="curve" smooth="yes"/>
      <point x="567.7307692307693" y="-6.576923076923077"/>
      <point x="677.4615384615385" y="118.28846153846153"/>
      <point x="677.4615384615385" y="351.4230769230769" type="curve" smooth="yes"/>
      <point x="677.4615384615385" y="584.5576923076923"/>
      <point x="567.7307692307693" y="706.5769230769231"/>
      <point x="365.28846153846155" y="706.5769230769231" type="curve" smooth="yes"/>
      <point x="163.55769230769232" y="706.5769230769231"/>
      <point x="53.53846153846154" y="584.5576923076923"/>
      <point x="53.53846153846154" y="351.4230769230769" type="curve" smooth="yes"/>
      <point x="53.53846153846154" y="118.28846153846153"/>
      <point x="163.55769230769232" y="-6.576923076923077"/>
    </contour>
    <contour>
      <point x="365.28846153846155" y="85.28846153846153" type="curve" smooth="yes"/>
      <point x="234.09615384615384" y="85.28846153846153"/>
      <point x="163.8653846153846" y="178.09615384615384"/>
      <point x="163.8653846153846" y="351.4230769230769" type="curve" smooth="yes"/>
      <point x="163.8653846153846" y="524.75"/>
      <point x="234.09615384615384" y="614.4230769230769"/>
      <point x="365.28846153846155" y="614.4230769230769" type="curve" smooth="yes"/>
      <point x="496.4807692307692" y="614.4230769230769"/>
      <point x="567.1346153846154" y="524.75"/>
      <point x="567.1346153846154" y="351.4230769230769" type="curve" smooth="yes"/>
      <point x="567.1346153846154" y="178.09615384615384"/>
      <point x="496.4807692307692" y="85.28846153846153"/>
    </contour>
  </outline>
</glyph>
<glyph name="P" format="2">
  <advance width="570.0"/>
  <unicode hex="0050"/>
  <anchor x="133.90384615384616" y="0.0" name="bottom"/>
  <anchor x="285.0" y="700.0" name="top"/>
  <outline>
    <contour>
      <point x="126.15384615384616" y="-2.0" type="curve" smooth="yes"/>
      <point x="141.65384615384616" y="-2.0" type="line" smooth="yes"/>
      <point x="173.69230769230768" y="-2.0"/>
      <point x="187.42307692307693" y="6.865384615384615"/>
      <point x="187.42307692307693" y="22.884615384615383" type="curve" smooth="yes"/>
      <point x="187.42307692307693" y="287.61538461538464" type="line"/>
      <point x="328.28846153846155" y="287.61538461538464" type="line" smooth="yes"/>
      <point x="380.86538461538464" y="287.61538461538464"/>
      <point x="545.6153846153846" y="311.4807692307692"/>
      <point x="545.6153846153846" y="497.36538461538464" type="curve" smooth="yes"/>
      <point x="545.6153846153846" y="673.2884615384615"/>
      <point x="405.15384615384613" y="700.0"/>
      <point x="318.28846153846155" y="700.0" type="curve" smooth="yes"/>
      <point x="113.26923076923077" y="700.0" type="line" smooth="yes"/>
      <point x="90.25" y="700.0"/>
      <point x="80.38461538461539" y="690.1346153846154"/>
      <point x="80.38461538461539" y="667.1153846153846" type="curve" smooth="yes"/>
      <point x="80.38461538461539" y="22.884615384615383" type="line" smooth="yes"/>
      <point x="80.38461538461539" y="6.865384615384615"/>
      <point x="94.11538461538461" y="-2.0"/>
    </contour>
    <contour>
      <point x="187.42307692307693" y="379.7692307692308" type="line"/>
      <point x="187.42307692307693" y="608.1346153846154" type="line"/>
      <point x="314.13461538461536" y="608.1346153846154" type="line" smooth="yes"/>
      <point x="367.0769230769231" y="608.1346153846154"/>
      <point x="435.28846153846155" y="588.5769230769231"/>
      <point x="435.28846153846155" y="497.36538461538464" type="curve" smooth="yes"/>
      <point x="435.28846153846155" y="399.03846153846155"/>
      <point x="363.5192307692308" y="379.7692307692308"/>
      <point x="324.09615384615387" y="379.7692307692308" type="curve" smooth="yes"/>
    </contour>
  </outline>
</glyph>
<glyph name="Q" format="2">
  <advance width="731.0"/>
  <unicode hex="0051"/>
  <outline>
    <contour>
      <point x="641.7115384615385" y="-147.42307692307693" type="curve" smooth="yes"/>
      <point x="667.3076923076923" y="-147.42307692307693"/>
      <point x="687.4615384615385" y="-79.92307692307692"/>
      <point x="687.4615384615385" y="-66.76923076923077" type="curve" smooth="yes"/>
      <point x="687.4615384615385" y="-59.769230769230774"/>
      <point x="682.4615384615385" y="-54.48076923076923"/>
      <point x="673.4615384615385" y="-51.48076923076923" type="curve" smooth="yes"/>
      <point x="489.15384615384613" y="8.5" type="line"/>
      <point x="489.15384615384613" y="12.5" type="line"/>
      <point x="610.7884615384615" y="52.40384615384615"/>
      <point x="677.4615384615385" y="167.09615384615384"/>
      <point x="677.4615384615385" y="347.86538461538464" type="curve" smooth="yes"/>
      <point x="677.4615384615385" y="581.0"/>
      <point x="567.7307692307693" y="706.5769230769231"/>
      <point x="365.28846153846155" y="706.5769230769231" type="curve" smooth="yes"/>
      <point x="163.55769230769232" y="706.5769230769231"/>
      <point x="53.53846153846154" y="581.7115384615385"/>
      <point x="53.53846153846154" y="347.86538461538464" type="curve" smooth="yes"/>
      <point x="53.53846153846154" y="170.59615384615384"/>
      <point x="116.82692307692308" y="57.73076923076923"/>
      <point x="240.51923076923077" y="8.884615384615383" type="curve" smooth="yes"/>
      <point x="378.7019230769231" y="-45.30769230769231"/>
      <point x="630.2884615384615" y="-147.42307692307693"/>
    </contour>
    <contour>
      <point x="365.28846153846155" y="82.0" type="curve" smooth="yes"/>
      <point x="236.23076923076923" y="82.0"/>
      <point x="163.8653846153846" y="175.09615384615384"/>
      <point x="163.8653846153846" y="347.86538461538464" type="curve" smooth="yes"/>
      <point x="163.8653846153846" y="520.4807692307693"/>
      <point x="236.23076923076923" y="614.4230769230769"/>
      <point x="365.28846153846155" y="614.4230769230769" type="curve" smooth="yes"/>
      <point x="495.0576923076923" y="614.4230769230769"/>
      <point x="567.1346153846154" y="519.7692307692307"/>
      <point x="567.1346153846154" y="347.86538461538464" type="curve" smooth="yes"/>
      <point x="567.1346153846154" y="175.80769230769232"/>
      <point x="495.0576923076923" y="82.0"/>
    </contour>
  </outline>
</glyph>
<glyph name="R" format="2">
  <advance width="610.0"/>
  <unicode hex="0052"/>
  <anchor x="315.0" y="0.0" name="bottom"/>
  <anchor x="293.5576923076923" y="700.0" name="top"/>
  <outline>
    <contour>
      <point x="134.69230769230768" y="-2.0" type="curve" smooth="yes"/>
      <point x="150.19230769230768" y="-2.0" type="line" smooth="yes"/>
      <point x="182.23076923076923" y="-2.0"/>
      <point x="195.96153846153845" y="6.865384615384615"/>
      <point x="195.96153846153845" y="22.884615384615383" type="curve" smooth="yes"/>
      <point x="195.96153846153845" y="298.1923076923077" type="line"/>
      <point x="271.25" y="298.1923076923077" type="line" smooth="yes"/>
      <point x="345.5" y="298.1923076923077"/>
      <point x="379.28846153846155" y="278.1923076923077"/>
      <point x="406.40384615384613" y="211.15384615384616" type="curve" smooth="yes"/>
      <point x="483.2692307692308" y="15.442307692307692" type="line" smooth="yes"/>
      <point x="487.99038461538464" y="3.7115384615384617"/>
      <point x="505.86538461538464" y="-2.0"/>
      <point x="528.4615384615385" y="-2.0" type="curve" smooth="yes"/>
      <point x="547.4038461538462" y="-2.0" type="line" smooth="yes"/>
      <point x="579.8653846153846" y="-2.0"/>
      <point x="594.5961538461538" y="4.576923076923077"/>
      <point x="594.5961538461538" y="15.153846153846153" type="curve" smooth="yes"/>
      <point x="594.5961538461538" y="18.73076923076923"/>
      <point x="593.3076923076923" y="24.01923076923077"/>
      <point x="591.0192307692307" y="30.596153846153847" type="curve" smooth="yes"/>
      <point x="510.13461538461536" y="234.23076923076923" type="line" smooth="yes"/>
      <point x="486.7307692307692" y="293.59615384615387"/>
      <point x="462.4230769230769" y="336.86538461538464"/>
      <point x="425.3269230769231" y="349.71153846153845" type="curve"/>
      <point x="425.3269230769231" y="353.71153846153845" type="line"/>
      <point x="495.03846153846155" y="381.13461538461536"/>
      <point x="540.9038461538462" y="436.4230769230769"/>
      <point x="540.9038461538462" y="519.8269230769231" type="curve" smooth="yes"/>
      <point x="540.9038461538462" y="644.0961538461538"/>
      <point x="458.5" y="700.0"/>
      <point x="297.59615384615387" y="700.0" type="curve" smooth="yes"/>
      <point x="121.8076923076923" y="700.0" type="line" smooth="yes"/>
      <point x="98.78846153846153" y="700.0"/>
      <point x="88.92307692307692" y="690.1346153846154"/>
      <point x="88.92307692307692" y="667.1153846153846" type="curve" smooth="yes"/>
      <point x="88.92307692307692" y="22.884615384615383" type="line" smooth="yes"/>
      <point x="88.92307692307692" y="6.865384615384615"/>
      <point x="102.65384615384616" y="-2.0"/>
    </contour>
    <contour>
      <point x="195.96153846153845" y="390.63461538461536" type="line"/>
      <point x="195.96153846153845" y="608.1346153846154" type="line"/>
      <point x="310.28846153846155" y="608.1346153846154" type="line" smooth="yes"/>
      <point x="382.9230769230769" y="608.1346153846154"/>
      <point x="430.5769230769231" y="573.8653846153846"/>
      <point x="430.5769230769231" y="502.96153846153845" type="curve" smooth="yes"/>
      <point x="430.5769230769231" y="442.15384615384613"/>
      <point x="380.34615384615387" y="390.63461538461536"/>
      <point x="317.28846153846155" y="390.63461538461536" type="curve" smooth="yes"/>
    </contour>
  </outline>
</glyph>
<glyph name="S" format="2">
  <advance width="500.0"/>
  <unicode hex="0053"/>
  <anchor x="250.0" y="0.0" name="bottom"/>
  <anchor x="250.0" y="700.0" name="top"/>
  <outline>
    <contour>
      <point x="247.75" y="-6.576923076923077" type="curve" smooth="yes"/>
      <point x="375.25" y="-6.576923076923077"/>
      <point x="470.90384615384613" y="62.23076923076923"/>
      <point x="470.90384615384613" y="194.6346153846154" type="curve" smooth="yes"/>
      <point x="470.90384615384613" y="330.63461538461536"/>
      <point x="370.90384615384613" y="370.9230769230769"/>
      <point x="283.9230769230769" y="404.9230769230769" type="curve" smooth="yes"/>
      <point x="216.10576923076923" y="431.2692307692308"/>
      <point x="156.28846153846155" y="450.0576923076923"/>
      <point x="156.28846153846155" y="517.8653846153846" type="curve" smooth="yes"/>
      <point x="156.28846153846155" y="576.4423076923077"/>
      <point x="199.03846153846155" y="614.4230769230769"/>
      <point x="274.90384615384613" y="614.4230769230769" type="curve" smooth="yes"/>
      <point x="320.0" y="614.4230769230769"/>
      <point x="350.40384615384613" y="602.0192307692307"/>
      <point x="370.53846153846155" y="592.4615384615385" type="curve" smooth="yes"/>
      <point x="384.9807692307692" y="585.4615384615385"/>
      <point x="393.84615384615387" y="580.1730769230769"/>
      <point x="400.13461538461536" y="580.1730769230769" type="curve" smooth="yes"/>
      <point x="414.1730769230769" y="580.1730769230769"/>
      <point x="438.7692307692308" y="624.5192307692307"/>
      <point x="438.7692307692308" y="642.9807692307693" type="curve" smooth="yes"/>
      <point x="438.7692307692308" y="653.2692307692307"/>
      <point x="430.7692307692308" y="662.8461538461538"/>
      <point x="418.1923076923077" y="670.7115384615385" type="curve" smooth="yes"/>
      <point x="386.0576923076923" y="692.4230769230769"/>
      <point x="322.65384615384613" y="706.5769230769231"/>
      <point x="272.28846153846155" y="706.5769230769231" type="curve" smooth="yes"/>
      <point x="143.19230769230768" y="706.5769230769231"/>
      <point x="45.96153846153846" y="635.0576923076923"/>
      <point x="45.96153846153846" y="516.6730769230769" type="curve" smooth="yes"/>
      <point x="45.96153846153846" y="388.84615384615387"/>
      <point x="128.32692307692307" y="351.5192307692308"/>
      <point x="208.71153846153845" y="318.5192307692308" type="curve" smooth="yes"/>
      <point x="284.99038461538464" y="286.9326923076923"/>
      <point x="360.5769230769231" y="263.6730769230769"/>
      <point x="360.5769230769231" y="189.44230769230768" type="curve" smooth="yes"/>
      <point x="360.5769230769231" y="122.48076923076923"/>
      <point x="306.7307692307692" y="85.28846153846153"/>
      <point x="240.25" y="85.28846153846153" type="curve" smooth="yes"/>
      <point x="172.01923076923077" y="85.28846153846153"/>
      <point x="125.1923076923077" y="109.84615384615384"/>
      <point x="98.48076923076923" y="124.26923076923077" type="curve" smooth="yes"/>
      <point x="87.61538461538461" y="130.55769230769232"/>
      <point x="80.03846153846153" y="134.84615384615384"/>
      <point x="75.46153846153847" y="134.84615384615384" type="curve" smooth="yes"/>
      <point x="61.57692307692308" y="134.84615384615384"/>
      <point x="32.67307692307692" y="91.07692307692308"/>
      <point x="32.67307692307692" y="70.75" type="curve" smooth="yes"/>
      <point x="32.67307692307692" y="62.59615384615385"/>
      <point x="40.25" y="52.15384615384615"/>
      <point x="54.26923076923077" y="42.0" type="curve" smooth="yes"/>
      <point x="87.42307692307692" y="17.423076923076923"/>
      <point x="158.1346153846154" y="-6.576923076923077"/>
    </contour>
  </outline>
</glyph>
<glyph name="T" format="2">
  <advance width="549.0"/>
  <unicode hex="0054"/>
  <anchor x="272.11538461538464" y="0.0" name="bottom"/>
  <anchor x="275.0" y="350.0" name="center"/>
  <anchor x="275.0" y="700.0" name="top"/>
  <outline>
    <contour>
      <point x="267.6730769230769" y="-2.0" type="curve" smooth="yes"/>
      <point x="283.46153846153845" y="-2.0" type="line" smooth="yes"/>
      <point x="315.5" y="-2.0"/>
      <point x="329.2307692307692" y="6.865384615384615"/>
      <point x="329.2307692307692" y="22.884615384615383" type="curve" smooth="yes"/>
      <point x="329.2307692307692" y="608.1346153846154" type="line"/>
      <point x="509.5769230769231" y="608.1346153846154" type="line" smooth="yes"/>
      <point x="525.5961538461538" y="608.1346153846154"/>
      <point x="532.4615384615385" y="618.8653846153846"/>
      <point x="532.4615384615385" y="643.9038461538462" type="curve" smooth="yes"/>
      <point x="532.4615384615385" y="664.2307692307693" type="line" smooth="yes"/>
      <point x="532.4615384615385" y="689.2692307692307"/>
      <point x="525.5961538461538" y="700.0"/>
      <point x="509.5769230769231" y="700.0" type="curve" smooth="yes"/>
      <point x="39.42307692307692" y="700.0" type="line" smooth="yes"/>
      <point x="23.403846153846153" y="700.0"/>
      <point x="16.53846153846154" y="689.2692307692307"/>
      <point x="16.53846153846154" y="664.2307692307693" type="curve" smooth="yes"/>
      <point x="16.53846153846154" y="643.9038461538462" type="line" smooth="yes"/>
      <point x="16.53846153846154" y="618.8653846153846"/>
      <point x="23.403846153846153" y="608.1346153846154"/>
      <point x="39.42307692307692" y="608.1346153846154" type="curve" smooth="yes"/>
      <point x="221.90384615384616" y="608.1346153846154" type="line"/>
      <point x="221.90384615384616" y="22.884615384615383" type="line" smooth="yes"/>
      <point x="221.90384615384616" y="6.865384615384615"/>
      <point x="235.6346153846154" y="-2.0"/>
    </contour>
  </outline>
</glyph>
<glyph name="U" format="2">
  <advance width="712.0"/>
  <unicode hex="0055"/>
  <anchor x="356.71153846153845" y="0.0" name="bottom"/>
  <anchor x="572.9230769230769" y="702.0" name="horn"/>
  <anchor x="410.34615384615387" y="0.0" name="ogonek"/>
  <anchor x="356.0" y="700.0" name="top"/>
  <outline>
    <contour>
      <point x="356.0" y="-6.576923076923077" type="curve" smooth="yes"/>
      <point x="534.0192307692307" y="-6.576923076923077"/>
      <point x="633.9038461538462" y="80.0"/>
      <point x="633.9038461538462" y="226.8846153846154" type="curve" smooth="yes"/>
      <point x="633.9038461538462" y="677.1153846153846" type="line" smooth="yes"/>
      <point x="633.9038461538462" y="693.1346153846154"/>
      <point x="620.1730769230769" y="702.0"/>
      <point x="588.1346153846154" y="702.0" type="curve" smooth="yes"/>
      <point x="572.9230769230769" y="702.0" type="line" smooth="yes"/>
      <point x="540.8846153846154" y="702.0"/>
      <point x="527.1538461538462" y="693.1346153846154"/>
      <point x="527.1538461538462" y="677.1153846153846" type="curve" smooth="yes"/>
      <point x="527.1538461538462" y="227.6346153846154" type="line" smooth="yes"/>
      <point x="527.1538461538462" y="144.82692307692307"/>
      <point x="455.5" y="85.28846153846153"/>
      <point x="356.0" y="85.28846153846153" type="curve" smooth="yes"/>
      <point x="257.21153846153845" y="85.28846153846153"/>
      <point x="185.1346153846154" y="144.1153846153846"/>
      <point x="185.1346153846154" y="227.6346153846154" type="curve" smooth="yes"/>
      <point x="185.1346153846154" y="677.1153846153846" type="line" smooth="yes"/>
      <point x="185.1346153846154" y="693.1346153846154"/>
      <point x="171.40384615384616" y="702.0"/>
      <point x="139.3653846153846" y="702.0" type="curve" smooth="yes"/>
      <point x="123.86538461538461" y="702.0" type="line" smooth="yes"/>
      <point x="91.82692307692308" y="702.0"/>
      <point x="78.09615384615384" y="693.1346153846154"/>
      <point x="78.09615384615384" y="677.1153846153846" type="curve" smooth="yes"/>
      <point x="78.09615384615384" y="226.8846153846154" type="line" smooth="yes"/>
      <point x="78.09615384615384" y="80.0"/>
      <point x="177.26923076923077" y="-6.576923076923077"/>
    </contour>
  </outline>
</glyph>
<glyph name="V" format="2">
  <advance width="617.0"/>
  <unicode hex="0056"/>
  <outline>
    <contour>
      <point x="290.11538461538464" y="-2.0" type="curve" smooth="yes"/>
      <point x="327.1730769230769" y="-2.0" type="line" smooth="yes"/>
      <point x="349.7692307692308" y="-2.0"/>
      <point x="367.5" y="2.2884615384615383"/>
      <point x="371.78846153846155" y="15.442307692307692" type="curve" smooth="yes"/>
      <point x="597.0384615384615" y="668.4038461538462" type="line" smooth="yes"/>
      <point x="599.0384615384615" y="674.6923076923077"/>
      <point x="600.0384615384615" y="679.2692307692307"/>
      <point x="600.0384615384615" y="683.5576923076923" type="curve" smooth="yes"/>
      <point x="600.0384615384615" y="695.4230769230769"/>
      <point x="585.5961538461538" y="702.0"/>
      <point x="552.1346153846154" y="702.0" type="curve" smooth="yes"/>
      <point x="539.5" y="702.0" type="line" smooth="yes"/>
      <point x="516.9038461538462" y="702.0"/>
      <point x="498.88461538461536" y="696.8461538461538"/>
      <point x="494.0192307692308" y="682.25" type="curve" smooth="yes"/>
      <point x="337.5576923076923" y="220.5" type="line" smooth="yes"/>
      <point x="327.5576923076923" y="189.9230769230769"/>
      <point x="318.2692307692308" y="153.76923076923077"/>
      <point x="312.71153846153845" y="124.51923076923077" type="curve"/>
      <point x="309.4230769230769" y="124.51923076923077" type="line"/>
      <point x="305.28846153846155" y="150.21153846153845"/>
      <point x="296.71153846153845" y="185.65384615384616"/>
      <point x="285.28846153846155" y="219.78846153846155" type="curve" smooth="yes"/>
      <point x="127.84615384615384" y="682.25" type="line" smooth="yes"/>
      <point x="122.98076923076923" y="697.1346153846154"/>
      <point x="104.96153846153845" y="702.0"/>
      <point x="82.36538461538461" y="702.0" type="curve" smooth="yes"/>
      <point x="65.15384615384616" y="702.0" type="line" smooth="yes"/>
      <point x="31.692307692307693" y="702.0"/>
      <point x="16.96153846153846" y="694.7115384615385"/>
      <point x="16.96153846153846" y="683.5576923076923" type="curve" smooth="yes"/>
      <point x="16.96153846153846" y="679.2692307692307"/>
      <point x="18.25" y="674.6923076923077"/>
      <point x="20.25" y="669.1153846153846" type="curve" smooth="yes"/>
      <point x="245.5" y="15.442307692307692" type="line" smooth="yes"/>
      <point x="249.78846153846155" y="2.2884615384615383"/>
      <point x="267.5192307692308" y="-2.0"/>
    </contour>
  </outline>
</glyph>
<glyph name="W" format="2">
  <advance width="910.0"/>
  <unicode hex="0057"/>
  <anchor x="456.15384615384613" y="700.0" name="top"/>
  <outline>
    <contour>
      <point x="237.80769230769232" y="-2.0" type="curve" smooth="yes"/>
      <point x="287.75" y="-2.0" type="line" smooth="yes"/>
      <point x="310.0576923076923" y="-2.0"/>
      <point x="329.0769230769231" y="2.8653846153846154"/>
      <point x="332.65384615384613" y="17.173076923076923" type="curve" smooth="yes"/>
      <point x="428.5769230769231" y="383.96153846153845" type="line" smooth="yes"/>
      <point x="437.13461538461536" y="416.21153846153845"/>
      <point x="446.84615384615387" y="477.3269230769231"/>
      <point x="452.0" y="525.6153846153846" type="curve"/>
      <point x="456.0" y="525.6153846153846" type="line"/>
      <point x="461.7307692307692" y="472.5769230769231"/>
      <point x="474.28846153846155" y="401.5"/>
      <point x="485.53846153846155" y="359.7692307692308" type="curve" smooth="yes"/>
      <point x="574.4807692307693" y="16.884615384615383" type="line" smooth="yes"/>
      <point x="577.7692307692307" y="2.8653846153846154"/>
      <point x="596.7884615384615" y="-2.0"/>
      <point x="619.0961538461538" y="-2.0" type="curve" smooth="yes"/>
      <point x="669.3269230769231" y="-2.0" type="line" smooth="yes"/>
      <point x="691.6346153846154" y="-2.0"/>
      <point x="710.6538461538462" y="2.8653846153846154"/>
      <point x="714.2307692307693" y="16.884615384615383" type="curve" smooth="yes"/>
      <point x="883.7692307692307" y="668.1153846153846" type="line" smooth="yes"/>
      <point x="885.0576923076923" y="672.6923076923077"/>
      <point x="886.4807692307693" y="679.8269230769231"/>
      <point x="886.4807692307693" y="682.4038461538462" type="curve" smooth="yes"/>
      <point x="886.4807692307693" y="694.8461538461538"/>
      <point x="871.75" y="702.0"/>
      <point x="838.0" y="702.0" type="curve" smooth="yes"/>
      <point x="830.5576923076923" y="702.0" type="line" smooth="yes"/>
      <point x="805.0769230769231" y="702.0"/>
      <point x="786.3461538461538" y="696.2692307692307"/>
      <point x="782.7692307692307" y="681.6730769230769" type="curve" smooth="yes"/>
      <point x="674.4615384615385" y="240.71153846153845" type="line" smooth="yes"/>
      <point x="666.1538461538462" y="207.75"/>
      <point x="655.4230769230769" y="154.6346153846154"/>
      <point x="649.0" y="117.4423076923077" type="curve"/>
      <point x="645.0" y="117.4423076923077" type="line"/>
      <point x="642.0" y="152.90384615384616"/>
      <point x="630.8461538461538" y="215.98076923076923"/>
      <point x="618.9807692307693" y="264.3269230769231" type="curve" smooth="yes"/>
      <point x="514.3653846153846" y="683.8461538461538" type="line" smooth="yes"/>
      <point x="511.0769230769231" y="697.7115384615385"/>
      <point x="494.21153846153845" y="702.0"/>
      <point x="470.75" y="702.0" type="curve" smooth="yes"/>
      <point x="448.40384615384613" y="702.0" type="line" smooth="yes"/>
      <point x="424.9423076923077" y="702.0"/>
      <point x="408.0769230769231" y="697.7115384615385"/>
      <point x="404.78846153846155" y="683.8461538461538" type="curve" smooth="yes"/>
      <point x="295.03846153846155" y="241.1346153846154" type="line" smooth="yes"/>
      <point x="285.88461538461536" y="204.80769230769232"/>
      <point x="276.5769230769231" y="158.09615384615384"/>
      <point x="268.5769230769231" y="117.4423076923077" type="curve"/>
      <point x="264.5769230769231" y="117.4423076923077" type="line"/>
      <point x="261.5769230769231" y="155.23076923076923"/>
      <point x="250.28846153846155" y="218.73076923076923"/>
      <point x="239.28846153846155" y="264.3269230769231" type="curve" smooth="yes"/>
      <point x="134.40384615384616" y="681.6730769230769" type="line" smooth="yes"/>
      <point x="130.82692307692307" y="696.2692307692307"/>
      <point x="112.09615384615384" y="702.0"/>
      <point x="86.61538461538461" y="702.0" type="curve" smooth="yes"/>
      <point x="72.0" y="702.0" type="line" smooth="yes"/>
      <point x="38.25" y="702.0"/>
      <point x="23.51923076923077" y="694.1346153846154"/>
      <point x="23.51923076923077" y="682.4038461538462" type="curve" smooth="yes"/>
      <point x="23.51923076923077" y="678.4038461538462"/>
      <point x="25.230769230769234" y="672.6923076923077"/>
      <point x="26.230769230769234" y="668.1153846153846" type="curve" smooth="yes"/>
      <point x="193.19230769230768" y="16.884615384615383" type="line" smooth="yes"/>
      <point x="196.76923076923077" y="2.8653846153846154"/>
      <point x="214.34615384615384" y="-2.0"/>
    </contour>
  </outline>
</glyph>
<glyph name="X" format="2">
  <advance width="611.0"/>
  <unicode hex="0058"/>
  <outline>
    <contour>
      <point x="67.4423076923077" y="-2.0" type="curve" smooth="yes"/>
      <point x="84.09615384615384" y="-2.0" type="line" smooth="yes"/>
      <point x="105.26923076923077" y="-2.0"/>
      <point x="123.84615384615384" y="0.42307692307692313"/>
      <point x="132.28846153846155" y="13.442307692307692" type="curve" smooth="yes"/>
      <point x="304.4423076923077" y="271.84615384615387" type="line"/>
      <point x="473.7307692307692" y="14.153846153846153" type="line" smooth="yes"/>
      <point x="482.0192307692308" y="1.2884615384615383"/>
      <point x="498.3269230769231" y="-2.0"/>
      <point x="521.6346153846154" y="-2.0" type="curve" smooth="yes"/>
      <point x="544.2692307692307" y="-2.0" type="line" smooth="yes"/>
      <point x="581.1538461538462" y="-2.0"/>
      <point x="595.1730769230769" y="4.288461538461538"/>
      <point x="595.1730769230769" y="15.576923076923077" type="curve" smooth="yes"/>
      <point x="595.1730769230769" y="21.153846153846153"/>
      <point x="592.1730769230769" y="27.73076923076923"/>
      <point x="586.8846153846154" y="35.59615384615385" type="curve" smooth="yes"/>
      <point x="369.09615384615387" y="367.9807692307692" type="line"/>
      <point x="565.9230769230769" y="664.4038461538462" type="line" smooth="yes"/>
      <point x="571.0" y="672.2692307692307"/>
      <point x="574.5" y="679.1346153846154"/>
      <point x="574.5" y="684.4230769230769" type="curve" smooth="yes"/>
      <point x="574.5" y="696.4230769230769"/>
      <point x="559.4807692307693" y="702.0"/>
      <point x="523.5961538461538" y="702.0" type="curve" smooth="yes"/>
      <point x="508.0769230769231" y="702.0" type="line" smooth="yes"/>
      <point x="486.90384615384613" y="702.0"/>
      <point x="468.03846153846155" y="699.2884615384615"/>
      <point x="459.88461538461536" y="686.5576923076923" type="curve" smooth="yes"/>
      <point x="307.86538461538464" y="460.71153846153845" type="line"/>
      <point x="161.1346153846154" y="685.8461538461538" type="line" smooth="yes"/>
      <point x="152.84615384615384" y="698.7115384615385"/>
      <point x="136.53846153846155" y="702.0"/>
      <point x="113.23076923076923" y="702.0" type="curve" smooth="yes"/>
      <point x="91.4423076923077" y="702.0" type="line" smooth="yes"/>
      <point x="54.55769230769231" y="702.0"/>
      <point x="40.25" y="695.4230769230769"/>
      <point x="40.25" y="684.4230769230769" type="curve" smooth="yes"/>
      <point x="40.25" y="678.8461538461538"/>
      <point x="43.53846153846154" y="672.2692307692307"/>
      <point x="48.82692307692308" y="664.4038461538462" type="curve" smooth="yes"/>
      <point x="243.92307692307693" y="365.0" type="line"/>
      <point x="25.115384615384617" y="35.59615384615385" type="line" smooth="yes"/>
      <point x="19.53846153846154" y="27.442307692307693"/>
      <point x="16.53846153846154" y="20.865384615384617"/>
      <point x="16.53846153846154" y="15.576923076923077" type="curve" smooth="yes"/>
      <point x="16.53846153846154" y="3.5769230769230766"/>
      <point x="31.26923076923077" y="-2.0"/>
    </contour>
  </outline>
</glyph>
<glyph name="Y" format="2">
  <advance width="559.0"/>
  <unicode hex="0059"/>
  <anchor x="279.86538461538464" y="0.0" name="bottom"/>
  <anchor x="280.0" y="700.0" name="top"/>
  <outline>
    <contour>
      <point x="271.53846153846155" y="-2.0" type="curve" smooth="yes"/>
      <point x="287.03846153846155" y="-2.0" type="line" smooth="yes"/>
      <point x="319.0769230769231" y="-2.0"/>
      <point x="332.8076923076923" y="6.865384615384615"/>
      <point x="332.8076923076923" y="22.884615384615383" type="curve" smooth="yes"/>
      <point x="332.8076923076923" y="349.36538461538464" type="line"/>
      <point x="539.6346153846154" y="664.1153846153846" type="line" smooth="yes"/>
      <point x="544.5673076923077" y="671.9807692307693"/>
      <point x="547.9230769230769" y="678.8461538461538"/>
      <point x="547.9230769230769" y="684.1346153846154" type="curve" smooth="yes"/>
      <point x="547.9230769230769" y="695.4230769230769"/>
      <point x="534.6153846153846" y="701.2884615384615"/>
      <point x="502.0" y="702.0" type="curve"/>
      <point x="486.63461538461536" y="702.0" type="line"/>
      <point x="464.03846153846155" y="702.0"/>
      <point x="444.88461538461536" y="698.7115384615385"/>
      <point x="437.3076923076923" y="686.5576923076923" type="curve" smooth="yes"/>
      <point x="282.28846153846155" y="449.0769230769231" type="line"/>
      <point x="130.40384615384616" y="685.8461538461538" type="line" smooth="yes"/>
      <point x="122.11538461538461" y="698.7115384615385"/>
      <point x="105.8076923076923" y="702.0"/>
      <point x="82.5" y="702.0" type="curve" smooth="yes"/>
      <point x="62.26923076923077" y="702.0" type="line" smooth="yes"/>
      <point x="25.384615384615387" y="702.0"/>
      <point x="11.076923076923077" y="695.4230769230769"/>
      <point x="11.076923076923077" y="684.1346153846154" type="curve" smooth="yes"/>
      <point x="11.076923076923077" y="678.8461538461538"/>
      <point x="14.365384615384617" y="671.9807692307693"/>
      <point x="19.653846153846153" y="664.1153846153846" type="curve" smooth="yes"/>
      <point x="225.76923076923077" y="352.36538461538464" type="line"/>
      <point x="225.76923076923077" y="22.884615384615383" type="line" smooth="yes"/>
      <point x="225.76923076923077" y="6.865384615384615"/>
      <point x="239.5" y="-2.0"/>
    </contour>
  </outline>
</glyph>
<glyph name="Z" format="2">
  <advance width="616.0"/>
  <unicode hex="005A"/>
  <anchor x="312.5192307692308" y="0.0" name="bottom"/>
  <anchor x="308.0" y="700.0" name="top"/>
  <outline>
    <contour>
      <point x="63.15384615384615" y="0.0" type="curve"/>
      <point x="549.2884615384615" y="0.0" type="line" smooth="yes"/>
      <point x="565.3076923076923" y="0.0"/>
      <point x="572.1730769230769" y="11.442307692307692"/>
      <point x="572.1730769230769" y="38.61538461538461" type="curve" smooth="yes"/>
      <point x="572.1730769230769" y="53.25" type="line" smooth="yes"/>
      <point x="572.1730769230769" y="80.42307692307692"/>
      <point x="565.3076923076923" y="91.86538461538461"/>
      <point x="549.2884615384615" y="91.86538461538461" type="curve" smooth="yes"/>
      <point x="183.09615384615384" y="91.86538461538461" type="line"/>
      <point x="570.0192307692307" y="623.1730769230769" type="line" smooth="yes"/>
      <point x="572.5961538461538" y="626.75"/>
      <point x="573.5961538461538" y="631.0384615384615"/>
      <point x="573.5961538461538" y="635.75" type="curve" smooth="yes"/>
      <point x="573.5961538461538" y="658.1923076923077"/>
      <point x="556.8653846153846" y="700.0"/>
      <point x="547.2692307692307" y="700.0" type="curve" smooth="yes"/>
      <point x="89.5576923076923" y="700.0" type="line" smooth="yes"/>
      <point x="73.53846153846153" y="700.0"/>
      <point x="66.67307692307692" y="688.5576923076923"/>
      <point x="66.67307692307692" y="661.3846153846154" type="curve" smooth="yes"/>
      <point x="66.67307692307692" y="646.75" type="line" smooth="yes"/>
      <point x="66.67307692307692" y="619.5769230769231"/>
      <point x="73.53846153846153" y="608.1346153846154"/>
      <point x="89.5576923076923" y="608.1346153846154" type="curve" smooth="yes"/>
      <point x="425.90384615384613" y="608.1346153846154" type="line"/>
      <point x="37.53846153846154" y="74.8076923076923" type="line" smooth="yes"/>
      <point x="35.82692307692308" y="72.09615384615384"/>
      <point x="34.82692307692308" y="68.09615384615384"/>
      <point x="34.82692307692308" y="63.38461538461539" type="curve" smooth="yes"/>
      <point x="34.82692307692308" y="41.36538461538461"/>
      <point x="51.13461538461539" y="0.0"/>
    </contour>
  </outline>
</glyph>
<glyph name="bracketleft" format="2">
  <advance width="291.0"/>
  <unicode hex="005B"/>
  <outline>
    <contour>
      <point x="115.67307692307692" y="-138.0" type="curve" smooth="yes"/>
      <point x="238.1153846153846" y="-138.0" type="line" smooth="yes"/>
      <point x="254.1346153846154" y="-138.0"/>
      <point x="261.0" y="-128.84615384615384"/>
      <point x="261.0" y="-105.82692307692308" type="curve" smooth="yes"/>
      <point x="261.0" y="-98.65384615384616" type="line" smooth="yes"/>
      <point x="261.0" y="-75.63461538461539"/>
      <point x="254.1346153846154" y="-66.48076923076923"/>
      <point x="238.1153846153846" y="-66.48076923076923" type="curve" smooth="yes"/>
      <point x="168.6153846153846" y="-66.48076923076923" type="line"/>
      <point x="168.6153846153846" y="695.7692307692307" type="line"/>
      <point x="238.1153846153846" y="695.7692307692307" type="line" smooth="yes"/>
      <point x="254.1346153846154" y="695.7692307692307"/>
      <point x="261.0" y="704.9230769230769"/>
      <point x="261.0" y="727.9423076923077" type="curve" smooth="yes"/>
      <point x="261.0" y="735.8269230769231" type="line" smooth="yes"/>
      <point x="261.0" y="758.8461538461538"/>
      <point x="254.1346153846154" y="768.0"/>
      <point x="238.1153846153846" y="768.0" type="curve" smooth="yes"/>
      <point x="115.67307692307692" y="768.0" type="line" smooth="yes"/>
      <point x="92.65384615384616" y="768.0"/>
      <point x="82.78846153846153" y="758.1346153846154"/>
      <point x="82.78846153846153" y="735.1153846153846" type="curve" smooth="yes"/>
      <point x="82.78846153846153" y="-105.11538461538461" type="line" smooth="yes"/>
      <point x="82.78846153846153" y="-128.1346153846154"/>
      <point x="92.65384615384616" y="-138.0"/>
    </contour>
  </outline>
</glyph>
<glyph name="backslash" format="2">
  <advance width="422.0"/>
  <unicode hex="005C"/>
  <outline>
    <contour>
      <point x="362.8269230769231" y="-76.86538461538461" type="curve" smooth="yes"/>
      <point x="370.86538461538464" y="-76.86538461538461" type="line" smooth="yes"/>
      <point x="393.0576923076923" y="-76.86538461538461"/>
      <point x="403.5" y="-73.0"/>
      <point x="403.5" y="-61.57692307692308" type="curve" smooth="yes"/>
      <point x="403.5" y="-55.73076923076923"/>
      <point x="398.78846153846155" y="-45.30769230769231"/>
      <point x="394.78846153846155" y="-35.30769230769231" type="curve" smooth="yes"/>
      <point x="100.09615384615384" y="678.4230769230769" type="line" smooth="yes"/>
      <point x="92.09615384615384" y="698.1346153846154"/>
      <point x="79.92307692307692" y="702.7115384615385"/>
      <point x="56.03846153846154" y="702.7115384615385" type="curve" smooth="yes"/>
      <point x="49.44230769230769" y="702.7115384615385" type="line" smooth="yes"/>
      <point x="25.96153846153846" y="702.7115384615385"/>
      <point x="18.5" y="697.4230769230769"/>
      <point x="18.5" y="686.7115384615385" type="curve" smooth="yes"/>
      <point x="18.5" y="682.0"/>
      <point x="22.346153846153847" y="670.1730769230769"/>
      <point x="29.057692307692307" y="654.75" type="curve" smooth="yes"/>
      <point x="324.03846153846155" y="-58.98076923076923" type="line" smooth="yes"/>
      <point x="329.90384615384613" y="-73.57692307692308"/>
      <point x="341.78846153846155" y="-76.86538461538461"/>
    </contour>
  </outline>
</glyph>
<glyph name="bracketright" format="2">
  <advance width="291.0"/>
  <unicode hex="005D"/>
  <outline>
    <contour>
      <point x="53.17307692307692" y="-138.0" type="curve" smooth="yes"/>
      <point x="175.6153846153846" y="-138.0" type="line" smooth="yes"/>
      <point x="198.6346153846154" y="-138.0"/>
      <point x="208.5" y="-128.1346153846154"/>
      <point x="208.5" y="-105.11538461538461" type="curve" smooth="yes"/>
      <point x="208.5" y="735.1153846153846" type="line" smooth="yes"/>
      <point x="208.5" y="758.1346153846154"/>
      <point x="198.6346153846154" y="768.0"/>
      <point x="175.6153846153846" y="768.0" type="curve" smooth="yes"/>
      <point x="53.17307692307692" y="768.0" type="line" smooth="yes"/>
      <point x="37.15384615384615" y="768.0"/>
      <point x="30.28846153846154" y="758.8461538461538"/>
      <point x="30.28846153846154" y="735.8269230769231" type="curve" smooth="yes"/>
      <point x="30.28846153846154" y="727.9423076923077" type="line" smooth="yes"/>
      <point x="30.28846153846154" y="704.9230769230769"/>
      <point x="37.15384615384615" y="695.7692307692307"/>
      <point x="53.17307692307692" y="695.7692307692307" type="curve" smooth="yes"/>
      <point x="122.67307692307692" y="695.7692307692307" type="line"/>
      <point x="122.67307692307692" y="-66.48076923076923" type="line"/>
      <point x="53.17307692307692" y="-66.48076923076923" type="line" smooth="yes"/>
      <point x="37.15384615384615" y="-66.48076923076923"/>
      <point x="30.28846153846154" y="-75.63461538461539"/>
      <point x="30.28846153846154" y="-98.65384615384616" type="curve" smooth="yes"/>
      <point x="30.28846153846154" y="-105.82692307692308" type="line" smooth="yes"/>
      <point x="30.28846153846154" y="-128.84615384615384"/>
      <point x="37.15384615384615" y="-138.0"/>
    </contour>
  </outline>
</glyph>
<glyph name="asciicircum" format="2">
  <advance width="450.0"/>
  <unicode hex="005E"/>
  <outline>
    <contour>
      <point x="76.25" y="319.4230769230769" type="curve"/>
      <point x="85.15384615384616" y="319.4230769230769" type="line" smooth="yes"/>
      <point x="104.75" y="319.4230769230769"/>
      <point x="116.48076923076923" y="327.0"/>
      <point x="124.0576923076923" y="344.4423076923077" type="curve" smooth="yes"/>
      <point x="225.0" y="589.8653846153846" type="line"/>
      <point x="325.2307692307692" y="344.4423076923077" type="line" smooth="yes"/>
      <point x="332.4519230769231" y="327.0"/>
      <point x="345.53846153846155" y="319.4230769230769"/>
      <point x="365.13461538461536" y="319.4230769230769" type="curve" smooth="yes"/>
      <point x="374.03846153846155" y="319.4230769230769" type="line" smooth="yes"/>
      <point x="392.4807692307692" y="319.4230769230769"/>
      <point x="402.4807692307692" y="326.84615384615387"/>
      <point x="402.4807692307692" y="338.6923076923077" type="curve" smooth="yes"/>
      <point x="402.4807692307692" y="342.6923076923077"/>
      <point x="401.33653846153845" y="347.6923076923077"/>
      <point x="399.1923076923077" y="352.9807692307692" type="curve" smooth="yes"/>
      <point x="273.03846153846155" y="661.6923076923077" type="line" smooth="yes"/>
      <point x="265.96153846153845" y="678.8461538461538"/>
      <point x="254.59615384615384" y="684.5769230769231"/>
      <point x="236.73076923076923" y="684.5769230769231" type="curve" smooth="yes"/>
      <point x="213.55769230769232" y="684.5769230769231" type="line" smooth="yes"/>
      <point x="195.40384615384616" y="684.5769230769231"/>
      <point x="184.18269230769232" y="678.8461538461538"/>
      <point x="177.25" y="661.6923076923077" type="curve" smooth="yes"/>
      <point x="51.09615384615385" y="352.9807692307692" type="line" smooth="yes"/>
      <point x="48.95192307692308" y="347.6923076923077"/>
      <point x="47.80769230769231" y="342.6923076923077"/>
      <point x="47.80769230769231" y="338.6923076923077" type="curve" smooth="yes"/>
      <point x="47.80769230769231" y="326.84615384615387"/>
      <point x="57.80769230769231" y="319.4230769230769"/>
    </contour>
  </outline>
</glyph>
<glyph name="underscore" format="2">
  <advance width="535.0"/>
  <unicode hex="005F"/>
  <outline>
    <contour>
      <point x="2.884615384615384" y="-138.0" type="curve" smooth="yes"/>
      <point x="532.8269230769231" y="-138.0" type="line" smooth="yes"/>
      <point x="548.8461538461538" y="-138.0"/>
      <point x="555.7115384615385" y="-129.40384615384616"/>
      <point x="555.7115384615385" y="-109.34615384615384" type="curve" smooth="yes"/>
      <point x="555.7115384615385" y="-101.63461538461539" type="line" smooth="yes"/>
      <point x="555.7115384615385" y="-81.57692307692308"/>
      <point x="548.8461538461538" y="-72.98076923076923"/>
      <point x="532.8269230769231" y="-72.98076923076923" type="curve" smooth="yes"/>
      <point x="2.884615384615384" y="-72.98076923076923" type="line" smooth="yes"/>
      <point x="-13.134615384615385" y="-72.98076923076923"/>
      <point x="-20.0" y="-81.57692307692308"/>
      <point x="-20.0" y="-101.63461538461539" type="curve" smooth="yes"/>
      <point x="-20.0" y="-109.34615384615384" type="line" smooth="yes"/>
      <point x="-20.0" y="-129.40384615384616"/>
      <point x="-13.134615384615385" y="-138.0"/>
    </contour>
  </outline>
</glyph>
<glyph name="grave" format="2">
  <advance width="169.65384615384616"/>
  <unicode hex="0060"/>
  <outline>
    <contour>
      <point x="142.17307692307693" y="574.8461538461538" type="curve" smooth="yes"/>
      <point x="162.65384615384616" y="574.8461538461538"/>
      <point x="169.65384615384616" y="580.1346153846154"/>
      <point x="169.65384615384616" y="588.4230769230769" type="curve" smooth="yes"/>
      <point x="169.65384615384616" y="594.7115384615385"/>
      <point x="164.65384615384616" y="602.8461538461538"/>
      <point x="158.07692307692307" y="615.7115384615385" type="curve" smooth="yes"/>
      <point x="118.07692307692308" y="690.5576923076923" type="line" smooth="yes"/>
      <point x="107.92307692307692" y="709.5769230769231"/>
      <point x="97.21153846153847" y="718.0"/>
      <point x="49.44230769230769" y="718.0" type="curve" smooth="yes"/>
      <point x="16.846153846153847" y="718.0"/>
      <point x="0.0" y="714.0"/>
      <point x="0.0" y="701.7115384615385" type="curve" smooth="yes"/>
      <point x="0.0" y="692.1346153846154"/>
      <point x="7.0" y="680.8461538461538"/>
      <point x="24.692307692307693" y="661.4423076923077" type="curve" smooth="yes"/>
      <point x="79.5576923076923" y="600.5769230769231" type="line" smooth="yes"/>
      <point x="99.13461538461539" y="579.0"/>
      <point x="114.59615384615384" y="574.8461538461538"/>
    </contour>
  </outline>
</glyph>
<glyph name="a" format="2">
  <advance width="545.0"/>
  <unicode hex="0061"/>
  <anchor x="264.46153846153845" y="0.0" name="bottom"/>
  <anchor x="466.6923076923077" y="0.28846153846153844" name="ogonek"/>
  <anchor x="273.0" y="523.0" name="top"/>
  <outline>
    <contour>
      <point x="211.34615384615384" y="-6.576923076923077" type="curve" smooth="yes"/>
      <point x="291.25" y="-6.576923076923077"/>
      <point x="344.2307692307692" y="35.07692307692308"/>
      <point x="373.28846153846155" y="68.71153846153847" type="curve"/>
      <point x="379.28846153846155" y="41.0"/>
      <point x="383.4230769230769" y="-1.0"/>
      <point x="409.7307692307692" y="-1.0" type="curve" smooth="yes"/>
      <point x="426.1923076923077" y="-1.0"/>
      <point x="480.46153846153845" y="4.153846153846153"/>
      <point x="480.46153846153845" y="24.596153846153847" type="curve" smooth="yes"/>
      <point x="480.46153846153845" y="34.21153846153846"/>
      <point x="468.46153846153845" y="68.01923076923077"/>
      <point x="468.46153846153845" y="156.07692307692307" type="curve" smooth="yes"/>
      <point x="468.46153846153845" y="369.6923076923077" type="line" smooth="yes"/>
      <point x="468.46153846153845" y="468.11538461538464"/>
      <point x="400.0769230769231" y="529.5769230769231"/>
      <point x="266.2692307692308" y="529.5769230769231" type="curve" smooth="yes"/>
      <point x="163.09615384615384" y="529.5769230769231"/>
      <point x="77.40384615384616" y="492.4423076923077"/>
      <point x="77.40384615384616" y="464.13461538461536" type="curve" smooth="yes"/>
      <point x="77.40384615384616" y="450.25"/>
      <point x="101.28846153846153" y="405.4807692307692"/>
      <point x="117.3076923076923" y="405.4807692307692" type="curve" smooth="yes"/>
      <point x="127.88461538461539" y="405.4807692307692"/>
      <point x="179.42307692307693" y="444.59615384615387"/>
      <point x="265.2307692307692" y="444.59615384615387" type="curve" smooth="yes"/>
      <point x="340.15384615384613" y="444.59615384615387"/>
      <point x="366.0" y="411.36538461538464"/>
      <point x="366.0" y="368.38461538461536" type="curve" smooth="yes"/>
      <point x="366.0" y="325.4230769230769" type="line"/>
      <point x="183.8653846153846" y="324.0"/>
      <point x="46.98076923076923" y="286.1730769230769"/>
      <point x="46.98076923076923" y="142.26923076923077" type="curve" smooth="yes"/>
      <point x="46.98076923076923" y="45.32692307692308"/>
      <point x="111.17307692307692" y="-6.576923076923077"/>
    </contour>
    <contour>
      <point x="228.32692307692307" y="79.11538461538461" type="curve" smooth="yes"/>
      <point x="178.96153846153845" y="79.11538461538461"/>
      <point x="153.42307692307693" y="105.23076923076923"/>
      <point x="153.42307692307693" y="150.15384615384616" type="curve" smooth="yes"/>
      <point x="153.42307692307693" y="238.0"/>
      <point x="264.59615384615387" y="245.5"/>
      <point x="366.0" y="246.21153846153845" type="curve"/>
      <point x="366.0" y="146.3846153846154" type="line"/>
      <point x="332.9230769230769" y="110.38461538461539"/>
      <point x="291.2307692307692" y="79.11538461538461"/>
    </contour>
  </outline>
</glyph>
<glyph name="b" format="2">
  <advance width="569.0"/>
  <unicode hex="0062"/>
  <outline>
    <contour>
      <point x="326.4807692307692" y="-6.576923076923077" type="curve" smooth="yes"/>
      <point x="443.0192307692308" y="-6.576923076923077"/>
      <point x="518.4615384615385" y="100.8076923076923"/>
      <point x="518.4615384615385" y="262.0" type="curve" smooth="yes"/>
      <point x="518.4615384615385" y="432.11538461538464"/>
      <point x="436.7692307692308" y="529.5769230769231"/>
      <point x="313.15384615384613" y="529.5769230769231" type="curve" smooth="yes"/>
      <point x="255.48076923076923" y="529.5769230769231"/>
      <point x="215.78846153846155" y="510.0192307692308"/>
      <point x="181.98076923076923" y="484.34615384615387" type="curve"/>
      <point x="181.98076923076923" y="727.6923076923077" type="line" smooth="yes"/>
      <point x="181.98076923076923" y="743.7115384615385"/>
      <point x="168.25" y="752.5769230769231"/>
      <point x="136.21153846153845" y="752.5769230769231" type="curve" smooth="yes"/>
      <point x="125.28846153846153" y="752.5769230769231" type="line" smooth="yes"/>
      <point x="93.25" y="752.5769230769231"/>
      <point x="79.51923076923077" y="743.7115384615385"/>
      <point x="79.51923076923077" y="727.6923076923077" type="curve" smooth="yes"/>
      <point x="79.51923076923077" y="22.884615384615383" type="line" smooth="yes"/>
      <point x="79.51923076923077" y="6.865384615384615"/>
      <point x="91.11538461538461" y="-2.0"/>
      <point x="118.17307692307692" y="-2.0" type="curve" smooth="yes"/>
      <point x="124.48076923076923" y="-2.0" type="line" smooth="yes"/>
      <point x="143.09615384615384" y="-2.0"/>
      <point x="153.82692307692307" y="1.5769230769230769"/>
      <point x="159.26923076923077" y="14.038461538461538" type="curve" smooth="yes"/>
      <point x="165.98076923076923" y="28.03846153846154"/>
      <point x="170.98076923076923" y="45.88461538461539"/>
      <point x="174.69230769230768" y="68.42307692307692" type="curve"/>
      <point x="216.19230769230768" y="19.73076923076923"/>
      <point x="268.03846153846155" y="-6.576923076923077"/>
    </contour>
    <contour>
      <point x="301.6923076923077" y="80.26923076923077" type="curve" smooth="yes"/>
      <point x="259.4230769230769" y="80.26923076923077"/>
      <point x="216.34615384615384" y="105.42307692307692"/>
      <point x="181.98076923076923" y="146.3846153846154" type="curve"/>
      <point x="181.98076923076923" y="405.6730769230769" type="line"/>
      <point x="212.21153846153845" y="429.61538461538464"/>
      <point x="250.8653846153846" y="443.1730769230769"/>
      <point x="290.40384615384613" y="443.1730769230769" type="curve" smooth="yes"/>
      <point x="371.90384615384613" y="443.1730769230769"/>
      <point x="412.5769230769231" y="380.5"/>
      <point x="412.5769230769231" y="266.9807692307692" type="curve" smooth="yes"/>
      <point x="412.5769230769231" y="147.21153846153845"/>
      <point x="373.7692307692308" y="80.26923076923077"/>
    </contour>
  </outline>
</glyph>
<glyph name="c" format="2">
  <advance width="485.0"/>
  <unicode hex="0063"/>
  <anchor x="287.7307692307692" y="0.0" name="bottom"/>
  <anchor x="276.4230769230769" y="523.0" name="top"/>
  <outline>
    <contour>
      <point x="296.84615384615387" y="-6.576923076923077" type="curve" smooth="yes"/>
      <point x="368.2692307692308" y="-6.576923076923077"/>
      <point x="459.03846153846155" y="17.384615384615387"/>
      <point x="459.03846153846155" y="49.90384615384615" type="curve" smooth="yes"/>
      <point x="459.03846153846155" y="65.63461538461539"/>
      <point x="436.15384615384613" y="108.11538461538461"/>
      <point x="419.84615384615387" y="108.11538461538461" type="curve" smooth="yes"/>
      <point x="417.9807692307692" y="108.11538461538461"/>
      <point x="413.40384615384613" y="105.82692307692308"/>
      <point x="406.8269230769231" y="103.53846153846153" type="curve"/>
      <point x="388.3942307692308" y="94.97115384615384"/>
      <point x="351.5576923076923" y="78.40384615384616"/>
      <point x="298.15384615384613" y="78.40384615384616" type="curve" smooth="yes"/>
      <point x="195.82692307692307" y="78.40384615384616"/>
      <point x="157.0" y="135.51923076923077"/>
      <point x="157.0" y="264.84615384615387" type="curve" smooth="yes"/>
      <point x="157.0" y="393.1730769230769"/>
      <point x="207.07692307692307" y="444.59615384615387"/>
      <point x="292.7692307692308" y="444.59615384615387" type="curve" smooth="yes"/>
      <point x="343.3076923076923" y="444.59615384615387"/>
      <point x="377.4230769230769" y="429.46153846153845"/>
      <point x="395.4230769230769" y="421.1730769230769" type="curve" smooth="yes"/>
      <point x="402.0" y="418.24038461538464"/>
      <point x="405.86538461538464" y="416.3076923076923"/>
      <point x="408.4423076923077" y="416.3076923076923" type="curve" smooth="yes"/>
      <point x="422.59615384615387" y="416.3076923076923"/>
      <point x="446.5" y="460.0769230769231"/>
      <point x="446.5" y="476.9423076923077" type="curve" smooth="yes"/>
      <point x="446.5" y="507.28846153846155"/>
      <point x="367.15384615384613" y="529.5769230769231"/>
      <point x="291.88461538461536" y="529.5769230769231" type="curve" smooth="yes"/>
      <point x="158.42307692307693" y="529.5769230769231"/>
      <point x="49.11538461538461" y="462.3269230769231"/>
      <point x="49.11538461538461" y="262.2692307692308" type="curve" smooth="yes"/>
      <point x="49.11538461538461" y="73.3076923076923"/>
      <point x="132.25" y="-6.576923076923077"/>
    </contour>
  </outline>
</glyph>
<glyph name="d" format="2">
  <advance width="565.0"/>
  <unicode hex="0064"/>
  <anchor x="283.88461538461536" y="0.0" name="bottom"/>
  <anchor x="419.84615384615387" y="630.0" name="center"/>
  <anchor x="283.0" y="752.0" name="top"/>
  <anchor x="525.8269230769231" y="750.0" name="topright"/>
  <outline>
    <contour>
      <point x="241.09615384615384" y="-6.576923076923077" type="curve" smooth="yes"/>
      <point x="299.53846153846155" y="-6.576923076923077"/>
      <point x="351.38461538461536" y="19.73076923076923"/>
      <point x="392.88461538461536" y="68.42307692307692" type="curve"/>
      <point x="398.88461538461536" y="41.0"/>
      <point x="403.0192307692308" y="-1.0"/>
      <point x="429.3269230769231" y="-1.0" type="curve" smooth="yes"/>
      <point x="445.78846153846155" y="-1.0"/>
      <point x="500.0576923076923" y="4.153846153846153"/>
      <point x="500.0576923076923" y="24.596153846153847" type="curve" smooth="yes"/>
      <point x="500.0576923076923" y="34.21153846153846"/>
      <point x="488.0576923076923" y="68.01923076923077"/>
      <point x="488.0576923076923" y="156.07692307692307" type="curve" smooth="yes"/>
      <point x="488.0576923076923" y="727.6923076923077" type="line" smooth="yes"/>
      <point x="488.0576923076923" y="743.7115384615385"/>
      <point x="474.3269230769231" y="752.5769230769231"/>
      <point x="442.28846153846155" y="752.5769230769231" type="curve" smooth="yes"/>
      <point x="431.36538461538464" y="752.5769230769231" type="line" smooth="yes"/>
      <point x="399.3269230769231" y="752.5769230769231"/>
      <point x="385.59615384615387" y="743.7115384615385"/>
      <point x="385.59615384615387" y="727.6923076923077" type="curve" smooth="yes"/>
      <point x="385.59615384615387" y="484.34615384615387" type="line"/>
      <point x="351.78846153846155" y="510.0192307692308"/>
      <point x="312.09615384615387" y="529.5769230769231"/>
      <point x="254.42307692307693" y="529.5769230769231" type="curve" smooth="yes"/>
      <point x="130.80769230769232" y="529.5769230769231"/>
      <point x="49.11538461538461" y="432.11538461538464"/>
      <point x="49.11538461538461" y="261.28846153846155" type="curve" smooth="yes"/>
      <point x="49.11538461538461" y="100.8076923076923"/>
      <point x="124.5576923076923" y="-6.576923076923077"/>
    </contour>
    <contour>
      <point x="265.88461538461536" y="80.26923076923077" type="curve" smooth="yes"/>
      <point x="193.80769230769232" y="80.26923076923077"/>
      <point x="155.0" y="147.21153846153845"/>
      <point x="155.0" y="266.9807692307692" type="curve" smooth="yes"/>
      <point x="155.0" y="380.5"/>
      <point x="195.67307692307693" y="443.1730769230769"/>
      <point x="277.88461538461536" y="443.1730769230769" type="curve" smooth="yes"/>
      <point x="318.84615384615387" y="443.1730769230769"/>
      <point x="355.36538461538464" y="429.61538461538464"/>
      <point x="385.59615384615387" y="405.6730769230769" type="curve"/>
      <point x="385.59615384615387" y="146.3846153846154" type="line"/>
      <point x="351.2307692307692" y="105.42307692307692"/>
      <point x="308.15384615384613" y="80.26923076923077"/>
    </contour>
  </outline>
</glyph>
<glyph name="e" format="2">
  <advance width="539.0"/>
  <unicode hex="0065"/>
  <anchor x="270.0" y="0.0" name="bottom"/>
  <anchor x="381.84615384615387" y="0.0" name="ogonek"/>
  <anchor x="276.4423076923077" y="523.0" name="top"/>
  <outline>
    <contour>
      <point x="300.86538461538464" y="-6.576923076923077" type="curve" smooth="yes"/>
      <point x="388.88461538461536" y="-6.576923076923077"/>
      <point x="480.86538461538464" y="28.230769230769234"/>
      <point x="480.86538461538464" y="59.73076923076923" type="curve" smooth="yes"/>
      <point x="480.86538461538464" y="73.32692307692308"/>
      <point x="457.2692307692308" y="117.23076923076923"/>
      <point x="440.96153846153845" y="117.23076923076923" type="curve" smooth="yes"/>
      <point x="429.8076923076923" y="117.23076923076923"/>
      <point x="382.25" y="78.40384615384616"/>
      <point x="302.1730769230769" y="78.40384615384616" type="curve" smooth="yes"/>
      <point x="212.98076923076923" y="78.40384615384616"/>
      <point x="167.1346153846154" y="121.1923076923077"/>
      <point x="159.42307692307693" y="223.25" type="curve"/>
      <point x="457.8269230769231" y="223.25" type="line" smooth="yes"/>
      <point x="470.11538461538464" y="223.25"/>
      <point x="496.0192307692308" y="256.0"/>
      <point x="496.0192307692308" y="269.4423076923077" type="curve" smooth="yes"/>
      <point x="496.0192307692308" y="430.5"/>
      <point x="429.90384615384613" y="529.5769230769231"/>
      <point x="287.13461538461536" y="529.5769230769231" type="curve" smooth="yes"/>
      <point x="137.01923076923077" y="529.5769230769231"/>
      <point x="51.25" y="440.7692307692308"/>
      <point x="51.25" y="258.0" type="curve" smooth="yes"/>
      <point x="51.25" y="84.1923076923077"/>
      <point x="130.53846153846155" y="-6.576923076923077"/>
    </contour>
    <contour>
      <point x="159.42307692307693" y="303.03846153846155" type="line"/>
      <point x="167.8653846153846" y="399.96153846153845"/>
      <point x="210.98076923076923" y="444.59615384615387"/>
      <point x="285.0" y="444.59615384615387" type="curve" smooth="yes"/>
      <point x="356.34615384615387" y="444.59615384615387"/>
      <point x="391.15384615384613" y="394.4807692307692"/>
      <point x="391.15384615384613" y="303.03846153846155" type="curve"/>
    </contour>
  </outline>
</glyph>
<glyph name="g" format="2">
  <advance width="546.0"/>
  <unicode hex="0067"/>
  <anchor x="273.0" y="523.0" name="top"/>
  <outline>
    <contour>
      <point x="255.59615384615384" y="-212.0" type="curve" smooth="yes"/>
      <point x="412.7307692307692" y="-212.0"/>
      <point x="499.36538461538464" y="-153.53846153846155"/>
      <point x="499.36538461538464" y="-55.519230769230774" type="curve" smooth="yes"/>
      <point x="499.36538461538464" y="38.78846153846154"/>
      <point x="426.34615384615387" y="67.36538461538461"/>
      <point x="340.09615384615387" y="79.51923076923077" type="curve" smooth="yes"/>
      <point x="261.5192307692308" y="90.67307692307692"/>
      <point x="183.80769230769232" y="90.38461538461539"/>
      <point x="183.80769230769232" y="143.8846153846154" type="curve" smooth="yes"/>
      <point x="183.80769230769232" y="181.25"/>
      <point x="209.59615384615384" y="196.51923076923077"/>
      <point x="268.03846153846155" y="196.51923076923077" type="curve" smooth="yes"/>
      <point x="392.71153846153845" y="196.51923076923077"/>
      <point x="467.0576923076923" y="262.1730769230769"/>
      <point x="467.0576923076923" y="362.25" type="curve" smooth="yes"/>
      <point x="467.0576923076923" y="393.21153846153845"/>
      <point x="460.1923076923077" y="419.5"/>
      <point x="437.5192307692308" y="443.88461538461536" type="curve"/>
      <point x="438.8076923076923" y="446.46153846153845" type="line"/>
      <point x="457.34615384615387" y="442.46153846153845"/>
      <point x="493.75" y="438.88461538461536"/>
      <point x="507.4423076923077" y="438.88461538461536" type="curve" smooth="yes"/>
      <point x="522.0192307692307" y="438.88461538461536"/>
      <point x="528.5961538461538" y="449.3269230769231"/>
      <point x="528.5961538461538" y="473.78846153846155" type="curve" smooth="yes"/>
      <point x="528.5961538461538" y="487.2307692307692" type="line" smooth="yes"/>
      <point x="528.5961538461538" y="512.2692307692307"/>
      <point x="521.7307692307693" y="523.0"/>
      <point x="505.71153846153845" y="523.0" type="curve" smooth="yes"/>
      <point x="329.7692307692308" y="523.0" type="line"/>
      <point x="310.03846153846155" y="527.2884615384615"/>
      <point x="288.3076923076923" y="529.5769230769231"/>
      <point x="265.5769230769231" y="529.5769230769231" type="curve" smooth="yes"/>
      <point x="139.46153846153845" y="529.5769230769231"/>
      <point x="63.38461538461539" y="464.21153846153845"/>
      <point x="63.38461538461539" y="362.25" type="curve" smooth="yes"/>
      <point x="63.38461538461539" y="299.0769230769231"/>
      <point x="93.25" y="248.3846153846154"/>
      <point x="147.94230769230768" y="220.96153846153845" type="curve"/>
      <point x="112.07692307692308" y="198.25"/>
      <point x="92.21153846153847" y="167.25"/>
      <point x="92.21153846153847" y="126.6923076923077" type="curve" smooth="yes"/>
      <point x="92.21153846153847" y="90.13461538461539"/>
      <point x="107.21153846153847" y="64.26923076923077"/>
      <point x="131.65384615384616" y="46.71153846153846" type="curve"/>
      <point x="130.65384615384616" y="44.13461538461539" type="line"/>
      <point x="78.76923076923077" y="22.557692307692307"/>
      <point x="42.5" y="-22.71153846153846"/>
      <point x="42.5" y="-78.98076923076923" type="curve" smooth="yes"/>
      <point x="42.5" y="-174.25"/>
      <point x="125.1923076923077" y="-212.0"/>
    </contour>
    <contour>
      <point x="266.59615384615387" y="-129.15384615384616" type="curve" smooth="yes"/>
      <point x="175.51923076923077" y="-129.15384615384616"/>
      <point x="139.53846153846155" y="-108.3076923076923"/>
      <point x="139.53846153846155" y="-60.67307692307692" type="curve" smooth="yes"/>
      <point x="139.53846153846155" y="-23.596153846153847"/>
      <point x="164.23076923076923" y="0.5384615384615388"/>
      <point x="197.09615384615384" y="14.673076923076923" type="curve"/>
      <point x="285.4807692307692" y="-4.0"/>
      <point x="400.90384615384613" y="5.634615384615385"/>
      <point x="400.90384615384613" y="-60.23076923076923" type="curve" smooth="yes"/>
      <point x="400.90384615384613" y="-106.59615384615384"/>
      <point x="357.65384615384613" y="-129.15384615384616"/>
    </contour>
    <contour>
      <point x="264.86538461538464" y="277.1923076923077" type="curve" smooth="yes"/>
      <point x="207.5" y="277.1923076923077"/>
      <point x="160.69230769230768" y="298.3269230769231"/>
      <point x="160.69230769230768" y="362.6923076923077" type="curve" smooth="yes"/>
      <point x="160.69230769230768" y="427.4807692307692"/>
      <point x="207.5" y="448.90384615384613"/>
      <point x="264.86538461538464" y="448.90384615384613" type="curve" smooth="yes"/>
      <point x="322.2307692307692" y="448.90384615384613"/>
      <point x="369.75" y="427.4807692307692"/>
      <point x="369.75" y="362.6923076923077" type="curve" smooth="yes"/>
      <point x="369.75" y="298.3269230769231"/>
      <point x="322.2307692307692" y="277.1923076923077"/>
    </contour>
  </outline>
</glyph>
<glyph name="h" format="2">
  <advance width="565.0"/>
  <unicode hex="0068"/>
  <anchor x="281.71153846153845" y="0.0" name="bottom"/>
  <anchor x="170.55769230769232" y="630.0" name="center"/>
  <anchor x="136.01923076923077" y="727.8846153846154" name="top"/>
  <outline>
    <contour>
      <point x="130.26923076923077" y="-2.0" type="curve" smooth="yes"/>
      <point x="141.19230769230768" y="-2.0" type="line" smooth="yes"/>
      <point x="173.23076923076923" y="-2.0"/>
      <point x="186.96153846153845" y="6.865384615384615"/>
      <point x="186.96153846153845" y="22.884615384615383" type="curve" smooth="yes"/>
      <point x="186.96153846153845" y="375.90384615384613" type="line"/>
      <point x="190.42307692307693" y="382.53846153846155"/>
      <point x="234.5" y="442.4423076923077"/>
      <point x="299.6923076923077" y="442.4423076923077" type="curve" smooth="yes"/>
      <point x="360.7692307692308" y="442.4423076923077"/>
      <point x="390.7307692307692" y="408.7692307692308"/>
      <point x="390.7307692307692" y="355.53846153846155" type="curve" smooth="yes"/>
      <point x="390.7307692307692" y="22.884615384615383" type="line" smooth="yes"/>
      <point x="390.7307692307692" y="6.865384615384615"/>
      <point x="404.46153846153845" y="-2.0"/>
      <point x="436.5" y="-2.0" type="curve" smooth="yes"/>
      <point x="447.4230769230769" y="-2.0" type="line" smooth="yes"/>
      <point x="479.46153846153845" y="-2.0"/>
      <point x="493.1923076923077" y="6.865384615384615"/>
      <point x="493.1923076923077" y="22.884615384615383" type="curve" smooth="yes"/>
      <point x="493.1923076923077" y="367.5769230769231" type="line" smooth="yes"/>
      <point x="493.1923076923077" y="496.36538461538464"/>
      <point x="410.88461538461536" y="529.5769230769231"/>
      <point x="336.5" y="529.5769230769231" type="curve" smooth="yes"/>
      <point x="273.65384615384613" y="529.5769230769231"/>
      <point x="220.80769230769232" y="496.4423076923077"/>
      <point x="186.96153846153845" y="460.86538461538464" type="curve"/>
      <point x="186.96153846153845" y="727.6923076923077" type="line" smooth="yes"/>
      <point x="186.96153846153845" y="743.7115384615385"/>
      <point x="173.23076923076923" y="752.5769230769231"/>
      <point x="141.19230769230768" y="752.5769230769231" type="curve" smooth="yes"/>
      <point x="130.26923076923077" y="752.5769230769231" type="line" smooth="yes"/>
      <point x="98.23076923076923" y="752.5769230769231"/>
      <point x="84.5" y="743.7115384615385"/>
      <point x="84.5" y="727.6923076923077" type="curve" smooth="yes"/>
      <point x="84.5" y="22.884615384615383" type="line" smooth="yes"/>
      <point x="84.5" y="6.865384615384615"/>
      <point x="98.23076923076923" y="-2.0"/>
    </contour>
  </outline>
</glyph>
<glyph name="k" format="2">
  <advance width="521.0"/>
  <unicode hex="006B"/>
  <anchor x="261.0" y="0.0" name="bottom"/>
  <outline>
    <contour>
      <point x="131.69230769230768" y="-2.0" type="curve" smooth="yes"/>
      <point x="142.6153846153846" y="-2.0" type="line" smooth="yes"/>
      <point x="174.65384615384616" y="-2.0"/>
      <point x="188.3846153846154" y="6.865384615384615"/>
      <point x="188.3846153846154" y="22.884615384615383" type="curve" smooth="yes"/>
      <point x="188.3846153846154" y="247.42307692307693" type="line"/>
      <point x="192.3846153846154" y="247.71153846153845" type="line"/>
      <point x="374.78846153846155" y="12.73076923076923" type="line" smooth="yes"/>
      <point x="384.5" y="-0.1346153846153847"/>
      <point x="406.5" y="-2.0"/>
      <point x="430.5192307692308" y="-2.0" type="curve" smooth="yes"/>
      <point x="445.4807692307692" y="-2.0" type="line" smooth="yes"/>
      <point x="478.78846153846155" y="-2.0"/>
      <point x="493.2307692307692" y="1.8653846153846154"/>
      <point x="493.2307692307692" y="12.288461538461538" type="curve" smooth="yes"/>
      <point x="493.2307692307692" y="16.865384615384617"/>
      <point x="491.08653846153845" y="21.442307692307693"/>
      <point x="484.5192307692308" y="29.73076923076923" type="curve" smooth="yes"/>
      <point x="266.3269230769231" y="310.40384615384613" type="line"/>
      <point x="265.75" y="245.42307692307693" type="line"/>
      <point x="463.36538461538464" y="491.4230769230769" type="line" smooth="yes"/>
      <point x="470.0769230769231" y="499.4230769230769"/>
      <point x="473.0769230769231" y="506.4230769230769"/>
      <point x="473.0769230769231" y="511.4230769230769" type="curve" smooth="yes"/>
      <point x="473.0769230769231" y="519.0"/>
      <point x="460.0576923076923" y="525.0"/>
      <point x="432.0192307692308" y="525.0" type="curve" smooth="yes"/>
      <point x="418.5" y="525.0" type="line" smooth="yes"/>
      <point x="394.4807692307692" y="525.0"/>
      <point x="372.91346153846155" y="522.2884615384615"/>
      <point x="363.1923076923077" y="509.5576923076923" type="curve" smooth="yes"/>
      <point x="192.3846153846154" y="295.11538461538464" type="line"/>
      <point x="188.3846153846154" y="295.40384615384613" type="line"/>
      <point x="188.3846153846154" y="727.6923076923077" type="line" smooth="yes"/>
      <point x="188.3846153846154" y="743.7115384615385"/>
      <point x="174.65384615384616" y="752.5769230769231"/>
      <point x="142.6153846153846" y="752.5769230769231" type="curve" smooth="yes"/>
      <point x="131.69230769230768" y="752.5769230769231" type="line" smooth="yes"/>
      <point x="99.65384615384616" y="752.5769230769231"/>
      <point x="85.92307692307692" y="743.7115384615385"/>
      <point x="85.92307692307692" y="727.6923076923077" type="curve" smooth="yes"/>
      <point x="85.92307692307692" y="22.884615384615383" type="line" smooth="yes"/>
      <point x="85.92307692307692" y="6.865384615384615"/>
      <point x="99.65384615384616" y="-2.0"/>
    </contour>
  </outline>
</glyph>
<glyph name="l" format="2">
  <advance width="297.0"/>
  <unicode hex="006C"/>
  <anchor x="180.15384615384616" y="0.0" name="bottom"/>
  <anchor x="277.1730769230769" y="367.88461538461536" name="center"/>
  <anchor x="128.17307692307693" y="720.0" name="top"/>
  <anchor x="240.71153846153845" y="752.0" name="topright"/>
  <outline>
    <contour>
      <point x="210.42307692307693" y="-6.576923076923077" type="curve" smooth="yes"/>
      <point x="238.57692307692307" y="-6.576923076923077"/>
      <point x="290.0576923076923" y="-3.5769230769230766"/>
      <point x="290.0576923076923" y="28.903846153846153" type="curve" smooth="yes"/>
      <point x="290.0576923076923" y="36.90384615384615"/>
      <point x="281.90384615384613" y="83.11538461538461"/>
      <point x="266.1730769230769" y="83.11538461538461" type="curve" smooth="yes"/>
      <point x="258.03846153846155" y="83.11538461538461"/>
      <point x="251.01923076923077" y="78.40384615384616"/>
      <point x="227.78846153846155" y="78.40384615384616" type="curve" smooth="yes"/>
      <point x="199.65384615384616" y="78.40384615384616"/>
      <point x="178.98076923076923" y="92.11538461538461"/>
      <point x="178.98076923076923" y="143.46153846153845" type="curve" smooth="yes"/>
      <point x="178.98076923076923" y="727.6923076923077" type="line" smooth="yes"/>
      <point x="178.98076923076923" y="743.7115384615385"/>
      <point x="165.25" y="752.5769230769231"/>
      <point x="133.21153846153845" y="752.5769230769231" type="curve" smooth="yes"/>
      <point x="122.28846153846153" y="752.5769230769231" type="line" smooth="yes"/>
      <point x="90.25" y="752.5769230769231"/>
      <point x="76.51923076923077" y="743.7115384615385"/>
      <point x="76.51923076923077" y="727.6923076923077" type="curve" smooth="yes"/>
      <point x="76.51923076923077" y="138.34615384615384" type="line" smooth="yes"/>
      <point x="76.51923076923077" y="23.788461538461537"/>
      <point x="147.73076923076923" y="-6.576923076923077"/>
    </contour>
  </outline>
</glyph>
<glyph name="m" format="2">
  <advance width="848.0"/>
  <unicode hex="006D"/>
  <outline>
    <contour>
      <point x="124.13461538461539" y="-2.0" type="curve" smooth="yes"/>
      <point x="135.05769230769232" y="-2.0" type="line" smooth="yes"/>
      <point x="167.09615384615384" y="-2.0"/>
      <point x="180.82692307692307" y="6.865384615384615"/>
      <point x="180.82692307692307" y="22.884615384615383" type="curve" smooth="yes"/>
      <point x="180.82692307692307" y="376.61538461538464" type="line"/>
      <point x="184.28846153846155" y="383.25"/>
      <point x="226.65384615384616" y="442.4423076923077"/>
      <point x="290.4230769230769" y="442.4423076923077" type="curve" smooth="yes"/>
      <point x="348.65384615384613" y="442.4423076923077"/>
      <point x="375.75" y="408.7692307692308"/>
      <point x="375.75" y="355.53846153846155" type="curve" smooth="yes"/>
      <point x="375.75" y="22.884615384615383" type="line" smooth="yes"/>
      <point x="375.75" y="6.865384615384615"/>
      <point x="389.4807692307692" y="-2.0"/>
      <point x="421.5192307692308" y="-2.0" type="curve" smooth="yes"/>
      <point x="432.4423076923077" y="-2.0" type="line" smooth="yes"/>
      <point x="464.4807692307692" y="-2.0"/>
      <point x="478.21153846153845" y="6.865384615384615"/>
      <point x="478.21153846153845" y="22.884615384615383" type="curve" smooth="yes"/>
      <point x="478.21153846153845" y="366.0" type="line" smooth="yes"/>
      <point x="478.21153846153845" y="381.5769230769231"/>
      <point x="476.63461538461536" y="398.86538461538464"/>
      <point x="470.9230769230769" y="414.4423076923077" type="curve"/>
      <point x="471.63461538461536" y="366.88461538461536" type="line"/>
      <point x="475.63461538461536" y="371.88461538461536"/>
      <point x="519.5576923076923" y="442.4423076923077"/>
      <point x="587.8076923076923" y="442.4423076923077" type="curve" smooth="yes"/>
      <point x="646.0384615384615" y="442.4423076923077"/>
      <point x="673.1346153846154" y="408.7692307692308"/>
      <point x="673.1346153846154" y="355.53846153846155" type="curve" smooth="yes"/>
      <point x="673.1346153846154" y="22.884615384615383" type="line" smooth="yes"/>
      <point x="673.1346153846154" y="6.865384615384615"/>
      <point x="686.8653846153846" y="-2.0"/>
      <point x="718.9038461538462" y="-2.0" type="curve" smooth="yes"/>
      <point x="729.8269230769231" y="-2.0" type="line" smooth="yes"/>
      <point x="761.8653846153846" y="-2.0"/>
      <point x="775.5961538461538" y="6.865384615384615"/>
      <point x="775.5961538461538" y="22.884615384615383" type="curve" smooth="yes"/>
      <point x="775.5961538461538" y="367.5769230769231" type="line" smooth="yes"/>
      <point x="775.5961538461538" y="496.36538461538464"/>
      <point x="696.1538461538462" y="529.5769230769231"/>
      <point x="621.7692307692307" y="529.5769230769231" type="curve" smooth="yes"/>
      <point x="557.6153846153846" y="529.5769230769231"/>
      <point x="499.90384615384613" y="491.5769230769231"/>
      <point x="464.21153846153845" y="448.59615384615387" type="curve"/>
      <point x="438.5192307692308" y="511.9807692307692"/>
      <point x="379.15384615384613" y="529.5769230769231"/>
      <point x="324.38461538461536" y="529.5769230769231" type="curve" smooth="yes"/>
      <point x="260.09615384615387" y="529.5769230769231"/>
      <point x="205.3846153846154" y="492.28846153846155"/>
      <point x="173.53846153846155" y="454.28846153846155" type="curve"/>
      <point x="167.53846153846155" y="480.0"/>
      <point x="163.40384615384616" y="520.0"/>
      <point x="137.09615384615384" y="520.0" type="curve" smooth="yes"/>
      <point x="120.63461538461539" y="520.0"/>
      <point x="66.36538461538461" y="514.8461538461538"/>
      <point x="66.36538461538461" y="494.40384615384613" type="curve" smooth="yes"/>
      <point x="66.36538461538461" y="485.0769230769231"/>
      <point x="78.36538461538461" y="451.2692307692308"/>
      <point x="78.36538461538461" y="364.0769230769231" type="curve" smooth="yes"/>
      <point x="78.36538461538461" y="22.884615384615383" type="line" smooth="yes"/>
      <point x="78.36538461538461" y="6.865384615384615"/>
      <point x="92.09615384615384" y="-2.0"/>
    </contour>
  </outline>
</glyph>
<glyph name="n" format="2">
  <advance width="557.0"/>
  <unicode hex="006E"/>
  <anchor x="279.0" y="0.0" name="bottom"/>
  <anchor x="279.0" y="523.0" name="top"/>
  <outline>
    <contour>
      <point x="124.84615384615384" y="-2.0" type="curve" smooth="yes"/>
      <point x="135.76923076923077" y="-2.0" type="line" smooth="yes"/>
      <point x="167.80769230769232" y="-2.0"/>
      <point x="181.53846153846155" y="6.865384615384615"/>
      <point x="181.53846153846155" y="22.884615384615383" type="curve" smooth="yes"/>
      <point x="181.53846153846155" y="375.90384615384613" type="line"/>
      <point x="208.48076923076923" y="413.13461538461536"/>
      <point x="250.42307692307693" y="442.4423076923077"/>
      <point x="294.2692307692308" y="442.4423076923077" type="curve" smooth="yes"/>
      <point x="353.21153846153845" y="442.4423076923077"/>
      <point x="384.15384615384613" y="410.1923076923077"/>
      <point x="384.15384615384613" y="355.53846153846155" type="curve" smooth="yes"/>
      <point x="384.15384615384613" y="22.884615384615383" type="line" smooth="yes"/>
      <point x="384.15384615384613" y="6.865384615384615"/>
      <point x="397.88461538461536" y="-2.0"/>
      <point x="429.9230769230769" y="-2.0" type="curve" smooth="yes"/>
      <point x="440.84615384615387" y="-2.0" type="line" smooth="yes"/>
      <point x="472.88461538461536" y="-2.0"/>
      <point x="486.61538461538464" y="6.865384615384615"/>
      <point x="486.61538461538464" y="22.884615384615383" type="curve" smooth="yes"/>
      <point x="486.61538461538464" y="367.5769230769231" type="line" smooth="yes"/>
      <point x="486.61538461538464" y="471.46153846153845"/>
      <point x="429.65384615384613" y="529.5769230769231"/>
      <point x="328.2307692307692" y="529.5769230769231" type="curve" smooth="yes"/>
      <point x="269.63461538461536" y="529.5769230769231"/>
      <point x="212.5" y="498.6923076923077"/>
      <point x="174.25" y="454.28846153846155" type="curve"/>
      <point x="168.25" y="480.0"/>
      <point x="164.1153846153846" y="520.0"/>
      <point x="137.80769230769232" y="520.0" type="curve" smooth="yes"/>
      <point x="121.34615384615384" y="520.0"/>
      <point x="67.07692307692308" y="514.8461538461538"/>
      <point x="67.07692307692308" y="494.40384615384613" type="curve" smooth="yes"/>
      <point x="67.07692307692308" y="485.0769230769231"/>
      <point x="79.07692307692308" y="451.2692307692308"/>
      <point x="79.07692307692308" y="364.0769230769231" type="curve" smooth="yes"/>
      <point x="79.07692307692308" y="22.884615384615383" type="line" smooth="yes"/>
      <point x="79.07692307692308" y="6.865384615384615"/>
      <point x="92.8076923076923" y="-2.0"/>
    </contour>
  </outline>
</glyph>
<glyph name="o" format="2">
  <advance width="569.0"/>
  <unicode hex="006F"/>
  <anchor x="291.0" y="0.0" name="bottom"/>
  <anchor x="379.1730769230769" y="505.0" name="horn"/>
  <anchor x="334.5769230769231" y="0.0" name="ogonek"/>
  <anchor x="285.0" y="523.0" name="top"/>
  <outline>
    <contour>
      <point x="286.4230769230769" y="-6.576923076923077" type="curve" smooth="yes"/>
      <point x="438.3076923076923" y="-6.576923076923077"/>
      <point x="517.75" y="86.57692307692308"/>
      <point x="517.75" y="259.86538461538464" type="curve" smooth="yes"/>
      <point x="517.75" y="433.86538461538464"/>
      <point x="436.88461538461536" y="529.5769230769231"/>
      <point x="286.4230769230769" y="529.5769230769231" type="curve" smooth="yes"/>
      <point x="134.53846153846155" y="529.5769230769231"/>
      <point x="51.25" y="433.15384615384613"/>
      <point x="51.25" y="259.86538461538464" type="curve" smooth="yes"/>
      <point x="51.25" y="87.28846153846153"/>
      <point x="133.1153846153846" y="-6.576923076923077"/>
    </contour>
    <contour>
      <point x="284.28846153846155" y="78.40384615384616" type="curve" smooth="yes"/>
      <point x="196.09615384615384" y="78.40384615384616"/>
      <point x="157.1346153846154" y="137.80769230769232"/>
      <point x="157.1346153846154" y="261.28846153846155" type="curve" smooth="yes"/>
      <point x="157.1346153846154" y="385.4807692307692"/>
      <point x="196.80769230769232" y="444.59615384615387"/>
      <point x="284.28846153846155" y="444.59615384615387" type="curve" smooth="yes"/>
      <point x="372.4807692307692" y="444.59615384615387"/>
      <point x="412.5769230769231" y="384.7692307692308"/>
      <point x="412.5769230769231" y="261.28846153846155" type="curve" smooth="yes"/>
      <point x="412.5769230769231" y="137.80769230769232"/>
      <point x="372.4807692307692" y="78.40384615384616"/>
    </contour>
  </outline>
</glyph>
